<svg width="112" height="35" viewBox="0 0 112 35" fill="none" xmlns="http://www.w3.org/2000/svg">
<g clip-path="url(#clip0_848_67)">
<path d="M38.5175 0.0183447L29.8328 18.1768H32.0576L40.6664 0.0183447H38.5175Z" fill="#0E090E"/>
<path d="M31.0594 0.0183447L22.3745 18.1768H24.5993L33.2079 0.0183447H31.0594Z" fill="#0E090E"/>
<path d="M23.6009 0.0183447L14.9167 18.1768H17.1412L25.7498 0.0183447H23.6009Z" fill="#0E090E"/>
<path d="M16.1427 0.0183447L7.45837 18.1768H9.68302L18.2916 0.0183447H16.1427Z" fill="#0E090E"/>
<path d="M8.68461 0.0183447L0 18.1768H2.2249L10.8335 0.0183447H8.68461Z" fill="#0E090E"/>
<path d="M45.9756 0.0183447L37.2913 18.1768H39.5159L48.1245 0.0183447H45.9756Z" fill="#0E090E"/>
<path d="M61.9905 18.1768H65.8788V0.0150695H61.9905V18.1768Z" fill="#0E090E"/>
<path d="M53.3739 0.018002L44.7498 18.1768H48.6119L57.337 0.018002H53.3739Z" fill="#0E090E"/>
<path d="M89.1084 18.1768H92.997V0.0150695H89.1084V18.1768Z" fill="#0E090E"/>
<path d="M98.5072 18.1768H102.396V0.0150695H98.5072V18.1768Z" fill="#0E090E"/>
<path d="M107.906 18.1768H111.794V0.0150695H107.906V18.1768Z" fill="#0E090E"/>
<path d="M82.991 0.000911455L69.3063 7.5602V10.727L82.991 18.1846V14.2078L73.3199 9.14392L82.991 4.00325V0.000911455Z" fill="#0E090E"/>
<path d="M4.68115 34.8913C4.66987 34.6227 4.66297 34.3613 4.66029 34.1063C4.65753 33.8519 4.65616 33.5931 4.65616 33.3303V30.6613H3.44647V32.8519C3.44647 33.003 3.43551 33.1554 3.41353 33.309C3.39121 33.4633 3.34715 33.6014 3.28096 33.7244C3.21474 33.8479 3.12356 33.9484 3.00746 34.0266C2.89152 34.105 2.73949 34.1443 2.55166 34.1443C2.36399 34.1443 2.21756 34.1078 2.11265 34.0351C2.00782 33.9627 1.9305 33.8672 1.88061 33.7499C1.83103 33.6324 1.80069 33.4996 1.78966 33.3513C1.77846 33.2028 1.77302 33.0562 1.77302 32.9103V30.6613H0.563416V33.3972C0.563416 33.9066 0.68763 34.294 0.93622 34.5596C1.18489 34.8254 1.56865 34.9582 2.08789 34.9582C2.39718 34.9582 2.65535 34.901 2.8624 34.7863C3.06969 34.6715 3.26708 34.4913 3.45482 34.2451L3.47146 34.8913H4.68115ZM11.1185 34.8913V32.1554C11.1185 31.646 10.9929 31.2587 10.7415 30.9928C10.49 30.7272 10.1077 30.5944 9.59397 30.5944C9.28469 30.5944 9.02506 30.6517 8.81535 30.7665C8.6053 30.881 8.40634 31.0616 8.21877 31.3075L8.20213 30.6613H7.00088C7.01185 30.8069 7.02011 30.9482 7.02572 31.0853C7.03123 31.2225 7.03382 31.3581 7.03382 31.4924V34.8913H8.24353V32.7593C8.24353 32.642 8.25308 32.5049 8.27265 32.3483C8.29196 32.1917 8.33334 32.0447 8.39677 31.9078C8.46039 31.7706 8.54858 31.6545 8.66208 31.5595C8.77509 31.4644 8.92827 31.4167 9.12195 31.4167C9.30944 31.4167 9.45589 31.4531 9.56095 31.526C9.66561 31.5987 9.74439 31.6938 9.79712 31.8113C9.84946 31.9284 9.88118 32.0614 9.89229 32.21C9.90326 32.3581 9.90884 32.5049 9.90884 32.6505V34.8913H11.1185ZM17.6719 34.8913C17.6552 34.7008 17.6455 34.5108 17.6428 34.3203C17.6401 34.1305 17.6386 33.9428 17.6386 33.7582V28.8235H16.4289V31.1985C16.2523 30.9637 16.0561 30.7984 15.8408 30.7034C15.6254 30.6082 15.3713 30.5608 15.0787 30.5608C14.7526 30.5608 14.4765 30.6267 14.2502 30.758C14.0237 30.8896 13.8371 31.0616 13.6909 31.2741C13.5445 31.4866 13.438 31.7244 13.3718 31.9875C13.3056 32.2506 13.2725 32.5162 13.2725 32.7847C13.2725 33.0814 13.3082 33.3611 13.3801 33.6239C13.4517 33.8868 13.5637 34.1192 13.7158 34.3203C13.8676 34.5217 14.0595 34.6813 14.2916 34.7988C14.5235 34.9163 14.7996 34.9749 15.1201 34.9749C15.4127 34.9749 15.6557 34.9233 15.8491 34.8199C16.0424 34.7161 16.2329 34.5528 16.4209 34.3287L16.4539 34.8913H17.6719ZM16.4085 33.2378C16.3779 33.4055 16.3256 33.5598 16.2509 33.6994C16.1764 33.8392 16.0781 33.9552 15.9568 34.0478C15.8353 34.1401 15.6807 34.186 15.4929 34.186C15.2885 34.186 15.1228 34.1413 14.9958 34.0519C14.8687 33.9627 14.7693 33.8491 14.6975 33.7121C14.6257 33.5749 14.5758 33.4199 14.5484 33.2461C14.5206 33.0729 14.5069 32.9021 14.5069 32.7342C14.5069 32.5778 14.5194 32.4168 14.5443 32.2518C14.569 32.0868 14.616 31.9357 14.685 31.7985C14.754 31.6613 14.848 31.5498 14.9668 31.463C15.0856 31.3764 15.2386 31.3328 15.4266 31.3328C15.6197 31.3328 15.7814 31.3764 15.9112 31.463C16.041 31.5498 16.1458 31.6613 16.2261 31.7985C16.306 31.9357 16.3643 32.088 16.4001 32.2559C16.4361 32.4238 16.4539 32.5916 16.4539 32.7593C16.4539 32.9103 16.4387 33.07 16.4085 33.2378ZM30.3668 34.8913V32.2641C30.3668 32.0125 30.3391 31.7848 30.2837 31.5803C30.2286 31.3764 30.1404 31.2012 30.0189 31.0557C29.8974 30.9106 29.7414 30.7973 29.5505 30.7162C29.36 30.6347 29.1322 30.5944 28.867 30.5944C28.5523 30.5944 28.2653 30.6588 28.0056 30.7873C27.746 30.9161 27.536 31.123 27.3757 31.4084C27.26 31.112 27.0872 30.9021 26.8579 30.7791C26.6288 30.656 26.3621 30.5944 26.0587 30.5944C25.7602 30.5944 25.4925 30.6502 25.2549 30.7622C25.0175 30.874 24.8187 31.0616 24.6583 31.3245L24.6251 30.6613H23.4404C23.4516 30.9021 23.4599 31.1386 23.4653 31.3706C23.4709 31.6029 23.4734 31.8364 23.4734 32.0712V34.8913H24.6831V32.5496C24.6831 32.4044 24.697 32.2631 24.7248 32.126C24.752 31.9888 24.7992 31.8687 24.8654 31.765C24.9319 31.6613 25.0202 31.5776 25.1307 31.5132C25.2409 31.4488 25.3791 31.4167 25.545 31.4167C25.7108 31.4167 25.8443 31.4488 25.9465 31.5132C26.0489 31.5776 26.1276 31.6628 26.1827 31.7691C26.2381 31.8755 26.274 31.9958 26.2907 32.1301C26.3073 32.2641 26.3154 32.4017 26.3154 32.5415V34.8913H27.5248V32.5748C27.5248 32.4238 27.536 32.2799 27.558 32.1426C27.5803 32.0057 27.6216 31.8825 27.6825 31.7735C27.7433 31.6641 27.8285 31.5776 27.9392 31.5132C28.0495 31.4488 28.1934 31.4167 28.3699 31.4167C28.5467 31.4167 28.6877 31.4475 28.7926 31.5092C28.8975 31.5708 28.976 31.653 29.0286 31.7567C29.0811 31.8602 29.1156 31.979 29.1322 32.1131C29.1488 32.2474 29.1571 32.3874 29.1571 32.533V34.8913H30.3668ZM36.6302 33.0113C36.6302 32.7593 36.6221 32.5247 36.6054 32.3065C36.5888 32.088 36.5363 31.8755 36.4478 31.6686C36.3651 31.4728 36.2615 31.3033 36.1373 31.1609C36.0129 31.0181 35.8708 30.9004 35.7105 30.8084C35.5503 30.7162 35.3763 30.649 35.1887 30.6069C35.0005 30.5651 34.8047 30.544 34.6005 30.544C33.8823 30.544 33.3425 30.751 32.9807 31.165C32.6189 31.5791 32.4377 32.1385 32.4377 32.8434C32.4377 33.5315 32.6213 34.0604 32.989 34.4297C33.356 34.7988 33.8796 34.9832 34.5588 34.9832C34.8018 34.9832 35.0381 34.9582 35.2672 34.908C35.4965 34.8575 35.7022 34.7752 35.8843 34.6605C36.0667 34.546 36.22 34.3949 36.3442 34.2072C36.4688 34.0196 36.55 33.7888 36.5888 33.5147H35.4124C35.346 34.0073 35.067 34.2534 34.5754 34.2534C34.3986 34.2534 34.2493 34.2185 34.128 34.1486C34.0065 34.0785 33.9072 33.9862 33.83 33.8715C33.7525 33.7569 33.6974 33.6254 33.6642 33.4768C33.631 33.3288 33.6144 33.1736 33.6144 33.0113H36.6302ZM33.6393 32.3065C33.6393 32.0066 33.7234 31.7597 33.8918 31.5653C34.0605 31.3712 34.294 31.2741 34.592 31.2741C34.8849 31.2741 35.1027 31.367 35.2467 31.5529C35.39 31.7391 35.4621 31.9898 35.4621 32.3065H33.6393ZM42.8439 34.8913C42.8273 34.7008 42.8173 34.5108 42.8146 34.3203C42.8121 34.1305 42.8107 33.9428 42.8107 33.7582V28.8235H41.601V31.1985C41.4241 30.9637 41.2282 30.7984 41.0128 30.7034C40.7972 30.6082 40.5434 30.5608 40.2508 30.5608C39.9245 30.5608 39.6485 30.6267 39.4221 30.758C39.1957 30.8896 39.0089 31.0616 38.8629 31.2741C38.7165 31.4866 38.61 31.7244 38.5439 31.9875C38.4777 32.2506 38.4444 32.5162 38.4444 32.7847C38.4444 33.0814 38.4801 33.3611 38.5522 33.6239C38.6239 33.8868 38.7358 34.1192 38.8877 34.3203C39.0397 34.5217 39.2314 34.6813 39.4636 34.7988C39.6956 34.9163 39.9716 34.9749 40.2921 34.9749C40.5846 34.9749 40.8278 34.9233 41.0211 34.8199C41.2143 34.7161 41.4048 34.5528 41.5929 34.3287L41.626 34.8913H42.8439ZM41.5805 33.2378C41.5499 33.4055 41.4976 33.5598 41.4228 33.6994C41.3485 33.8392 41.25 33.9552 41.1287 34.0478C41.0072 34.1401 40.8525 34.186 40.6649 34.186C40.4604 34.186 40.2948 34.1413 40.1677 34.0519C40.0408 33.9627 39.9411 33.8491 39.8697 33.7121C39.7978 33.5749 39.7479 33.4199 39.7205 33.2461C39.6925 33.0729 39.679 32.9021 39.679 32.7342C39.679 32.5778 39.6912 32.4168 39.7162 32.2518C39.7411 32.0868 39.7878 31.9357 39.857 31.7985C39.9259 31.6613 40.0198 31.5498 40.1388 31.463C40.2576 31.3764 40.4105 31.3328 40.5985 31.3328C40.7916 31.3328 40.9532 31.3764 41.083 31.463C41.2128 31.5498 41.3177 31.6613 41.3979 31.7985C41.4781 31.9357 41.536 32.088 41.5722 32.2559C41.6081 32.4238 41.626 32.5916 41.626 32.7593C41.626 32.9103 41.6106 33.07 41.5805 33.2378ZM46.4228 28.8235H45.1637V29.7971H46.4228V28.8235ZM46.3979 30.6528H45.1882V34.8913H46.3979V30.6528ZM52.6864 33.0113C52.6864 32.7593 52.6781 32.5247 52.6615 32.3065C52.6448 32.088 52.5923 31.8755 52.504 31.6686C52.4212 31.4728 52.3175 31.3033 52.1935 31.1609C52.0691 31.0181 51.9266 30.9004 51.7667 30.8084C51.6063 30.7162 51.4325 30.649 51.2445 30.6069C51.057 30.5651 50.8609 30.544 50.6563 30.544C49.9383 30.544 49.3985 30.751 49.0367 31.165C48.6749 31.5791 48.494 32.1385 48.494 32.8434C48.494 33.5315 48.6778 34.0604 49.045 34.4297C49.4124 34.7988 49.9358 34.9832 50.6152 34.9832C50.8582 34.9832 51.0942 34.9582 51.3233 34.908C51.5526 34.8575 51.7584 34.7752 51.9407 34.6605C52.1231 34.546 52.276 34.3949 52.4006 34.2072C52.5246 34.0196 52.6062 33.7888 52.6448 33.5147H51.4682C51.402 34.0073 51.123 34.2534 50.6314 34.2534C50.4549 34.2534 50.3057 34.2185 50.1842 34.1486C50.0627 34.0785 49.963 33.9862 49.8858 33.8715C49.8085 33.7569 49.7535 33.6254 49.7202 33.4768C49.687 33.3288 49.6704 33.1736 49.6704 33.0113H52.6864ZM49.6953 32.3065C49.6953 32.0066 49.7796 31.7597 49.9481 31.5653C50.1165 31.3712 50.35 31.2741 50.648 31.2741C50.9407 31.2741 51.159 31.367 51.3027 31.5529C51.4464 31.7391 51.5183 31.9898 51.5183 32.3065H49.6953ZM58.8667 34.8913V32.1554C58.8667 31.646 58.741 31.2587 58.4897 30.9928C58.2382 30.7272 57.8558 30.5944 57.3424 30.5944C57.0329 30.5944 56.7733 30.6517 56.5637 30.7665C56.3537 30.881 56.1548 31.0616 55.9672 31.3075L55.9504 30.6613H54.7491C54.7601 30.8069 54.7684 30.9482 54.774 31.0853C54.7796 31.2225 54.7821 31.3581 54.7821 31.4924V34.8913H55.9919V32.7593C55.9919 32.642 56.0015 32.5049 56.0208 32.3483C56.0401 32.1917 56.0814 32.0447 56.145 31.9078C56.2088 31.7706 56.2968 31.6545 56.4102 31.5595C56.5232 31.4644 56.6767 31.4167 56.8701 31.4167C57.0578 31.4167 57.2043 31.4531 57.3092 31.526C57.414 31.5987 57.4926 31.6938 57.5453 31.8113C57.5977 31.9284 57.6294 32.0614 57.6404 32.21C57.6517 32.3581 57.6571 32.5049 57.6571 32.6505V34.8913H58.8667ZM69.018 34.8913L67.1292 32.4575L68.8361 30.6528H67.3776L65.7623 32.5162L67.4773 34.8913H69.018ZM65.7623 28.8235H64.5525V34.8913H65.7623V28.8235ZM74.6103 34.8913C74.5773 34.6393 74.5578 34.3949 74.5524 34.1568C74.547 33.9189 74.5443 33.6798 74.5443 33.4392V32.1805C74.5443 31.8337 74.5015 31.5525 74.4159 31.337C74.3302 31.1216 74.2089 30.9552 74.0514 30.8377C73.8938 30.7201 73.7031 30.6405 73.4794 30.5986C73.2559 30.5565 73.0032 30.5355 72.7215 30.5355C72.5005 30.5355 72.2808 30.5565 72.0629 30.5986C71.8446 30.6405 71.6458 30.7119 71.4664 30.8126C71.2867 30.9131 71.1418 31.0502 71.0315 31.2236C70.921 31.3972 70.8628 31.6126 70.8572 31.87H72.0918C72.0918 31.6743 72.1416 31.5147 72.2409 31.3915C72.3406 31.2687 72.5059 31.207 72.7381 31.207C72.8704 31.207 72.9784 31.2319 73.0611 31.2824C73.1442 31.3328 73.2088 31.3987 73.2559 31.4798C73.3027 31.561 73.3332 31.6545 73.3469 31.7608C73.3608 31.867 73.3679 31.9763 73.3679 32.088V32.2474H73.0279C72.7849 32.2474 72.5213 32.2602 72.237 32.2854C71.9522 32.3103 71.6872 32.3721 71.4415 32.4699C71.1958 32.568 70.9901 32.7121 70.8244 32.9021C70.6586 33.0924 70.5758 33.3526 70.5758 33.6825C70.5758 33.9066 70.613 34.0997 70.6877 34.2618C70.7623 34.4239 70.8655 34.5582 70.9982 34.6645C71.1307 34.7707 71.2855 34.8492 71.462 34.8996C71.639 34.9499 71.8294 34.9749 72.0338 34.9749C72.3323 34.9749 72.5861 34.9275 72.7961 34.8324C73.0061 34.7374 73.1965 34.564 73.3679 34.3122C73.3731 34.4129 73.3828 34.5108 73.3968 34.6059C73.4107 34.7008 73.4339 34.7961 73.467 34.8913H74.6103ZM73.3679 32.9189C73.3679 33.0814 73.3565 33.2408 73.3346 33.3972C73.3124 33.554 73.2682 33.6953 73.2019 33.8212C73.1359 33.9469 73.0418 34.0493 72.9205 34.1275C72.799 34.206 72.6416 34.2451 72.448 34.2451C72.2658 34.2451 72.1071 34.1891 71.9715 34.0771C71.8365 33.9652 71.7688 33.8115 71.7688 33.6156C71.7688 33.4478 71.8116 33.3135 71.8972 33.2126C71.9827 33.112 72.0891 33.0336 72.2162 32.9777C72.3431 32.9216 72.4825 32.884 72.6347 32.8644C72.7863 32.8449 72.9259 32.8351 73.0528 32.8351C73.1134 32.8351 73.166 32.8366 73.2102 32.8392C73.2543 32.8419 73.307 32.8434 73.3679 32.8434V32.9189ZM79.5318 31.7106V30.6448C79.4929 30.6391 79.4585 30.6362 79.4283 30.6362H79.333C79.0292 30.6362 78.7722 30.7006 78.5625 30.8292C78.3525 30.958 78.1784 31.1624 78.0405 31.442L78.0075 30.6613H76.8392C76.8392 30.8407 76.8444 31.0151 76.8558 31.186C76.8668 31.3566 76.8724 31.526 76.8724 31.6938V34.8913H78.0818V32.8936C78.0818 32.5132 78.1649 32.217 78.3302 32.0043C78.496 31.7918 78.7749 31.6853 79.1673 31.6853C79.2776 31.6853 79.3993 31.6938 79.5318 31.7106ZM82.6136 28.8235H81.404V34.8913H82.6136V28.8235ZM88.4427 33.0995C88.3684 32.9625 88.2705 32.8477 88.1495 32.7554C88.0284 32.6628 87.8892 32.5891 87.7322 32.533C87.5752 32.4769 87.4169 32.4295 87.2576 32.3902L86.7865 32.281C86.5335 32.2196 86.3364 32.1497 86.1964 32.0712C86.0558 31.993 85.9858 31.8729 85.9858 31.7106C85.9858 31.6265 86.005 31.5551 86.0436 31.4967C86.0824 31.4378 86.1321 31.3889 86.1929 31.3496C86.2536 31.3105 86.3211 31.2824 86.3956 31.2657C86.4704 31.2489 86.5433 31.2406 86.6152 31.2406C86.8196 31.2406 86.9745 31.3033 87.0792 31.4295C87.1841 31.5551 87.2422 31.7189 87.2532 31.9202H88.438C88.4213 31.6628 88.3619 31.4463 88.2597 31.2699C88.1578 31.0937 88.0236 30.9525 87.858 30.8462C87.6925 30.74 87.5043 30.6643 87.2948 30.6195C87.0848 30.5748 86.8638 30.5523 86.6318 30.5523C86.433 30.5523 86.2274 30.5721 86.0147 30.6111C85.8018 30.6502 85.6087 30.7187 85.4348 30.8164C85.2608 30.9146 85.1183 31.0459 85.0082 31.2113C84.8975 31.3764 84.8423 31.5844 84.8423 31.8364C84.8423 32.0323 84.8784 32.1972 84.95 32.3315C85.0217 32.4658 85.1168 32.5791 85.2358 32.6713C85.3546 32.7637 85.4884 32.8366 85.6375 32.8897C85.7869 32.9429 85.9385 32.989 86.0932 33.0279L86.5491 33.1373C86.7975 33.1989 86.9924 33.2727 87.133 33.3596C87.2738 33.4465 87.3444 33.5708 87.3444 33.7329C87.3444 33.8284 87.3236 33.9105 87.2821 33.9807C87.241 34.0506 87.1884 34.1078 87.1247 34.1524C87.0613 34.1977 86.988 34.2325 86.9053 34.2573C86.8223 34.2827 86.7398 34.2954 86.6567 34.2954C86.4081 34.2954 86.2301 34.231 86.1223 34.1025C86.0147 33.9735 85.9551 33.786 85.9443 33.5398H84.7261C84.7261 33.8309 84.7772 34.0699 84.8794 34.2573C84.9814 34.4452 85.1189 34.5931 85.2928 34.7023C85.4662 34.8116 85.6647 34.8884 85.8876 34.9331C86.1109 34.9779 86.3466 35 86.5946 35C86.815 35 87.0424 34.9794 87.2769 34.9372C87.511 34.8952 87.7216 34.8213 87.9091 34.715C88.0967 34.6088 88.2508 34.466 88.3721 34.2869C88.4932 34.1078 88.5538 33.8815 88.5538 33.6072C88.5538 33.4055 88.5167 33.2365 88.4427 33.0995ZM93.3345 31.7106V30.6448C93.2954 30.6391 93.2609 30.6362 93.2308 30.6362H93.1357C92.8318 30.6362 92.5747 30.7006 92.3651 30.8292C92.1549 30.958 91.9809 31.1624 91.843 31.442L91.81 30.6613H90.6419C90.6419 30.8407 90.647 31.0151 90.6585 31.186C90.6695 31.3566 90.6747 31.526 90.6747 31.6938V34.8913H91.8843V32.8936C91.8843 32.5132 91.9674 32.217 92.1331 32.0043C92.2987 31.7918 92.5774 31.6853 92.97 31.6853C93.08 31.6853 93.2018 31.6938 93.3345 31.7106ZM99.2994 34.8913C99.2884 34.6227 99.2815 34.3613 99.2788 34.1063C99.2757 33.8519 99.2745 33.5931 99.2745 33.3303V30.6613H98.0648V32.8519C98.0648 33.003 98.0538 33.1554 98.032 33.309C98.0096 33.4633 97.9658 33.6014 97.8993 33.7244C97.833 33.8479 97.7419 33.9484 97.626 34.0266C97.5099 34.105 97.358 34.1443 97.1701 34.1443C96.9823 34.1443 96.8359 34.1078 96.731 34.0351C96.6261 33.9627 96.5488 33.8672 96.499 33.7499C96.4496 33.6324 96.4188 33.4996 96.408 33.3513C96.397 33.2028 96.3914 33.0562 96.3914 32.9103V30.6613H95.1818V33.3972C95.1818 33.9066 95.3062 34.294 95.5546 34.5596C95.8032 34.8254 96.187 34.9582 96.7061 34.9582C97.0153 34.9582 97.2739 34.901 97.481 34.7863C97.6881 34.6715 97.8856 34.4913 98.0731 34.2451L98.0898 34.8913H99.2994ZM105.745 34.8913V32.1554C105.745 31.646 105.618 31.2573 105.363 30.9886C105.109 30.7201 104.724 30.5857 104.209 30.5857C103.921 30.5857 103.67 30.6419 103.454 30.7538C103.238 30.8657 103.042 31.0391 102.864 31.2741L102.862 28.8235H101.652V34.8913H102.862V32.7008C102.862 32.5946 102.873 32.4671 102.895 32.3188C102.917 32.1709 102.959 32.0294 103.02 31.8951C103.08 31.7608 103.168 31.6475 103.284 31.5551C103.401 31.463 103.552 31.4167 103.74 31.4167C103.928 31.4167 104.076 31.4531 104.183 31.526C104.291 31.5987 104.371 31.6923 104.424 31.8071C104.476 31.9218 104.508 32.0516 104.519 32.1972C104.53 32.3428 104.536 32.4883 104.536 32.6337V34.8913H105.745ZM112 33.0113C112 32.7593 111.992 32.5247 111.976 32.3065C111.959 32.088 111.906 31.8755 111.818 31.6686C111.735 31.4728 111.632 31.3033 111.507 31.1609C111.383 31.0181 111.241 30.9004 111.081 30.8084C110.92 30.7162 110.747 30.649 110.559 30.6069C110.371 30.5651 110.175 30.544 109.97 30.544C109.252 30.544 108.713 30.751 108.351 31.165C107.989 31.5791 107.808 32.1385 107.808 32.8434C107.808 33.5315 107.991 34.0604 108.359 34.4297C108.726 34.7988 109.25 34.9832 109.929 34.9832C110.172 34.9832 110.408 34.9582 110.637 34.908C110.867 34.8575 111.072 34.7752 111.255 34.6605C111.437 34.546 111.59 34.3949 111.715 34.2072C111.839 34.0196 111.92 33.7888 111.959 33.5147H110.782C110.716 34.0073 110.437 34.2534 109.945 34.2534C109.769 34.2534 109.62 34.2185 109.498 34.1486C109.377 34.0785 109.277 33.9862 109.2 33.8715C109.122 33.7569 109.068 33.6254 109.034 33.4768C109.001 33.3288 108.984 33.1736 108.984 33.0113H112ZM109.009 32.3065C109.009 32.0066 109.094 31.7597 109.262 31.5653C109.431 31.3712 109.664 31.2741 109.962 31.2741C110.255 31.2741 110.473 31.367 110.617 31.5529C110.76 31.7391 110.832 31.9898 110.832 32.3065H109.009Z" fill="#0E090E"/>
<path d="M3.85249 27.8786V27.0645H1.64049L3.76966 24.5133V23.6486H0.339693V24.4797H2.44412L0.256775 27.0477V27.8786H3.85249ZM9.66849 25.9986C9.66849 25.7466 9.66021 25.5117 9.64367 25.2938C9.62704 25.0756 9.57447 24.8631 9.4862 24.6559C9.40326 24.4601 9.29983 24.2906 9.17546 24.1482C9.05123 24.0055 8.90902 23.8877 8.74886 23.7957C8.5887 23.7035 8.41467 23.6363 8.22685 23.5942C8.03919 23.5524 7.84283 23.5313 7.63862 23.5313C6.92061 23.5313 6.38067 23.7383 6.01906 24.1523C5.65721 24.5664 5.47637 25.1259 5.47637 25.8305C5.47637 26.519 5.65997 27.0477 6.02733 27.417C6.39463 27.7863 6.91801 27.9708 7.59733 27.9708C7.84018 27.9708 8.07627 27.9457 8.30555 27.8953C8.53466 27.8448 8.74049 27.7625 8.92287 27.6478C9.10503 27.5333 9.25837 27.3822 9.38266 27.1944C9.50697 27.0071 9.5884 26.7763 9.62704 26.5023H8.4506C8.38441 26.9946 8.10539 27.2407 7.61372 27.2407C7.43701 27.2407 7.2879 27.2058 7.16636 27.1359C7.04491 27.0658 6.94536 26.9733 6.86812 26.8586C6.79079 26.7442 6.73563 26.6127 6.70236 26.4642C6.66933 26.3163 6.65271 26.1609 6.65271 25.9986H9.66849ZM6.67762 25.2938C6.67762 24.994 6.76184 24.747 6.93026 24.5528C7.0986 24.3586 7.33212 24.2614 7.63036 24.2614C7.92301 24.2614 8.14126 24.3543 8.28486 24.5403C8.42863 24.7264 8.50018 24.9771 8.50018 25.2938H6.67762ZM15.8491 27.8786V25.1427C15.8491 24.6335 15.7234 24.246 15.4722 23.9801C15.2205 23.7145 14.8382 23.5814 14.3245 23.5814C14.0153 23.5814 13.7556 23.639 13.5458 23.7539C13.3358 23.8683 13.1369 24.0489 12.9494 24.2948L12.9328 23.6486H11.7314C11.7425 23.7942 11.7508 23.9355 11.7561 24.0726C11.7617 24.2098 11.7645 24.3454 11.7645 24.4797V27.8786H12.9741V25.7466C12.9741 25.6293 12.9836 25.4924 13.0031 25.3354C13.0224 25.179 13.0638 25.0322 13.1273 24.8951C13.1909 24.7581 13.2792 24.642 13.3926 24.5466C13.5056 24.4517 13.6589 24.404 13.8522 24.404C14.04 24.404 14.1864 24.4404 14.2915 24.5133C14.3962 24.586 14.4749 24.6811 14.5274 24.7987C14.5799 24.9159 14.6118 25.049 14.6228 25.1973C14.6338 25.3454 14.6394 25.4924 14.6394 25.6378V27.8786H15.8491ZM20.6625 24.4459V23.6401H19.6765V22.4484L18.5001 22.9352V23.6401H17.6966V24.4459H18.5001V26.8044C18.5001 27.0339 18.5278 27.2226 18.583 27.3709C18.638 27.5192 18.7209 27.6353 18.8315 27.7192C18.9419 27.8031 19.0771 27.8605 19.2375 27.8911C19.3976 27.9219 19.5827 27.9372 19.7926 27.9372C19.9362 27.9372 20.0797 27.9317 20.2235 27.9202C20.367 27.9091 20.5105 27.8924 20.6542 27.8703V27.073C20.5824 27.0785 20.516 27.0855 20.4554 27.0938C20.3946 27.1021 20.3309 27.1064 20.2648 27.1064C20.1212 27.1064 20.0107 27.091 19.9335 27.0602C19.856 27.0297 19.798 26.9848 19.7594 26.9259C19.7207 26.8671 19.6973 26.7914 19.6889 26.6992C19.6807 26.6072 19.6765 26.4993 19.6765 26.376V24.4459H20.6625ZM25.2689 24.6977V23.6321C25.2301 23.6264 25.1954 23.6235 25.1655 23.6235H25.0702C24.7663 23.6235 24.5096 23.6877 24.2996 23.8165C24.0896 23.9453 23.9156 24.1497 23.7775 24.4294L23.7446 23.6486H22.5763C22.5763 23.828 22.5815 24.0025 22.5929 24.1733C22.6039 24.3439 22.6096 24.5133 22.6096 24.6811V27.8786H23.819V25.8811C23.819 25.5007 23.9021 25.2043 24.0676 24.9916C24.2331 24.7791 24.5121 24.6726 24.9044 24.6726C25.0147 24.6726 25.1364 24.6811 25.2689 24.6977ZM31.2341 27.8786C31.2231 27.61 31.2162 27.3486 31.2135 27.0938C31.2104 26.8393 31.2092 26.5806 31.2092 26.3173V23.6486H29.9995V25.8392C29.9995 25.9901 29.9883 26.1427 29.9665 26.2963C29.9445 26.4504 29.9002 26.5889 29.8338 26.7118C29.7677 26.8352 29.6763 26.936 29.5606 27.0141C29.4443 27.0923 29.2925 27.1316 29.105 27.1316C28.9168 27.1316 28.7703 27.0953 28.6657 27.0224C28.5606 26.95 28.4833 26.8548 28.4339 26.7372C28.384 26.6195 28.3535 26.4867 28.3427 26.3386C28.3315 26.1901 28.3261 26.0432 28.3261 25.8976V23.6486H27.1162V26.3845C27.1162 26.8936 27.2408 27.2814 27.489 27.5471C27.7379 27.8129 28.1215 27.9457 28.6407 27.9457C28.95 27.9457 29.2084 27.8883 29.4157 27.7736C29.6227 27.6589 29.8201 27.4784 30.0078 27.2324L30.0242 27.8786H31.2341ZM40.4802 27.8786V25.2514C40.4802 24.9998 40.4522 24.7721 40.3974 24.5676C40.3421 24.3637 40.2534 24.1886 40.1319 24.043C40.0104 23.8979 39.8544 23.7846 39.664 23.7035C39.4733 23.622 39.2457 23.5814 38.9804 23.5814C38.6658 23.5814 38.3785 23.6461 38.1189 23.7746C37.8593 23.9034 37.6493 24.1104 37.4894 24.3957C37.3731 24.0993 37.2007 23.8894 36.9714 23.7664C36.7423 23.6433 36.4756 23.5814 36.1719 23.5814C35.8735 23.5814 35.6055 23.6376 35.3683 23.7495C35.1305 23.8613 34.9318 24.0489 34.7718 24.3118L34.7386 23.6486H33.5537C33.5647 23.8894 33.573 24.1259 33.5788 24.358C33.5842 24.5902 33.5871 24.8237 33.5871 25.0588V27.8786H34.7968V25.5371C34.7968 25.3917 34.8103 25.2504 34.8381 25.1133C34.8657 24.9761 34.9124 24.856 34.9789 24.7523C35.045 24.6487 35.1334 24.5647 35.2439 24.5007C35.3542 24.4362 35.4923 24.404 35.6581 24.404C35.8238 24.404 35.9578 24.4362 36.0602 24.5007C36.1622 24.5647 36.2409 24.6503 36.2963 24.7566C36.3512 24.8631 36.3873 24.9831 36.4037 25.1174C36.4203 25.2514 36.4286 25.3887 36.4286 25.5288V27.8786H37.6383V25.5624C37.6383 25.4111 37.6493 25.2672 37.6715 25.1302C37.6935 24.993 37.7349 24.8699 37.7955 24.7608C37.8564 24.6516 37.9419 24.5647 38.0527 24.5007C38.1631 24.4362 38.3065 24.404 38.4834 24.404C38.66 24.404 38.8008 24.4348 38.9061 24.4965C39.011 24.5581 39.0895 24.6403 39.1422 24.744C39.1946 24.8475 39.2291 24.9663 39.2457 25.1004C39.2623 25.2349 39.2706 25.3747 39.2706 25.5203V27.8786H40.4802ZM47.9614 22.6251V21.8192C47.8289 21.8082 47.6947 21.798 47.5597 21.7897C47.4243 21.7815 47.293 21.7774 47.1661 21.7774C46.6525 21.7774 46.2848 21.9087 46.0643 22.1718C45.8431 22.4349 45.7326 22.8067 45.7326 23.288V23.6401H44.9209V24.4459H45.7326V27.8786H46.9422V24.4459H47.9032V23.6401H46.9422V23.2963C46.9422 23.1901 46.9478 23.0946 46.9588 23.0107C46.9698 22.9268 46.996 22.8556 47.0375 22.797C47.0791 22.7383 47.141 22.6918 47.224 22.6584C47.3067 22.6251 47.4199 22.608 47.5638 22.608C47.6245 22.608 47.6878 22.6095 47.7543 22.6121C47.8206 22.6153 47.8895 22.6195 47.9614 22.6251ZM53.9097 27.8786C53.8989 27.61 53.8918 27.3486 53.8893 27.0938C53.8864 26.8393 53.885 26.5806 53.885 26.3173V23.6486H52.6755V25.8392C52.6755 25.9901 52.6641 26.1427 52.6423 26.2963C52.6201 26.4504 52.5758 26.5889 52.5098 26.7118C52.4435 26.8352 52.3522 26.936 52.2365 27.0141C52.1204 27.0923 51.9685 27.1316 51.7806 27.1316C51.593 27.1316 51.4466 27.0953 51.3417 27.0224C51.2364 26.95 51.1591 26.8548 51.1097 26.7372C51.0601 26.6195 51.0293 26.4867 51.0183 26.3386C51.0075 26.1901 51.0017 26.0432 51.0017 25.8976V23.6486H49.7923V26.3845C49.7923 26.8936 49.9167 27.2814 50.1653 27.5471C50.4135 27.8129 50.7975 27.9457 51.3168 27.9457C51.6258 27.9457 51.8842 27.8883 52.0913 27.7736C52.2984 27.6589 52.4961 27.4784 52.6839 27.2324L52.7005 27.8786H53.9097ZM53.388 21.7857H52.2861V22.7674H53.388V21.7857ZM51.4244 21.7857H50.331V22.7674H51.4244V21.7857ZM58.9221 24.6977V23.6321C58.8837 23.6264 58.8492 23.6235 58.8189 23.6235H58.7236C58.4195 23.6235 58.163 23.6877 57.9528 23.8165C57.7428 23.9453 57.5689 24.1497 57.4308 24.4294L57.3978 23.6486H56.2295C56.2295 23.828 56.2351 24.0025 56.2461 24.1733C56.2573 24.3439 56.2627 24.5133 56.2627 24.6811V27.8786H57.4726V25.8811C57.4726 25.5007 57.5554 25.2043 57.721 24.9916C57.8867 24.7791 58.1657 24.6726 58.5576 24.6726C58.6681 24.6726 58.7896 24.6811 58.9221 24.6977ZM69.0628 27.8786L67.1742 25.4448L68.8807 23.6401H67.4226L65.8071 25.5033L67.5219 27.8786H69.0628ZM65.8071 21.8108H64.5973V27.8786H65.8071V21.8108ZM75.0284 27.8786C75.017 27.61 75.0101 27.3486 75.0074 27.0938C75.0047 26.8393 75.0035 26.5806 75.0035 26.3173V23.6486H73.7938V25.8392C73.7938 25.9901 73.7826 26.1427 73.7606 26.2963C73.7386 26.4504 73.6941 26.5889 73.6281 26.7118C73.5616 26.8352 73.4706 26.936 73.3545 27.0141C73.2386 27.0923 73.0866 27.1316 72.8991 27.1316C72.7113 27.1316 72.5649 27.0953 72.46 27.0224C72.3549 26.95 72.2776 26.8548 72.228 26.7372C72.1781 26.6195 72.1478 26.4867 72.1366 26.3386C72.1256 26.1901 72.1202 26.0432 72.1202 25.8976V23.6486H70.9107V26.3845C70.9107 26.8936 71.0347 27.2814 71.2836 27.5471C71.532 27.8129 71.9158 27.9457 72.4351 27.9457C72.7443 27.9457 73.0027 27.8883 73.2096 27.7736C73.4166 27.6589 73.6142 27.4784 73.8021 27.2324L73.8188 27.8786H75.0284ZM81.4654 27.8786V25.1427C81.4654 24.6335 81.34 24.246 81.0887 23.9801C80.8373 23.7145 80.455 23.5814 79.9411 23.5814C79.6318 23.5814 79.3724 23.639 79.1622 23.7539C78.9525 23.8683 78.7537 24.0489 78.5657 24.2948L78.5491 23.6486H77.348C77.359 23.7942 77.3673 23.9355 77.3727 24.0726C77.3781 24.2098 77.381 24.3454 77.381 24.4797V27.8786H78.5907V25.7466C78.5907 25.6293 78.6002 25.4924 78.6197 25.3354C78.639 25.179 78.6806 25.0322 78.7441 24.8951C78.8073 24.7581 78.8958 24.642 79.0092 24.5466C79.1224 24.4517 79.2754 24.404 79.469 24.404C79.6566 24.404 79.803 24.4404 79.9079 24.5133C80.013 24.586 80.0917 24.6811 80.1442 24.7987C80.1968 24.9159 80.2282 25.049 80.2396 25.1973C80.2506 25.3454 80.2562 25.4924 80.2562 25.6378V27.8786H81.4654ZM87.2696 26.0868C87.1952 25.9498 87.0974 25.8348 86.9763 25.7426C86.855 25.6501 86.7161 25.5764 86.5593 25.5203C86.4024 25.4642 86.2442 25.4168 86.0842 25.3777L85.6138 25.2683C85.3604 25.2069 85.1637 25.1371 85.0233 25.0588C84.8827 24.9803 84.8125 24.8602 84.8125 24.6977C84.8125 24.6138 84.8318 24.5424 84.8709 24.484C84.9091 24.4251 84.9589 24.3762 85.0198 24.3369C85.0804 24.2978 85.1484 24.2697 85.2229 24.253C85.2973 24.2362 85.3706 24.2279 85.4425 24.2279C85.6466 24.2279 85.8012 24.2906 85.9065 24.4168C86.0113 24.5424 86.0691 24.706 86.0803 24.9076H87.2652C87.2486 24.6503 87.1892 24.4336 87.087 24.2572C86.9846 24.0811 86.8509 23.9398 86.6851 23.8335C86.5194 23.7273 86.3316 23.6516 86.1216 23.6068C85.9117 23.5621 85.6911 23.5396 85.4591 23.5396C85.2601 23.5396 85.0541 23.5594 84.8418 23.5985C84.6291 23.6376 84.4357 23.706 84.2619 23.8037C84.0876 23.9019 83.9456 24.0332 83.8349 24.1986C83.7244 24.3637 83.6695 24.572 83.6695 24.8237C83.6695 25.0196 83.705 25.1843 83.7771 25.3188C83.8488 25.4531 83.9441 25.5664 84.0629 25.6586C84.1815 25.7508 84.3157 25.8239 84.4648 25.8771C84.6137 25.9302 84.7658 25.9763 84.9205 26.0154L85.376 26.1246C85.6246 26.1862 85.8192 26.26 85.9603 26.3469C86.1011 26.4336 86.1713 26.5581 86.1713 26.7202C86.1713 26.8157 86.1507 26.8979 86.1094 26.968C86.0678 27.0379 86.0153 27.0953 85.9519 27.1399C85.8882 27.185 85.8153 27.2198 85.7322 27.2449C85.6495 27.27 85.5665 27.2825 85.4838 27.2825C85.2354 27.2825 85.057 27.2185 84.9494 27.0898C84.8418 26.961 84.7824 26.7733 84.7712 26.5273H83.5534C83.5534 26.8182 83.6043 27.0572 83.7061 27.2449C83.8081 27.4325 83.9462 27.5807 84.1194 27.6896C84.293 27.7989 84.4916 27.8757 84.7149 27.9202C84.9382 27.9651 85.1739 27.9873 85.4219 27.9873C85.6423 27.9873 85.8693 27.9667 86.1036 27.9245C86.3379 27.8828 86.5487 27.8086 86.736 27.7023C86.9234 27.5961 87.0779 27.4533 87.1992 27.274C87.3205 27.0953 87.3811 26.8688 87.3811 26.5945C87.3811 26.3928 87.344 26.2239 87.2696 26.0868ZM91.9624 24.4459V23.6401H90.9764V22.4484L89.8 22.9352V23.6401H88.9966V24.4459H89.8V26.8044C89.8 27.0339 89.8278 27.2226 89.8831 27.3709C89.9379 27.5192 90.021 27.6353 90.1317 27.7192C90.242 27.8031 90.3772 27.8605 90.5375 27.8911C90.6975 27.9219 90.8827 27.9372 91.0927 27.9372C91.236 27.9372 91.3798 27.9317 91.5235 27.9202C91.6668 27.9091 91.8105 27.8924 91.954 27.8703V27.073C91.8822 27.0785 91.8159 27.0855 91.7553 27.0938C91.6944 27.1021 91.6313 27.1064 91.5646 27.1064C91.4213 27.1064 91.3108 27.091 91.2333 27.0602C91.1559 27.0297 91.0979 26.9848 91.0595 26.9259C91.0209 26.8671 90.9974 26.7914 90.9891 26.6992C90.9808 26.6072 90.9764 26.4993 90.9764 26.376V24.4459H91.9624Z" fill="#0E090E"/>
</g>
<defs>
<clipPath id="clip0_848_67">
<rect width="112" height="35" fill="white"/>
</clipPath>
</defs>
</svg>
