<?xml version="1.0" encoding="utf-8"?>
<!-- Generator: Adobe Illustrator 19.2.1, SVG Export Plug-In . SVG Version: 6.00 Build 0)  -->
<svg version="1.1" id="layer" xmlns="http://www.w3.org/2000/svg" xmlns:xlink="http://www.w3.org/1999/xlink" x="0px" y="0px"
	 viewBox="0 0 652 652" style="enable-background:new 0 0 652 652;" xml:space="preserve">
<style type="text/css">
	.st0{fill:#FFD500;}
	.st1{fill:#002840;}
</style>
<circle class="st0" cx="87.4" cy="321.6" r="65"/>
<path class="st1" d="M239.1,287.9v58.9h-9.4v-58.9H239.1z M408.8,322.4v24.3h-9.4V324c-0.1-6-4.2-9.8-9.5-9.8
	c-5.2,0-9.4,4.1-9.4,9.2c0,0.1,0,0.2,0,0.3v23h-9.4V324c0-6.1-4.1-9.8-9.5-9.8c-5.3,0-9.5,4.3-9.4,9.6c0,0.1,0,0.2,0,0.3v22.7h-9.4
	v-40.5h9.4v4.7c3-3.5,7.4-5.5,12-5.5c5.4-0.1,10.5,2.5,13.5,6.9c3.3-4.4,8.6-7,14.1-6.9C401,305.5,408.7,311.7,408.8,322.4z
	 M439.8,305.5v10c-9.1-0.6-13.7,4.1-13.7,10.3v21h-9.4v-40.5h9.4v5.7C429.4,307.8,434.4,305.4,439.8,305.5z M482.5,329.9h-31.9
	c1.2,5.6,6.3,9.5,12.1,9.3c4.7,0.2,9.1-2.4,11.3-6.5l7.9,3.3c-3.5,7.2-10.7,11.7-18.7,11.6c-12.9,0-21.8-9.3-21.8-21
	c-0.3-11.4,8.7-20.8,20.1-21c0.3,0,0.6,0,0.8,0C474,305.5,484.8,315.1,482.5,329.9z M450.7,322.7H474c-1.3-5.2-6-8.9-11.4-8.9
	C457,313.7,452.1,317.4,450.7,322.7z M530.2,306.2v40.5h-9.4v-5.4c-3.3,4-8.3,6.3-13.6,6.2c-11.3,0-19.7-8.6-19.7-21s8.4-21,19.7-21
	c5.2-0.1,10.2,2.2,13.6,6.2v-5.4L530.2,306.2z M520.8,326.5c0-6.9-5-12.5-11.9-12.5s-11.8,5.6-11.8,12.5c0,6.9,4.9,12.5,11.8,12.5
	C515.7,339,520.8,333.4,520.8,326.5z M536.8,326.5c0-11.7,9.5-21.1,21.2-21c8.5,0,16.1,5.1,19.4,13l-8.7,3
	c-1.9-4.3-6.1-7.1-10.8-7.2c-7.1,0-11.7,5.5-11.7,12.3c-0.3,6.5,4.7,12,11.2,12.3c5.1,0.2,9.8-2.9,11.6-7.7l8.5,3.3
	c-3.2,8.1-11,13.3-19.7,13.1c-11.3,0.3-20.7-8.7-21-20C536.8,327.2,536.8,326.9,536.8,326.5z M622.4,323.3v23.5H613v-22
	c0-6.7-4.6-10.6-10.4-10.6c-5.7-0.1-10.4,4.4-10.5,10.1c0,0.2,0,0.4,0,0.7v21.8h-9.4v-58.9h9.4v23.6c3.2-3.8,8-6.1,13-6
	C614.5,305.5,622.4,312.1,622.4,323.3z M189.3,309.1L189.3,309.1v-21.3h-9.4v58.9h9.4v-2.9l0,0c3.4,2.2,7.5,3.3,11.5,3.3
	c2.7,0,5.4-0.5,7.9-1.5c10.6-4.8,15.3-17.4,10.4-27.9c-2.1-4.6-5.8-8.3-10.5-10.4c-2.5-1-5.2-1.5-7.9-1.4
	C196.8,305.8,192.8,306.9,189.3,309.1L189.3,309.1 M199.7,338.8c-4.4,0.1-8.4-2.4-10.4-6.2c-2-3.8-2-8.4,0-12.2
	c2-3.9,6.1-6.3,10.4-6.2c6.8,0.2,12.1,5.9,11.9,12.7C211.4,333.4,206.2,338.6,199.7,338.8L199.7,338.8z M246.1,326.5
	c-0.2-11.8,9.3-21.5,21-21.7c11.8-0.2,21.5,9.3,21.7,21c0.2,11.8-9.3,21.5-21,21.7c-0.1,0-0.2,0-0.3,0c-11.4,0.3-21-8.6-21.4-20.1
	C246.1,327.1,246.1,326.8,246.1,326.5z M267.4,338.8c6.8,0.2,12.5-5.1,12.7-11.9c0.2-6.8-5.1-12.5-11.9-12.7
	c-6.8-0.2-12.5,5.1-12.7,11.9c0,0.1,0,0.3,0,0.4c-0.2,6.6,5,12.1,11.6,12.3C267.2,338.8,267.3,338.8,267.4,338.8L267.4,338.8z
	 M293.5,326.5c-0.2-11.8,9.2-21.5,21-21.7c11.8-0.2,21.5,9.2,21.7,21c0.2,11.8-9.2,21.5-21,21.7c-0.1,0-0.2,0-0.3,0
	c-11.4,0.3-21-8.7-21.3-20.1C293.5,327.1,293.5,326.8,293.5,326.5z M314.8,338.8c6.8,0.2,12.5-5.1,12.7-11.9
	c0.2-6.8-5.1-12.5-11.9-12.7c-6.8-0.2-12.5,5.1-12.7,11.9c0,0.1,0,0.3,0,0.4c-0.2,6.6,5,12.1,11.6,12.3
	C314.6,338.8,314.7,338.8,314.8,338.8L314.8,338.8z M100.6,308.1l-3.2,8.1c3.5,2.2,5.5,6.1,5.5,10.2c-0.2,6.4-5.5,11.4-11.9,11.2
	s-11.4-5.5-11.2-11.9c0.2-6,5-10.9,11-11.2l3-8.3c-12-1.6-23.1,7-23.1,19.6l0,0v20.9h9.1v-3.3c3.4,2.2,7.5,3.3,11.5,3.3
	c11.2,0.2,20.5-8.8,20.6-20.1C112.1,318.8,107.7,311.6,100.6,308.1L100.6,308.1z M70.7,307.1c2.6-2.6,5.7-4.7,9.1-6.2v-13.1h-9.1
	V307.1z"/>
</svg>
