<svg id="screenshot" viewBox="0 0.01742008535848072 2000 399.96515982928304" width="2000" height="399.96515982928304" version="1.1" xmlns="http://www.w3.org/2000/svg" xmlns:xlink="http://www.w3.org/1999/xlink" style="-webkit-print-color-adjust: exact;"><g id="shape-ec8ac479-9404-11ec-8bd6-7328d0f65b69" clip-path="url(#frame-clip-ec8ac479-9404-11ec-8bd6-7328d0f65b69-90050c40-9405-11ec-85b4-37e5024bb5d4)"><defs><clipPath id="frame-clip-ec8ac479-9404-11ec-8bd6-7328d0f65b69-90050c40-9405-11ec-85b4-37e5024bb5d4" class="frame-clip"><rect x="0" y="0" width="2000" height="400"/></clipPath></defs><g id="shape-ec8ac477-9404-11ec-8bd6-7328d0f65b69"><g id="shape-ec8ac46d-9404-11ec-8bd6-7328d0f65b69"><g><path d="M2390 8458 c-204 -18 -470 -77 -645 -143 -211 -79 -453 -219 -597
-347 -146 -128 -240 -235 -342 -386 -174 -258 -295 -578 -355 -944 -38 -233
-43 -397 -38 -1323 4 -951 4 -949 62 -1232 94 -456 275 -814 553 -1097 319
-324 722 -514 1257 -593 189 -28 670 -25 865 5 483 75 862 250 1158 536 374
361 570 859 589 1494 l6 202 -415 0 -415 0 -6 -172 c-22 -650 -280 -1060 -778
-1236 -293 -103 -691 -121 -1014 -45 -604 142 -955 586 -1024 1297 -17 174
-14 1768 3 1931 68 623 366 1041 870 1215 323 112 788 118 1117 14 424 -134
695 -448 788 -913 25 -122 41 -286 41 -413 l0 -98 415 0 415 0 0 123 c-1 810
-307 1434 -884 1802 -258 164 -619 281 -988 320 -159 16 -479 18 -638 3z
M5850 5420 l0 -2940 390 0 390 0 0 1135 c0 728 4 1171 11 1233 65 608 395 995
940 1104 163 32 446 32 599 -1 436 -95 684 -374 745 -838 13 -96 15 -312 15
-1374 l0 -1259 390 0 391 0 -4 1363 c-3 1237 -5 1371 -20 1462 -60 340 -166
589 -347 810 -129 157 -282 277 -475 371 -213 104 -374 146 -628 165 -414 31
-814 -65 -1086 -259 -153 -109 -294 -267 -382 -428 l-41 -74 -54 0 -54 0 0
1235 0 1235 -390 0 -390 0 0 -2940z M40430 5420 l0 -2940 390 0 389 0 4 1188
c3 1170 4 1189 25 1301 121 630 522 980 1157 1008 149 7 295 -8 429 -42 326
-82 556 -305 646 -626 54 -192 52 -155 57 -1541 l4 -1288 385 0 384 0 1 1208
c1 1456 1 1420 -16 1557 -31 255 -113 506 -225 691 -137 226 -360 433 -594
551 -379 191 -921 223 -1363 82 -317 -102 -559 -296 -729 -585 l-56 -95 -51 3
-52 3 -3 1233 -2 1232 -390 0 -390 0 0 -2940z M16220 7305 l0 -715 -575 0
-575 0 0 -340 0 -340 575 0 575 0 2 -1442 3 -1443 27 -80 c91 -267 294 -428
575 -455 54 -5 333 -10 621 -10 l522 0 0 345 0 345 -417 0 c-489 0 -481 -1
-527 91 l-26 53 0 1298 0 1298 605 0 605 0 0 340 0 340 -605 0 -605 0 0 715 0
715 -390 0 -390 0 0 -715z M47035 6720 c-334 -30 -643 -133 -908 -304 -515
-332 -846 -877 -938 -1546 -17 -119 -17 -462 0 -590 64 -499 255 -924 566
-1257 397 -425 948 -653 1577 -653 653 0 1208 266 1610 771 97 122 196 271
183 276 -6 2 -154 85 -329 184 -175 99 -319 179 -320 177 -2 -2 -20 -34 -40
-73 -126 -233 -337 -438 -558 -540 -186 -85 -375 -119 -628 -112 -254 8 -438
52 -627 152 -155 82 -319 227 -413 365 -118 174 -220 473 -220 648 l0 42 1622
0 1621 0 -6 298 c-8 390 -30 550 -110 807 -228 728 -812 1226 -1571 1340 -127
19 -382 26 -511 15z m445 -696 c441 -75 758 -348 876 -754 30 -103 54 -245 54
-322 l0 -58 -1211 0 -1212 0 7 84 c7 100 52 281 96 386 168 405 504 637 990
684 82 7 303 -3 400 -20z M54653 6720 c-478 -40 -902 -237 -1238 -574 -324
-326 -527 -740 -601 -1231 -25 -164 -25 -521 0 -685 62 -407 203 -755 427
-1052 89 -118 296 -321 420 -410 363 -264 793 -398 1279 -398 739 0 1319 312
1745 940 64 94 65 95 43 110 -34 24 -630 361 -632 358 -2 -2 -22 -37 -45 -78
-193 -340 -457 -542 -812 -622 -92 -20 -129 -23 -319 -23 -238 1 -332 15 -507
76 -391 137 -669 448 -768 860 -24 103 -46 255 -36 264 2 3 733 5 1624 5
l1620 0 -6 283 c-4 155 -11 325 -17 377 -45 395 -182 752 -399 1045 -294 396
-750 663 -1262 739 -131 20 -382 27 -516 16z m447 -696 c544 -93 886 -480 927
-1046 l6 -88 -1215 0 -1215 0 4 53 c3 28 14 97 25 152 108 551 467 881 1030
944 109 13 319 5 438 -15z M12483 6700 c-317 -27 -574 -97 -827 -225 -319
-161 -586 -399 -783 -695 -62 -92 -150 -256 -142 -264 3 -3 153 -73 334 -155
l329 -150 41 88 c111 232 274 412 490 539 371 218 1025 232 1385 29 269 -151
403 -387 417 -732 l6 -140 -294 -28 c-162 -15 -512 -48 -779 -72 -572 -53
-683 -66 -850 -100 -437 -87 -764 -257 -952 -494 -156 -196 -227 -442 -215
-746 12 -302 111 -541 310 -753 98 -103 210 -183 352 -252 286 -138 535 -187
905 -177 362 10 600 65 849 199 212 112 395 290 508 490 l38 68 63 0 62 0 0
-325 0 -325 380 0 380 0 0 1363 c0 1453 -1 1456 -50 1663 -85 359 -306 682
-597 875 -253 167 -534 269 -851 308 -121 15 -391 21 -509 11z m1244 -2452
c-15 -350 -131 -631 -350 -849 -224 -224 -534 -350 -930 -380 -381 -28 -672
42 -846 205 -111 104 -160 215 -168 376 -7 127 6 195 53 289 99 198 342 308
784 356 307 33 1356 133 1409 134 l54 1 -6 -132z M27670 6700 c-522 -47 -983
-263 -1325 -622 -327 -341 -526 -793 -576 -1301 -14 -150 -7 -438 16 -597 54
-375 200 -730 420 -1019 74 -99 237 -266 335 -344 158 -127 427 -273 616 -335
221 -73 472 -112 721 -112 722 0 1356 328 1737 899 255 381 377 827 363 1326
-13 429 -99 755 -289 1093 -242 427 -629 745 -1108 906 -283 95 -607 133 -910
106z m531 -738 c247 -54 481 -185 637 -360 258 -286 375 -664 359 -1152 -15
-436 -154 -783 -414 -1031 -170 -161 -389 -269 -643 -315 -147 -27 -433 -25
-568 4 -558 121 -900 496 -1007 1107 -23 126 -31 415 -16 545 76 655 443 1091
1016 1204 120 23 134 24 345 21 153 -2 216 -7 291 -23z M32195 6704 c-489 -47
-845 -191 -1095 -443 -216 -218 -313 -454 -313 -766 -1 -478 213 -786 693
-997 274 -121 520 -174 1334 -288 404 -57 592 -119 708 -233 68 -68 95 -122
110 -223 14 -97 -4 -198 -53 -301 -39 -83 -154 -202 -245 -255 -210 -122 -476
-178 -784 -164 -303 13 -563 97 -808 259 -204 136 -430 405 -537 640 -22 48
-44 87 -48 87 -8 0 -676 -356 -686 -366 -5 -5 67 -131 132 -229 251 -376 599
-678 977 -847 230 -102 499 -172 764 -199 152 -15 524 -6 661 15 238 38 463
107 650 200 399 197 642 492 732 888 25 114 23 376 -4 495 -97 415 -381 661
-951 822 -193 55 -334 82 -717 141 -731 111 -781 121 -924 191 -144 71 -214
165 -230 309 -35 331 204 560 639 612 116 13 335 5 450 -17 387 -75 732 -293
1053 -665 50 -58 94 -106 98 -108 5 -2 137 88 293 199 l286 202 -59 66 c-100
112 -351 352 -466 444 -363 292 -725 454 -1140 511 -108 15 -442 28 -520 20z
M37402 6700 c-506 -42 -887 -259 -1155 -657 l-62 -92 -62 -1 -63 0 0 320 0
320 -385 0 -385 0 0 -2895 0 -2895 390 0 390 0 0 1165 0 1165 55 0 54 0 42
-62 c258 -384 561 -587 996 -670 101 -19 151 -22 353 -22 205 0 250 3 355 23
509 99 925 379 1218 820 76 116 178 317 227 451 166 458 191 1015 65 1514
-226 898 -930 1496 -1790 1521 -77 2 -186 0 -243 -5z m218 -705 c274 -39 508
-148 691 -322 132 -127 225 -262 294 -428 203 -490 165 -1188 -87 -1590 -164
-260 -375 -426 -662 -519 -227 -74 -540 -91 -781 -41 -538 111 -897 528 -979
1138 -55 398 -7 783 133 1082 122 261 342 479 591 586 104 45 254 85 360 98
123 14 322 12 440 -4z M20876 6650 c-344 -43 -639 -197 -831 -433 -36 -44 -77
-99 -91 -123 l-26 -44 -64 0 -64 0 0 270 0 270 -380 0 -380 0 0 -2055 0 -2055
390 0 390 0 0 1333 c0 1113 3 1348 15 1427 55 366 282 623 632 718 90 24 114
26 293 26 175 1 203 -1 275 -22 325 -93 501 -302 535 -633 6 -65 10 -596 10
-1475 l0 -1374 390 0 390 0 2 1393 3 1392 24 85 c29 108 95 248 154 327 94
126 268 238 442 284 100 27 337 37 457 19 277 -40 486 -180 594 -395 74 -149
68 -15 71 -1643 l3 -1462 390 0 390 0 -3 1513 c-3 1497 -3 1513 -24 1602 -68
290 -209 535 -410 711 -103 90 -163 130 -293 196 -451 230 -1068 201 -1453
-68 -145 -102 -307 -287 -373 -427 l-18 -38 -64 3 -65 3 -41 67 c-200 329
-465 520 -811 588 -124 24 -350 34 -459 20z M51900 6603 c-136 -11 -349 -67
-455 -121 -114 -57 -259 -184 -332 -292 -40 -59 -98 -174 -113 -227 l-13 -43
-64 0 -63 0 0 335 0 335 -375 0 -375 0 0 -2055 0 -2055 390 0 390 0 0 1253 c0
816 4 1282 11 1337 46 376 230 622 536 720 139 45 211 50 664 50 l419 0 0 385
0 385 -287 -2 c-159 -1 -308 -3 -333 -5z" transform="translate(498, 65.27273452836698) scale(0.25, 0.25) translate(0.000000,1076.000000) scale(0.100000,-0.100000)" fill="#272625" stroke="none"/></g></g></g><g id="shape-ec8ac464-9404-11ec-8bd6-7328d0f65b69" style="opacity: 1;"><g id="shape-ec8ac47a-9404-11ec-8bd6-7328d0f65b69"><g id="shape-ec8ac467-9404-11ec-8bd6-7328d0f65b69"><path d="M323.7576868038864,271.23143977727C303.7604272931071,321.90772820117036,253.54660606714378,355.46828350143437,194.76046617942757,355.46828350143437C144.08195435553762,355.46828350143437,87.72599065697841,322.96439904645626,67.72873114619915,272.2881106225557L67.02724844932777,270.54996768031083C60.682220727637514,254.6543253012312,61.70609642306931,235.19846368803655,61.70609642306931,217.00827251919554L82.08855998213016,37.072958122004366L138.94145357847174,93.10208202202239C155.1867256059909,86.16674160296452,173.05396792627425,82.3252622701043,191.80445589261626,82.3252622701043L197.71592061624096,82.3252622701043C216.46640858258343,82.3252622701043,234.33365090286543,86.16674160296452,250.57892293038412,93.10208202202239L312.9908723519234,31.514458146803463L333.6812768096106,219.81309160668206C333.6812768096106,238.00328277552308,330.1888712751934,255.3702600980373,323.7576868038864,271.23143977727Z" style="fill: rgb(244, 170, 65);"/></g><g id="shape-ec8ac46f-9404-11ec-8bd6-7328d0f65b69"><path d="M194.76046617942757,355.46828350143437C253.7294807163271,357.37206974293986,307.8987305246428,322.0950496503335,327.895990035423,271.4193170764313L328.5124276826723,270.1353035821603C334.85745540436346,254.23966120308228,333.83691480891684,231.8011085031942,333.83691480891684,213.61091733435205L312.9908723519234,31.514458146803463" style="fill: rgb(226, 112, 34);"/></g></g><g id="shape-ec8ac475-9404-11ec-8bd6-7328d0f65b69"/><g id="shape-ec8ac469-9404-11ec-8bd6-7328d0f65b69"/><g id="shape-ec8ac472-9404-11ec-8bd6-7328d0f65b69"/><g id="shape-ec8ac466-9404-11ec-8bd6-7328d0f65b69" style="opacity: 1;"><g id="shape-ec8ac47b-9404-11ec-8bd6-7328d0f65b69"><path fill="none" stroke-linecap="round" stroke-linejoin="round" stroke-miterlimit="10" d="M353.40950492159027,306.47455302002754" style="stroke-width: 12; stroke: rgb(0, 0, 0); stroke-linecap: round; opacity: 1;"/></g><g id="shape-ec8ac46e-9404-11ec-8bd6-7328d0f65b69"><path fill="none" stroke-linejoin="round" stroke-linecap="round" stroke-miterlimit="10" d="M342.2925049711903,300.8460159451404L290.26494520331926,271.9418160741013" style="stroke-width: 12; stroke: rgb(0, 0, 0); stroke-linecap: round; opacity: 1;"/></g><g id="shape-ec8ac46c-9404-11ec-8bd6-7328d0f65b69"><path fill="none" stroke-linecap="round" stroke-linejoin="round" stroke-miterlimit="10" d="M290.26494520331926,260.3806919756819" style="stroke-width: 12; stroke: rgb(0, 0, 0); stroke-linecap: round; opacity: 1;"/></g><g id="shape-ec8ac474-9404-11ec-8bd6-7328d0f65b69"><path fill="none" stroke-linecap="round" stroke-linejoin="round" stroke-miterlimit="10" d="M342.2925049711903,289.2843359967244" style="stroke-width: 12; stroke: rgb(0, 0, 0); stroke-linecap: round; opacity: 1;"/></g><g id="shape-ec8ac461-9404-11ec-8bd6-7328d0f65b69"><path fill="none" stroke-linejoin="round" stroke-linecap="round" stroke-miterlimit="10" d="M319.16914507435786,329.7502158161799L267.1415853064882,300.8460159451404" style="stroke-width: 12; stroke: rgb(0, 0, 0); stroke-linecap: round; opacity: 1;"/></g><g id="shape-ec8ac460-9404-11ec-8bd6-7328d0f65b69"><path fill="none" stroke-linecap="round" stroke-linejoin="round" stroke-miterlimit="10" d="M255.5799053580713,306.6268559193488" style="stroke-width: 12; stroke: rgb(0, 0, 0); stroke-linecap: round; opacity: 1;"/></g><g id="shape-ec8ac468-9404-11ec-8bd6-7328d0f65b69"><path fill="none" stroke-linecap="round" stroke-linejoin="round" stroke-miterlimit="10" d="M307.60746512594324,335.531055790387" style="stroke-width: 12; stroke: rgb(0, 0, 0); stroke-linecap: round; opacity: 1;"/></g><g id="shape-ec8ac471-9404-11ec-8bd6-7328d0f65b69"><path fill="none" stroke-linecap="round" stroke-linejoin="round" stroke-miterlimit="10" d="M71.54686477916334,266.78186054712296C65.33690860687011,251.4098288657076,61.92176622210741,234.61482119064135,61.92176622210741,217.0238363191263L82.15470613183493,34.92737713157612L143.1864800095318,94.4861485158458C159.0726729386538,87.7792624457702,176.54470591069958,84.06451691234315,194.8810856288892,84.06451691234315L200.6619256030972,84.06451691234315C218.9983053212859,84.06451691234315,236.4703382933326,87.7792624457702,252.3565312224532,94.4861485158458L313.38830510015123,34.92793298157494L333.62124500987784,217.02439216912353C333.62124500987784,234.61537704063835,330.2061026251158,251.4103847157055,323.9961464528219,266.78241639711996" style="stroke-width: 12; stroke: rgb(0, 0, 0); stroke-linecap: round; opacity: 1;"/></g><g id="shape-ec8ac476-9404-11ec-8bd6-7328d0f65b69"><path fill="none" stroke-linecap="round" stroke-linejoin="round" stroke-miterlimit="10" d="M124.53993599272735,329.8747262156244C144.9479686516729,342.622034208749,169.05351549412262,349.9831557259072,194.8810856288892,349.9831557259072L200.6619256030972,349.9831557259072C226.48949573786285,349.9831557259072,250.60615958026256,342.622034208749,271.00307523925994,329.8747262156244" style="stroke-width: 12; stroke: rgb(0, 0, 0); stroke-linecap: round; opacity: 1;"/></g><g id="shape-ec8ac46b-9404-11ec-8bd6-7328d0f65b69"><path fill="none" stroke-linejoin="round" stroke-linecap="round" stroke-miterlimit="10" d="M53.25050626079542,300.8460159451404L105.27806602866667,271.9418160741013" style="stroke-width: 12; stroke: rgb(0, 0, 0); stroke-linecap: round; opacity: 1;"/></g><g id="shape-ec8ac473-9404-11ec-8bd6-7328d0f65b69"><path fill="none" stroke-linecap="round" stroke-linejoin="round" stroke-miterlimit="10" d="M105.27806602866667,260.3806919756819" style="stroke-width: 12; stroke: rgb(0, 0, 0); stroke-linecap: round; opacity: 1;"/></g><g id="shape-ec8ac465-9404-11ec-8bd6-7328d0f65b69"><path fill="none" stroke-linejoin="round" stroke-linecap="round" stroke-miterlimit="10" d="M76.37386615762671,329.7502158161799L128.40142592549728,300.8460159451404" style="stroke-width: 12; stroke: rgb(0, 0, 0); stroke-linecap: round; opacity: 1;"/></g><g id="shape-ec8ac463-9404-11ec-8bd6-7328d0f65b69"><path fill="none" stroke-linecap="round" stroke-linejoin="round" stroke-miterlimit="10" d="M139.96310587391326,306.6268559193488" style="stroke-width: 12; stroke: rgb(0, 0, 0); stroke-linecap: round; opacity: 1;"/></g><g id="shape-ec8ac46a-9404-11ec-8bd6-7328d0f65b69"><path fill="none" stroke-linecap="round" stroke-linejoin="round" stroke-miterlimit="10" d="M87.9355461060427,335.531055790387" style="stroke-width: 12; stroke: rgb(0, 0, 0); stroke-linecap: round; opacity: 1;"/></g><g id="shape-ec8ac470-9404-11ec-8bd6-7328d0f65b69"><path fill="none" stroke-linecap="round" stroke-linejoin="round" stroke-miterlimit="10" d="M304.7170451388388,216.18561452286644C287.3745252162148,193.0622546260338,252.68948537096776,193.0622546260338,241.12780542255223,216.18561452286644" style="stroke-width: 12; stroke: rgb(0, 0, 0); stroke-linecap: round; opacity: 1;"/></g><g id="shape-ec8ac478-9404-11ec-8bd6-7328d0f65b69"><path fill="none" stroke-linecap="round" stroke-linejoin="round" stroke-miterlimit="10" d="M90.82596609314646,216.18561452286644C108.16848601577067,193.0622546260338,142.85352586101772,193.0622546260338,154.41520580943325,216.18561452286644" style="stroke-width: 12; stroke: rgb(0, 0, 0); stroke-linecap: round; opacity: 1;"/></g><g id="shape-ec8ac462-9404-11ec-8bd6-7328d0f65b69"><path fill="none" stroke-linecap="round" stroke-linejoin="round" stroke-miterlimit="10" d="M195.8126902247318,264.8469467057562C195.8126902247318,264.8469467057562,256.65491925327615,283.32006552333473,195.8126902247318,297.00953926225793C195.8126902247318,297.00953926225793,256.26693595500547,314.2842454851832,195.8126902247318,325.4079156355533" style="stroke-width: 12; stroke: rgb(0, 0, 0); stroke-linecap: round; opacity: 1;"/></g></g></g></g></svg>