<svg width="193" height="59" viewBox="0 0 193 59" fill="none" xmlns="http://www.w3.org/2000/svg">
<g clip-path="url(#clip0_807_1591)">
<path d="M60.265 28.186C60.265 29.8629 59.8232 31.131 58.9396 31.9905C58.056 32.8499 56.7575 33.2777 55.0441 33.2777H52.6392V23.2891H55.3552C56.9572 23.2891 58.1789 23.7054 59.0164 24.5381C59.8462 25.3708 60.265 26.5893 60.265 28.186ZM59.5005 28.2127C59.5005 26.7841 59.1355 25.707 58.4056 24.985C57.6756 24.2631 56.6 23.904 55.1862 23.904H53.3383V32.6628H55.0018C58.0022 32.6628 59.5005 31.1807 59.5005 28.2127Z" fill="#212121"/>
<path d="M64.8827 28.7551L67.8254 23.2891H68.5822L65.2361 29.4198V33.2816H64.5138V29.4771L61.1523 23.2929H61.9553L64.8827 28.7551Z" fill="#212121"/>
<path d="M77.3068 33.2777H76.5999L70.6491 24.4083H70.5953C70.6491 25.4663 70.676 26.2608 70.676 26.7994V33.2777H70.0037V23.2891H70.7029L76.646 32.1433H76.6882C76.646 31.322 76.6268 30.5428 76.6268 29.8056V23.2891H77.3068V33.2777V33.2777Z" fill="#212121"/>
<path d="M84.9903 29.7521H80.9065L79.5043 33.2778H78.7283L82.7698 23.2471H83.2154L87.1724 33.2778H86.381L84.9903 29.7521ZM81.1601 29.1219H84.7521L83.3844 25.5198C83.2692 25.2372 83.1309 24.8475 82.9734 24.3433C82.8504 24.7788 82.716 25.176 82.57 25.5313L81.1601 29.1219Z" fill="#212121"/>
<path d="M93.0156 33.2777L89.27 24.053H89.2162C89.2546 24.6183 89.27 25.1951 89.27 25.7872V33.2777H88.5977V23.2891H89.6849L93.2461 32.0783H93.2884L96.8497 23.2891H97.9061V33.2777H97.1954V25.707C97.1954 25.1798 97.2223 24.6336 97.2761 24.0683H97.2223L93.4613 33.2777H93.0156Z" fill="#212121"/>
<path d="M100.741 33.2777V23.2891H101.44V33.2777H100.741Z" fill="#212121"/>
<path d="M108.574 23.7742C107.314 23.7742 106.323 24.1753 105.597 24.9774C104.875 25.7796 104.51 26.8759 104.51 28.2701C104.51 29.6948 104.852 30.8026 105.536 31.5894C106.219 32.3763 107.195 32.7736 108.463 32.7736C109.304 32.7736 110.08 32.6666 110.787 32.4527V33.0677C110.123 33.3007 109.293 33.4153 108.298 33.4153C106.888 33.4153 105.778 32.9607 104.967 32.0555C104.156 31.1502 103.749 29.882 103.749 28.2548C103.749 27.2387 103.941 26.3449 104.329 25.5695C104.717 24.7941 105.274 24.1982 106.001 23.7742C106.727 23.354 107.572 23.1401 108.532 23.1401C109.512 23.1401 110.388 23.3235 111.164 23.6864L110.883 24.3166C110.15 23.9537 109.381 23.7742 108.574 23.7742Z" fill="#212121"/>
<path d="M122.731 26.1577C122.731 27.1241 122.401 27.8651 121.74 28.377C121.079 28.8926 120.146 29.1486 118.936 29.1486H117.384V33.2777H116.684V23.2891H119.143C121.536 23.2891 122.731 24.244 122.731 26.1577ZM117.384 28.5489H118.763C119.896 28.5489 120.71 28.3617 121.218 27.9912C121.721 27.6207 121.974 27.0171 121.974 26.1844C121.974 25.4128 121.736 24.8437 121.26 24.4732C120.783 24.1027 120.046 23.9155 119.047 23.9155H117.384V28.5489Z" fill="#212121"/>
<path d="M125.616 28.927V33.2777H124.917V23.2891H127.307C128.551 23.2891 129.474 23.5182 130.069 23.9766C130.664 24.435 130.96 25.1225 130.96 26.0431C130.96 26.7116 130.784 27.2769 130.43 27.7391C130.073 28.1975 129.535 28.5298 128.813 28.7284L131.54 33.2777H130.703L128.114 28.927H125.616V28.927ZM125.616 28.3235H127.533C128.379 28.3235 129.039 28.1363 129.504 27.762C129.973 27.3877 130.203 26.83 130.203 26.0966C130.203 25.3365 129.973 24.7826 129.516 24.435C129.059 24.0874 128.309 23.9155 127.276 23.9155H125.613V28.3235H125.616Z" fill="#212121"/>
<path d="M141.725 28.2699C141.725 29.8551 141.325 31.108 140.53 32.0324C139.735 32.9567 138.632 33.4151 137.23 33.4151C135.831 33.4151 134.737 32.9529 133.937 32.0324C133.142 31.108 132.743 29.8513 132.743 28.2584C132.743 26.6694 133.142 25.4165 133.949 24.5036C134.752 23.5907 135.851 23.1323 137.245 23.1323C138.647 23.1323 139.746 23.5907 140.538 24.5074C141.329 25.4242 141.725 26.6809 141.725 28.2699ZM133.507 28.2699C133.507 29.7023 133.826 30.8062 134.471 31.5893C135.113 32.3685 136.031 32.7619 137.234 32.7619C138.444 32.7619 139.366 32.3761 140.007 31.6007C140.645 30.8253 140.968 29.7176 140.968 28.2737C140.968 26.8337 140.649 25.7298 140.007 24.962C139.37 24.1942 138.448 23.8122 137.249 23.8122C136.054 23.8122 135.132 24.198 134.483 24.9734C133.834 25.7412 133.507 26.8451 133.507 28.2699Z" fill="#212121"/>
<path d="M142.385 35.7988C141.963 35.7988 141.617 35.7377 141.348 35.6154V35.0119C141.705 35.1036 142.047 35.1494 142.374 35.1494C143.484 35.1494 144.037 34.5459 144.037 33.3465V23.2891H144.74V33.2777C144.737 34.9584 143.953 35.7988 142.385 35.7988Z" fill="#212121"/>
<path d="M153.004 33.2777H147.514V23.2891H153.004V23.9308H148.213V27.7085H152.735V28.3502H148.213V32.636H153.004V33.2777V33.2777Z" fill="#212121"/>
<path d="M159.566 23.7742C158.306 23.7742 157.314 24.1753 156.588 24.9774C155.866 25.7796 155.501 26.8759 155.501 28.2701C155.501 29.6948 155.843 30.8026 156.527 31.5894C157.211 32.3763 158.186 32.7736 159.454 32.7736C160.296 32.7736 161.072 32.6666 161.778 32.4527V33.0677C161.114 33.3007 160.284 33.4153 159.289 33.4153C157.879 33.4153 156.765 32.9607 155.954 32.0555C155.144 31.1502 154.737 29.882 154.737 28.2548C154.737 27.2387 154.929 26.3449 155.317 25.5695C155.705 24.7941 156.262 24.1982 156.988 23.7742C157.714 23.354 158.559 23.1401 159.52 23.1401C160.499 23.1401 161.379 23.3235 162.151 23.6864L161.871 24.3166C161.145 23.9537 160.372 23.7742 159.566 23.7742Z" fill="#212121"/>
<path d="M166.638 33.2776H165.931V23.9422H162.666V23.2852H169.904V23.9422H166.638V33.2776Z" fill="#212121"/>
<path d="M171.394 33.2777V23.2891H172.097V33.2777H171.394Z" fill="#212121"/>
<path d="M183.384 28.2699C183.384 29.8551 182.985 31.108 182.189 32.0324C181.394 32.9567 180.292 33.4151 178.889 33.4151C177.491 33.4151 176.396 32.9529 175.597 32.0324C174.802 31.108 174.402 29.8513 174.402 28.2584C174.402 26.6694 174.802 25.4165 175.609 24.5036C176.412 23.5907 177.51 23.1323 178.905 23.1323C180.307 23.1323 181.402 23.5907 182.197 24.5074C182.989 25.4242 183.384 26.6809 183.384 28.2699ZM175.167 28.2699C175.167 29.7023 175.49 30.8062 176.131 31.5893C176.773 32.3685 177.695 32.7619 178.893 32.7619C180.103 32.7619 181.025 32.3761 181.667 31.6007C182.305 30.8253 182.624 29.7176 182.624 28.2737C182.624 26.8337 182.305 25.7298 181.667 24.962C181.025 24.1942 180.107 23.8122 178.909 23.8122C177.714 23.8122 176.792 24.198 176.143 24.9734C175.49 25.7412 175.167 26.8451 175.167 28.2699Z" fill="#212121"/>
<path d="M193 33.2777H192.293L186.338 24.4083H186.285C186.338 25.4663 186.369 26.2608 186.369 26.7994V33.2777H185.697V23.2891H186.396L192.343 32.1433H192.385C192.343 31.322 192.324 30.5428 192.324 29.8056V23.2891H193.004V33.2777H193Z" fill="#212121"/>
<path d="M2.17432 44.0077L39.6848 23.9463L15.1977 58.3967L2.17432 44.0077Z" fill="#212121"/>
<path d="M0 0L38.4863 23.0522L1.74798 42.9188L0 0Z" fill="#212121"/>
<path d="M40.1268 25.3936L45.2747 51.4558L16.1238 58.9998L40.1268 25.3936Z" fill="#212121"/>
<path d="M155.439 37.0938H154.932V43.2283H155.439V37.0938Z" fill="#212121"/>
<path d="M161.094 41.0854C161.094 41.4941 161.106 41.9334 161.125 42.3956L157.545 37.0938H157.08V43.2283H157.572V39.2634C157.572 38.954 157.556 38.5109 157.525 37.9074L161.117 43.2283H161.586V37.0938H161.091V41.0854H161.094Z" fill="#212121"/>
<path d="M165.966 40.3634C165.724 40.2068 165.359 40.0464 164.886 39.886C164.437 39.7255 164.118 39.588 163.937 39.4772C163.761 39.3665 163.63 39.2404 163.549 39.1029C163.473 38.9654 163.43 38.7897 163.43 38.572C163.43 38.2282 163.557 37.9608 163.814 37.7584C164.072 37.5597 164.425 37.4566 164.863 37.4566C165.317 37.4566 165.797 37.5635 166.296 37.7698L166.335 37.7851L166.519 37.3458L166.481 37.3305C165.974 37.1128 165.428 37.0059 164.852 37.0059C164.283 37.0059 163.811 37.1548 163.45 37.4451C163.085 37.7354 162.9 38.1212 162.9 38.5834C162.9 39.0036 163.023 39.3436 163.269 39.5995C163.511 39.8516 163.949 40.0846 164.575 40.2985C164.994 40.4398 165.317 40.5735 165.536 40.6957C165.747 40.818 165.904 40.9517 165.997 41.093C166.089 41.2382 166.135 41.4215 166.135 41.6392C166.135 41.9945 165.993 42.2848 165.712 42.5025C165.428 42.724 165.036 42.8348 164.548 42.8348C163.876 42.8348 163.319 42.7431 162.885 42.5598L162.827 42.5369V43.0487L162.854 43.0602C163.254 43.2244 163.838 43.3085 164.583 43.3085C165.209 43.3085 165.72 43.1557 166.096 42.8577C166.481 42.556 166.673 42.1396 166.673 41.6239C166.673 41.3413 166.615 41.0968 166.504 40.8982C166.392 40.6996 166.212 40.52 165.966 40.3634Z" fill="#212121"/>
<path d="M167.057 37.575H169.035V43.2283H169.546V37.575H171.525V37.0938H167.057V37.575Z" fill="#212121"/>
<path d="M172.854 37.0938H172.347V43.2283H172.854V37.0938Z" fill="#212121"/>
<path d="M173.672 37.575H175.651V43.2283H176.162V37.575H178.14V37.0938H173.672V37.575Z" fill="#212121"/>
<path d="M183.012 41.093C183.012 41.6431 182.854 42.0824 182.547 42.3918C182.236 42.7012 181.79 42.8578 181.225 42.8578C180.645 42.8578 180.192 42.6973 179.877 42.3841C179.562 42.0671 179.4 41.6202 179.4 41.051V37.0938H178.889V41.0357C178.889 41.7462 179.093 42.3115 179.496 42.7088C179.9 43.1099 180.465 43.3123 181.175 43.3123C181.909 43.3123 182.489 43.1099 182.9 42.7126C183.311 42.3154 183.523 41.7577 183.523 41.051V37.0938H183.015V41.093H183.012Z" fill="#212121"/>
<path d="M184.275 37.575H186.254V43.2283H186.765V37.575H188.739V37.0938H184.275V37.575Z" fill="#212121"/>
<path d="M192.969 37.5636V37.0938H189.562V43.2283H192.969V42.7585H190.069V40.2451H192.808V39.7714H190.069V37.5636H192.969Z" fill="#212121"/>
</g>
<defs>
<clipPath id="clip0_807_1591">
<rect width="193" height="59" fill="white"/>
</clipPath>
</defs>
</svg>
