<svg width="327" height="400" viewBox="0 0 327 400" fill="none" xmlns="http://www.w3.org/2000/svg">
<path fill-rule="evenodd" clip-rule="evenodd" d="M0 200V400H163.5H327V200V0H163.5H0V200ZM126.991 4.962C127.694 7.94 127.422 48.051 126.548 70.347C125.759 90.482 123.801 114.684 121.034 138.5C114.165 197.615 92.955 243.894 56.869 278.5C44.498 290.364 34.548 298.004 17.214 308.952C6.015 316.024 2.8 317.643 2.34 316.445C2.018 315.604 2.087 292.273 2.494 264.599L3.234 214.282L6.867 212.703C8.865 211.835 13.425 210.023 17 208.677C41.818 199.333 67.694 175.287 85.305 145.204C99.87 120.325 106.666 85.928 107.712 31.802L108.266 3.105L111.883 2.802C113.872 2.636 117.962 2.531 120.971 2.569C125.846 2.63 126.502 2.891 126.991 4.962ZM182.448 3.25C182.66 3.937 183.083 73.687 183.387 158.25L183.941 312H164.136H144.331L143.674 157.89C143.313 73.13 143.265 3.38 143.568 2.89C144.48 1.414 181.989 1.761 182.448 3.25ZM218.111 29C218.696 54.429 219.327 62.032 222.588 83C228.545 121.305 238.836 144.414 261.463 170.295C277.811 188.994 300.221 204.592 317.847 209.537L324 211.264V260.55C324 287.658 324.22 310.436 324.489 311.168C324.759 311.901 324.575 313.134 324.082 313.91C322.572 316.283 318.996 314.482 298.175 300.865C267.406 280.742 245.317 255.735 228.951 222.5C213.328 190.773 205.959 156.741 201.02 93.5C199.435 73.214 197.92 20.455 198.641 10.714L199.292 1.929L208.396 2.214L217.5 2.5L218.111 29ZM49 349.032C49 382.809 48.766 384.474 43.197 390.342C32.473 401.641 14.851 398.648 7.614 384.3C6.584 382.257 6 378.549 6 374.05V367H12H18V373.077C18 378.46 18.334 379.488 20.923 382.077C22.67 383.824 24.903 385 26.473 385C29.869 385 34.658 382.507 35.97 380.055C36.611 378.858 37 366.774 37 348.066V318H43H49V349.032ZM84.055 319.03C87.507 320.877 87.389 320.531 100.17 366.5C101.852 372.55 104.484 381.775 106.019 387C107.555 392.225 108.468 396.863 108.048 397.307C107.629 397.751 104.859 397.976 101.893 397.807L96.5 397.5L94.145 390C92.849 385.875 91.626 381.938 91.426 381.25C91.164 380.35 88.045 380 80.279 380H69.495L66.964 388.75L64.433 397.5L58.217 397.798C54.171 397.991 52 397.71 52 396.992C52 396.385 54.054 388.601 56.564 379.694C59.075 370.787 62.938 356.975 65.149 349C67.361 341.025 70.067 331.693 71.163 328.261C73.948 319.543 78.681 316.153 84.055 319.03ZM124 335V352H133.5H143V335V318H149H155V358V398H149H143V381V364H133.524H124.048L123.774 380.75L123.5 397.5H117.5H111.5L111.239 357.75L110.977 318H117.489H124V335ZM205.798 324.25L205.5 330.5L197.75 330.792L190 331.084V364.542V398H184H178V364.5V331H170H162V324.5V318H184.048H206.095L205.798 324.25ZM227.694 319.498C230.286 321.313 231.681 325.065 236.993 344.5C239.248 352.75 242.392 364 243.98 369.5C245.568 375 247.967 383.325 249.31 388C250.654 392.675 251.557 396.837 251.318 397.25C251.078 397.663 248.226 398 244.98 398H239.077L237.983 393.75C237.382 391.413 236.203 387.363 235.364 384.75L233.839 380H223.102H212.364L209.932 388.75L207.5 397.5L201.25 397.798C194.007 398.143 194.077 398.286 196.908 388.855C197.957 385.36 202.262 370.125 206.476 355C215.482 322.668 215.537 322.509 218.77 319.966C221.757 317.617 224.782 317.458 227.694 319.498ZM286 320.081C298.169 325.589 303.119 337.386 297.911 348.465C295.595 353.394 288.491 360.47 283.937 362.384L280.984 363.626L291.492 380.417C297.272 389.652 302 397.406 302 397.648C302 397.89 298.782 397.955 294.849 397.794L287.697 397.5L278.222 382.515C267.368 365.35 266.362 362.1 270.412 357.287C271.853 355.574 275.388 352.839 278.266 351.209C286.119 346.761 287.447 344.811 287.115 338.205C287.052 336.942 285.895 334.805 284.545 333.455C282.374 331.283 281.223 331 274.559 331H267.027L266.763 364.25L266.5 397.5H260.5H254.5V360.163V322.826L257.306 320.413C259.898 318.184 260.927 318.002 270.806 318.022C279.392 318.04 282.387 318.445 286 320.081ZM323 358V398H317H311V358V318H317H323V358ZM222.053 346C221.372 348.475 219.779 354.1 218.514 358.5L216.214 366.5L222.725 366.798C226.307 366.962 229.48 366.853 229.778 366.555C230.076 366.258 229.138 362.073 227.694 357.257C226.25 352.441 224.669 346.925 224.18 345L223.292 341.5L222.053 346ZM79.592 344.107C79.342 344.873 77.991 349.599 76.591 354.608C75.191 359.618 73.762 364.456 73.416 365.358C72.868 366.786 73.714 367 79.893 367C83.802 367 87 366.614 87 366.143C87 365.001 80.885 343.61 80.415 343.107C80.213 342.891 79.842 343.341 79.592 344.107Z" fill="black"/>
</svg>
