<?xml version="1.0" encoding="UTF-8"?>
<svg width="199px" height="52px" viewBox="0 0 199 52" version="1.1" xmlns="http://www.w3.org/2000/svg" xmlns:xlink="http://www.w3.org/1999/xlink">
    <!-- Generator: Sketch 50.1 (55044) - http://www.bohemiancoding.com/sketch -->
    <title>logotype</title>
    <desc>Created with Sketch.</desc>
    <defs></defs>
    <g id="Symbols" stroke="none" stroke-width="1" fill="none" fill-rule="evenodd">
        <g id="logotype" fill="currentColor">
            <path d="M198.341,3.783 C198.341,0.82 196.191,0 193.538,0 C190.886,0 188.736,0.82 188.736,3.783 C188.736,6.746 190.886,7.566 193.538,7.566 C196.191,7.566 198.341,6.746 198.341,3.783 Z M173.154,37.92 L182.115,37.92 L182.115,1.955 L173.154,2.371 L173.154,37.92 Z M167.867,18.142 L168.373,9.775 C167.638,9.5 166.534,9.314 165.201,9.314 C162.306,9.314 159.733,10.695 157.985,13.728 L157.848,13.728 L157.066,9.681 L150.033,10.004 L150.033,37.92 L158.903,37.92 L158.903,23.894 C158.903,19.892 161.203,17.685 164.604,17.685 C165.8,17.685 166.948,17.869 167.867,18.142 Z M144.977,26.377 C145.113,25.226 145.205,23.711 145.205,22.422 C145.205,13.547 140.747,9.314 133.255,9.314 C124.43,9.314 120.385,14.697 120.385,23.662 C120.385,33.183 124.982,38.426 135.001,38.426 C138.679,38.426 142.125,37.736 144.47,36.726 L143.505,29.916 C141.115,30.701 138.632,31.068 136.105,31.068 C131.968,31.068 129.945,29.781 129.577,26.377 L144.977,26.377 Z M137.116,20.812 L129.394,20.812 C129.67,17.408 130.636,16.351 133.3,16.351 C135.737,16.351 137.024,17.594 137.116,20.812 Z M104.664,18.053 C104.664,17.039 105.491,16.441 107.238,16.441 C109.261,16.441 112.57,16.857 114.915,17.775 L115.557,10.879 C113.167,9.914 110.319,9.314 107.377,9.314 C99.746,9.314 96.207,13.224 96.207,18.422 C96.207,28.445 108.48,26.056 108.48,29.597 C108.48,30.746 107.561,31.527 105.4,31.527 C103.149,31.527 99.792,30.974 97.403,29.734 L96.529,36.726 C99.01,37.92 101.998,38.472 105.445,38.472 C113.445,38.472 116.66,34.564 116.66,28.812 C116.66,19.201 104.664,21.41 104.664,18.053 Z M81.038,18.053 C81.038,17.039 81.865,16.441 83.612,16.441 C85.634,16.441 88.944,16.857 91.288,17.775 L91.931,10.879 C89.54,9.914 86.693,9.314 83.75,9.314 C76.119,9.314 72.58,13.224 72.58,18.422 C72.58,28.445 84.854,26.056 84.854,29.597 C84.854,30.746 83.935,31.527 81.774,31.527 C79.522,31.527 76.166,30.974 73.776,29.734 L72.903,36.726 C75.384,37.92 78.372,38.472 81.819,38.472 C89.818,38.472 93.033,34.564 93.033,28.812 C93.033,19.201 81.038,21.41 81.038,18.053 Z M68.672,26.377 C68.811,25.226 68.903,23.711 68.903,22.422 C68.903,13.547 64.444,9.314 56.951,9.314 C48.127,9.314 44.082,14.697 44.082,23.662 C44.082,33.183 48.678,38.426 58.698,38.426 C62.375,38.426 65.823,37.736 68.167,36.726 L67.201,29.916 C64.811,30.701 62.33,31.068 59.802,31.068 C55.665,31.068 53.643,29.781 53.275,26.377 L68.672,26.377 Z M60.813,20.812 L53.091,20.812 C53.366,17.408 54.331,16.351 56.998,16.351 C59.434,16.351 60.721,17.594 60.813,20.812 Z M0,51.062 L39.482,51.062 L39.482,43.796 L0,43.796 L0,51.062 Z M30.657,37.92 L39.483,37.92 L39.483,20.17 C39.483,12.947 35.53,9.267 29.876,9.267 C26.796,9.267 24.085,10.281 22.016,12.763 C20.454,10.371 18.11,9.267 14.755,9.267 C12.227,9.267 9.697,10.281 7.722,12.027 L6.343,9.637 L0,10.004 L0,37.92 L8.825,37.92 L8.825,18.375 C9.514,17.408 10.71,16.81 12.088,16.81 C14.203,16.81 15.307,17.775 15.307,20.215 L15.307,37.92 L24.177,37.92 L24.177,20.215 C24.177,17.914 25.325,16.81 27.395,16.81 C29.463,16.81 30.657,17.963 30.657,20.351 L30.657,37.92 Z M198.066,10.01 L189.011,10.424 L189.011,37.92 L198.066,37.92 L198.066,10.01 Z"></path>
        </g>
    </g>
</svg>