<svg width="298" height="167" viewBox="0 0 298 167" fill="none" xmlns="http://www.w3.org/2000/svg">
<path fill-rule="evenodd" clip-rule="evenodd" d="M0 0.176C0 0.273 4.979 8.301 11.065 18.015C17.151 27.729 22.338 36.216 22.59 36.875C22.873 37.611 21.215 38.563 18.282 39.347C14.845 40.266 12.251 41.933 8.988 45.318C3.656 50.85 2 55.563 2 65.206C2 70.99 2.524 73.229 5.071 78.326C6.76 81.706 9.731 85.781 11.674 87.383C16.134 91.059 24.726 93.5 33.207 93.5C39.402 93.5 39.82 93.646 40.416 96.021C40.764 97.408 41.015 113.848 40.974 132.555L40.899 166.567L57.45 166.783L74.001 167V149.75L74 132.5L83.25 132.523L92.5 132.546L102.068 149.614L111.635 166.683L130.068 166.663L148.5 166.643L148.774 149.572L149.047 132.5L158.274 132.523L167.5 132.546L177.044 149.573L186.589 166.6L205.295 166.8L224.001 167V149.75L224 132.5L233.25 132.523L242.5 132.546L252.043 149.57L261.585 166.594L279.793 166.797C289.807 166.909 298 166.884 298 166.742C298 166.6 293.038 158.577 286.974 148.914C280.91 139.25 275.847 130.864 275.724 130.278C275.601 129.691 277.043 128.793 278.929 128.281C285.178 126.585 290.635 121.946 293.665 115.754C296.025 110.932 296.47 108.785 296.41 102.5C296.239 84.647 286.124 74.833 266.75 73.724L258 73.223V36.861V0.5H241.5H225V17.5V34.5L215.25 34.457L205.5 34.413L195.845 17.207L186.19 0L168.119 0.293L150.048 0.587L149.774 17.293L149.5 34L140 34.233L130.5 34.466L120.845 17.233L111.19 0L93.095 0.294L75 0.587V17.544V34.5L65.25 34.456L55.5 34.412L45.955 17.409L36.41 0.406L18.205 0.203C8.192 0.091 0 0.079 0 0.176ZM74.5 64V73H57.271H40.041L37.321 70.277C32.021 64.974 34.511 57.316 42.129 55.488C43.983 55.043 52.025 54.751 60 54.839L74.5 55V64ZM149.37 56.75C150.261 60.077 150.098 70.797 149.133 72.319C148.481 73.347 144.602 73.568 131.564 73.319L114.831 73L111.816 69.623C109.348 66.858 108.914 65.68 109.425 63.126C110.843 56.036 114.655 54.747 134.633 54.602C148.485 54.502 148.779 54.545 149.37 56.75ZM224.788 64.315L225.077 73.63L207.559 73.315L190.04 73L187.32 70.277C182.021 64.973 184.511 57.316 192.129 55.488C193.983 55.043 202.025 54.751 210 54.839L224.5 55L224.788 64.315ZM105.806 94.111C111.874 95.325 115.272 101.014 113.084 106.297C110.985 111.364 108.915 111.923 90.75 112.328L74 112.702V103.101V93.5H88.375C96.281 93.5 104.125 93.775 105.806 94.111ZM180.806 94.111C186.874 95.325 190.272 101.014 188.084 106.297C185.985 111.364 183.915 111.923 165.75 112.328L149 112.702V103.101V93.5H163.375C171.281 93.5 179.125 93.775 180.806 94.111ZM255.806 94.111C261.874 95.325 265.272 101.014 263.084 106.297C260.985 111.364 258.915 111.923 240.75 112.328L224 112.702V103.101V93.5H238.375C246.281 93.5 254.125 93.775 255.806 94.111Z" fill="black"/>
</svg>
