<svg width="91" height="49" viewBox="0 0 91 49" fill="none" xmlns="http://www.w3.org/2000/svg">
<path d="M84.357 21.7853L68.618 38.0394C67.4416 39.2543 65.522 39.2543 64.3456 38.0394C63.1692 36.8246 63.1692 34.8436 64.3456 33.6288L75.5872 22.0223C77.8933 19.6392 79.1631 16.473 79.1631 13.1037C79.1631 9.73432 77.8933 6.56813 75.5872 4.18503C70.8264 -0.733552 63.0758 -0.733552 58.3108 4.18503L45.8206 17.0826L33.3305 4.18503C28.5697 -0.733552 20.8191 -0.733552 16.0541 4.18503C13.748 6.56813 12.4782 9.73432 12.4782 13.1037C12.4782 16.473 13.748 19.6392 16.0541 22.0223L27.2956 33.6288C28.472 34.8436 28.472 36.8246 27.2956 38.0394C26.1192 39.2543 24.1997 39.2543 23.0233 38.0394L7.28423 21.7853L0.782227 28.4986L16.5212 44.7528C18.9038 47.2121 22.0295 48.4396 25.1594 48.4396C28.2894 48.4396 31.4151 47.2121 33.7977 44.7528C38.5584 39.8342 38.5584 31.8341 33.7977 26.9155L22.5561 15.309C21.987 14.7206 21.6727 13.9375 21.6727 13.1037C21.6727 12.2698 21.987 11.4867 22.5561 10.8983C23.7325 9.68351 25.6521 9.68351 26.8285 10.8983L45.8206 30.5092L64.8128 10.8983C65.9892 9.68351 67.9045 9.68351 69.0852 10.8983C69.6543 11.4867 69.9685 12.2698 69.9685 13.1037C69.9685 13.9375 69.6543 14.7206 69.0852 15.309L57.8436 26.9155C53.0786 31.8341 53.0786 39.8342 57.8436 44.7528C60.2261 47.2121 63.3519 48.4396 66.4818 48.4396C69.6118 48.4396 72.7375 47.2121 75.12 44.7528L90.859 28.4986L84.357 21.7853Z" fill="black"/>
</svg>
