<svg xmlns="http://www.w3.org/2000/svg" width="105.001" height="48" viewBox="0 0 105.001 48"><path d="M85.907 15h-1.674L82 32h1.337l.418-3.62h2.512l.398 3.62H88l-2.093-17zm-2.013 12.28l1.156-10 1.098 10h-2.254zM72 15H70.81l-2.246 9.24-2.39-9.24h-1.17v17h1.29V20.1l1.91 7.28h.697l1.847-7.28V32H72M40 15h-1.102l-.653 11.54-1.418-8.28h-.673l-1.287 8.28L34.194 15H33l1.194 17h.878l1.437-9.94L38.132 32h.822M22.11 17.426c0-1.764-.758-2.345-2.623-2.345-1.804 0-2.583.77-2.583 2.2v1.95c0 1.077.39 2.03 1.107 3.026l1.886 2.614c.76 1.06.82 1.495.82 2.428v3.318c0 1.016-.554 1.162-1.168 1.162-.698 0-1.25-.146-1.25-1.162v-3.484h-1.394v3.857c0 1.43 1.127 1.927 2.664 1.927 1.455 0 2.542-.54 2.542-1.928v-3.735c0-1.307-.103-1.764-1.086-3.11l-1.62-2.22c-1.003-1.39-1.105-1.95-1.105-3.03v-1.64c0-.703.41-1.034 1.228-1.034.902 0 1.19.332 1.19 1.036v3.217h1.393v-3.047zM51.696 8.03h1.127v31.94h-1.127z"></path><path d="M0 0v48h105V0H0zm103.538 46.52H1.462V1.48h102.076v45.04z"></path></svg>