<?xml version="1.0" encoding="utf-8"?>
<!-- Generator: Adobe Illustrator 19.2.1, SVG Export Plug-In . SVG Version: 6.00 Build 0)  -->
<svg version="1.1" id="layer" xmlns="http://www.w3.org/2000/svg" xmlns:xlink="http://www.w3.org/1999/xlink" x="0px" y="0px"
	 viewBox="0 0 652 652" style="enable-background:new 0 0 652 652;" xml:space="preserve">
<style type="text/css">
	.st0{fill:#AF822E;}
	.st1{fill:url(#SVGID_1_);}
	.st2{opacity:0.15;fill:#231F20;enable-background:new    ;}
	.st3{opacity:0.15;fill:#77787B;enable-background:new    ;}
	.st4{opacity:0.15;}
	.st5{fill:#77787B;}
</style>
<path class="st0" d="M69.1,542c0-11.3,8.9-20,19.4-20c7.5,0,14,3.8,17,11.1l-5.5,2.4c-2-5.3-6.3-7.9-11.5-7.9
	c-7.3,0-12.9,6.1-12.9,14.4c0,8.7,5.7,14.4,13.1,14.4c5.5,0,10.1-3.2,11.9-8.7l5.9,2c-2.6,7.5-9.5,12.3-17.6,12.3
	C77.8,562,69.1,554.2,69.1,542z M113.4,522.6h5.9v38.8h-5.9V522.6z M129.8,522.6h14.8c7.9,0,13.6,5.1,13.6,12.1
	c0,5.1-3,9.1-7.7,11.1l9.5,15.6h-7.1l-8.7-14.6h-8.5v14.6h-5.9C129.8,561.4,129.8,522.6,129.8,522.6z M135.7,528.1v13.6h8.3
	c5.1,0,7.9-2.8,7.9-6.7c0-4-2.8-6.9-7.9-6.9H135.7z M223.6,576c-19.2,0-30.9-11.3-44.3-14.4c-8.5-2-15.2-9.7-15.2-19.4
	c0-11.5,8.9-20,19.6-20s19.6,8.5,19.6,20c0,8.5-5.1,15.4-12.3,18.2c11.1,4.2,21.4,11.7,35.4,11.7c5.9,0,11.3-1.6,16.6-5.3l1.2,1.8
	C239,573.2,232.5,576,223.6,576z M196.9,542c0-8.5-5.9-14.4-13.3-14.4c-7.5,0-13.3,5.9-13.3,14.4c0,8.5,5.9,14.4,13.3,14.4
	C191.3,556.4,196.9,550.5,196.9,542z M211.1,546.5v-23.9h5.9v23.5c0,6.7,3.6,10.3,9.7,10.3c5.9,0,9.7-3.6,9.7-10.3v-23.5h5.9v23.9
	c0,9.5-6.7,15.6-15.6,15.6C217.6,562,211.1,556.2,211.1,546.5z M252,522.6h26.7v5.5h-20.8v11.3h18.8v5.3h-18.8V556h21v5.5H252V522.6
	z M301.3,522.6h13.1c11.3,0,19.8,8.1,19.8,19.4c0,11.1-8.3,19.4-19.8,19.4h-13.1V522.6z M307.2,528.1V556h6.5
	c8.5,0,14.2-5.7,14.2-14c0-8.3-5.7-14-14.2-14H307.2L307.2,528.1z M341.8,546.5v-23.9h5.9v23.5c0,6.7,3.6,10.3,9.7,10.3
	c5.9,0,9.7-3.6,9.7-10.3v-23.5h5.9v23.9c0,9.5-6.7,15.6-15.6,15.6S341.8,556.2,341.8,546.5z M411.5,545.3l-5.3-1.2
	c-7.1-1.6-10.3-6.5-10.3-10.9c0-5.9,5.1-11.1,13.1-11.1c7.3,0,12.3,4.4,13.3,10.3l-5.7,1c-0.6-3.8-3.2-6.1-7.9-6.1
	c-4.9,0-7.1,2.8-7.1,5.7c0,2.6,1.6,4.9,6.1,5.9l5.1,1.2c6.9,1.6,10.5,5.9,10.5,10.7c0,6.5-5.3,11.5-14.2,11.5
	c-8.5,0-14-5.3-14.6-12.1l5.9-1c0.4,4.7,3.2,7.7,8.9,7.7c5.1,0,7.7-2.6,7.7-5.9C417.2,548.5,415.6,546.3,411.5,545.3z M429.3,542
	c0-11.5,8.9-20,19.6-20c10.7,0,19.6,8.5,19.6,20c0,11.3-8.9,20-19.6,20C438.2,562,429.3,553.5,429.3,542z M462.1,542
	c0-8.5-5.9-14.4-13.3-14.4c-7.5,0-13.3,5.9-13.3,14.4c0,8.5,5.9,14.4,13.3,14.4C456.2,556.4,462.1,550.5,462.1,542z M476.7,522.6
	h5.9V556h19v5.5h-24.9V522.6z M508,522.6h26.7v5.5h-20.8v11.3h18.8v5.3h-18.8V556h21v5.5h-27.1v-38.8H508z M543.6,522.6h5.9v38.8
	h-5.9V522.6z M560,522.6h5.9V556h19v5.5H560V522.6z M580.6,522.6c2.2,0,4.2,1.8,4.2,4.2c0,2.2-1.8,4.2-4.2,4.2
	c-2.2,0-4.2-1.8-4.2-4.2C576.6,524.6,578.4,522.6,580.6,522.6z M580.6,530.3c1.8,0,3.2-1.4,3.2-3.2c0-1.8-1.4-3.2-3.2-3.2
	c-1.8,0-3.2,1.4-3.2,3.2C577.4,528.7,578.8,530.3,580.6,530.3z M580.6,527.5h-0.4v1.6h-1v-4.4h1.6c0.8,0,1.6,0.6,1.6,1.4
	c0,0.6-0.4,1.2-1,1.4l1,1.8h-1L580.6,527.5z M580.8,526.6c0.4,0,0.8-0.2,0.8-0.6c0-0.4-0.2-0.6-0.8-0.6h-0.6v1.2H580.8z"/>
<g>
	
		<linearGradient id="SVGID_1_" gradientUnits="userSpaceOnUse" x1="2151" y1="-1353.5341" x2="2151" y2="466.3784" gradientTransform="matrix(0.2083 0 0 -0.2083 -121.125 172.25)">
		<stop  offset="0" style="stop-color:#AF822E"/>
		<stop  offset="0.1502" style="stop-color:#B28734"/>
		<stop  offset="0.3468" style="stop-color:#BC9544"/>
		<stop  offset="0.5692" style="stop-color:#CCAC5F"/>
		<stop  offset="0.8087" style="stop-color:#E3CB85"/>
		<stop  offset="1" style="stop-color:#F8E9A8"/>
	</linearGradient>
	<path class="st1" d="M285.2,404.3c10.4,3.2,21.3,5.2,32.4,5.8l-2.2-10.4c-10.6-1-20.9-3-30.7-6.4
		C284.4,397.1,284.6,400.9,285.2,404.3 M338.7,399.9l-2.2,10.4c11.1-0.8,22.1-2.8,32.4-5.8c0.6-3.4,0.8-7.2,0.4-10.7
		C359.6,396.7,349.3,398.9,338.7,399.9 M212.5,386.6c28.9,27.3,67.3,44.2,109.7,45.4l-2.2-10.2c-38-1.6-72.7-16.9-98.9-41
		L212.5,386.6z M334,421.8l-2.2,10.2c42.4-1.2,80.8-18.3,109.7-45.4l-8.6-5.6C406.6,405.1,372,420.2,334,421.8 M287.2,382.8
		c8.2,2.8,16.7,4.8,25.7,5.8l-2.2-10.4c-5.8-0.8-11.1-2-16.5-3.8C291,376.2,288.8,379.2,287.2,382.8 M343.3,378l-2.2,10.4
		c9-1,17.5-3,25.7-5.8c-1.6-3.6-3.8-6.4-6.8-8.4C354.7,376,349.1,377.2,343.3,378 M231.2,374.4c13.1,11.5,28.3,20.7,45,26.9
		c-4.8-3.4-10-8.6-12.1-16.5c-8.6-4.6-16.7-10-24.1-16.1L231.2,374.4z M389.9,385c-2.2,8-7.6,13.1-12.1,16.5
		c16.7-6.2,31.9-15.5,45-26.9L414,369C406.6,375,398.5,380.4,389.9,385 M304.3,366.6c1.4,0.4,2.8,0.6,4.2,0.8l-1-4.4
		C306.5,364.1,305.5,365.3,304.3,366.6 M345.7,367.4c1.4-0.2,2.8-0.6,4-0.8c-1.4-1.2-2.4-2.6-3.2-3.6L345.7,367.4z M250,362.3
		c4.2,3.4,8.8,6.6,13.5,9.4c0.6-4,1.6-7.2,3-10c-2.6-1.6-5.2-3.4-7.6-5.2L250,362.3z M387.7,361.7c1.4,2.8,2.4,6,3,10
		c4.8-2.8,9.2-6,13.5-9.4l-9-5.8C392.7,358.5,390.3,360.1,387.7,361.7 M267.9,350.7c1.4,1,2.8,1.8,4.2,2.8c3-3.4,5.8-6.4,7.4-10.2
		L267.9,350.7z M381.9,353.3c1.4-0.8,2.8-1.8,4.2-2.8l-11.5-7.4C376.2,346.9,379,349.9,381.9,353.3 M336.8,333.2l-9.8,51.6v-51l0,0
		c-5.8,0-11.1-0.8-16.5-2l16.5,87.8l16.5-87.8C341.3,332.4,338.9,332.8,336.8,333.2 M199,334c5.2,9.8,11.5,18.7,18.9,27.1l5.6-8.8
		c-6.8-8-12.5-16.7-17.3-26.1C203.6,328.4,201,331.2,199,334 M430.5,352.1l5.6,8.8c7.2-8.2,13.5-17.3,18.9-27.1
		c-2-2.8-4.4-5.6-7.2-8C443.1,335.4,437.3,344.1,430.5,352.1 M239.2,320.9c0.8,1.2,1.6,2.4,2.4,3.4l2.4-3.8
		C242.6,320.7,241,320.9,239.2,320.9 M412.4,324.2c0.8-1.2,1.6-2.4,2.4-3.4c-1.8,0-3.4-0.2-4.8-0.4L412.4,324.2z M215.7,320.1
		c4,8,8.8,15.3,14.1,22.1l5.8-9c-3.4-4.6-6.6-9.4-9.2-14.3c-1.2-0.2-2.2-0.4-3.4-0.4C220.7,318.7,218.1,319.3,215.7,320.1
		 M427.5,319.1c-2.8,5-5.8,10-9.2,14.3l5.8,9c5.4-6.8,10.2-14.3,14.1-22.1c-2.4-1-5-1.4-7.4-1.4
		C429.7,318.7,428.7,318.9,427.5,319.1 M381.9,306.3l29.7,43.4l-36-36c-8.8,8.8-19.7,15.1-32.1,18.1l0.8,3.2c0.4,1.6,0.6,3.2,1,4.6
		c1.6,8.8,3.2,16.9,18.5,25.9c12.7,7.4,13.5,21.9,13.1,25.9c2-2.2,4.8-7,5.2-13.3c0.4-5.6-1.2-13.9-10.2-21.9
		c-12.1-10.7-10.4-23.3-8.2-29.9l0.4-1l72.1,49.2l-50.4-73.9C384.5,302.5,383.3,304.5,381.9,306.3 M217.7,374.4l72.1-49.2l0.4,1
		c2.2,6.6,4,19.1-8.2,29.9c-9,8-10.6,16.3-10.2,21.9c0.4,6.4,3.2,11.3,5.2,13.3c-0.4-4,0.6-18.5,13.1-25.9
		c15.3-9,16.9-17.1,18.5-25.9c0.2-1.4,0.6-3,1-4.6l0.8-3.4c-12.3-3-23.3-9.4-32.1-18.1l-36,36l29.7-43.4c-1.4-1.8-2.6-3.8-3.8-5.8
		L217.7,374.4z M225.7,288.8c4.6-0.4,8.8-0.4,12.5-2l-13.5-3C225.1,285.6,225.3,287.2,225.7,288.8 M415.8,286.8
		c3.8,1.6,8,1.6,12.5,2c0.4-1.6,0.8-3.2,1-4.8L415.8,286.8z M439.9,281.6c-0.4,3-1,6-1.6,9c3,1,6,2.6,9.2,5c1.4-5.4,2.4-10.7,3-16.1
		L439.9,281.6z M206.6,295.6c3.2-2.4,6.2-4,9.2-5c-0.6-3-1.2-6-1.6-9l-10.4-2.2C204.4,284.8,205.4,290.4,206.6,295.6 M195,325.6
		c-1-5.6-1-13.1,3-20.1c-2.8-9.2-4.8-18.7-5.6-28.7l-10.4-2.2C183.3,292.8,187.6,309.9,195,325.6 M461.8,276.9
		c-0.8,10-2.8,19.5-5.6,28.7c4,7.2,4,14.5,3,20.1c7.2-15.7,11.7-32.8,12.9-51L461.8,276.9z M205.8,379.8l5.6-8.6
		c-24.1-26.5-39.4-60.9-41-98.9l-10.2-2.2C161.4,312.5,178.5,350.9,205.8,379.8 M483.7,272.3c-1.6,38-16.9,72.7-41,98.9l5.6,8.6
		c27.3-28.9,44.4-67.3,45.6-109.7L483.7,272.3z M395.1,255.4l51.6,9.8h-51l0,0c0,12.9-3.6,25.1-9.8,35.4l2.8,1.8
		c1.4,0.8,2.6,1.8,4,2.6c7.4,5,14.1,9.8,31.5,5.2c14.1-3.8,25.1,6,27.7,9c0-3-1.6-8.4-5.8-13.1c-3.8-4.2-10.7-9.2-22.7-8.4
		c-16.1,1-23.7-9.2-26.9-15.1l-0.4-1l85.8-16.1l-87.8-16.5C394.3,250.8,394.7,253.2,395.1,255.4 M172.5,265.1l85.8,16.1l-0.4,1
		c-3,6.2-10.7,16.3-26.9,15.3c-11.9-0.8-18.9,4.2-22.7,8.4c-4.2,4.8-5.8,10.4-5.8,13.1c2.6-3.2,13.5-12.7,27.7-9
		c17.1,4.6,24.1-0.2,31.5-5.2c1.2-0.8,2.6-1.8,4-2.6l2.8-1.8c-4.6-7.8-7.8-16.3-9.2-25.7l-52-9.8h51l0,0c0-5.8,0.8-11.1,2-16.5
		L172.5,265.1z M323,306.1c-1-0.6-1.6-1.2-1.6-1.2s0.8-0.2,1.8-0.4c1-0.2,2.4-0.2,3.8-0.2c1.2,0,2.6,0.2,3.6,0.2
		c1,0.2,1.8,0.4,1.8,0.4s-0.6,0.6-1.6,1.2c-1,0.6-2.2,1-4,1C325.2,307.1,324,306.7,323,306.1 M345.7,290l1.8-0.6l-1.2,1.4
		c-4.8,6-11.7,9.4-19.3,9.4s-14.5-3.4-19.3-9.4l-1.2-1.4l1.8,0.6c6,2.2,12.3,3.4,18.7,3.4C333.4,293.4,339.7,292.2,345.7,290
		 M335,275.1c0-1.2-0.2-2.4-0.2-2.4s1.8,1,2,3.6c0.4,2.8-2.2,6.6-9.8,6.6s-10-3.8-9.8-6.6c0.2-2.6,2-3.6,2-3.6s-0.2,1.2-0.2,2.4
		c0,2.4,2,3.2,8,3.2S335,277.5,335,275.1 M281.8,281.6c-2-5-1-10,2.4-11.3s7.6,1.4,9.8,6.4c2,5,1,10-2.4,11.3
		c-0.6,0.2-1.2,0.4-1.8,0.4l0,0C286.8,288.4,283.4,285.6,281.8,281.6 M362.6,288c-3.4-1.4-4.4-6.4-2.4-11.3c2-5,6.4-7.8,9.8-6.4
		c3.4,1.4,4.4,6.4,2.4,11.3c-1.6,4-5,6.8-8,6.8C363.6,288.4,363,288.2,362.6,288 M300.9,246.6c9.6-0.8,17.7,3.8,18.3,10.6
		c0.2,1.2,0,2.6-0.4,3.8c0,0,0-1.2-0.4-2.2c-0.2-0.4-0.2-0.6-0.4-1c-1-2.4-3.2-4.4-6.2-5.2c-4.4-1-6,0.6-6,0.6l0,0
		c-0.4,0.4-0.8,1-0.8,1.6c0,1.2,1,2.2,2.2,2.2c1,0,1.8-0.6,2-1.4c0,0.4,0,0.6,0,0.6c0,3.2-2.6,5.8-6,5.8c-3.2,0-6-2.6-6-6
		c0-0.8,0.2-1.4,0.2-1.8c0.2-1.6-2.2-2-4.6-1.6c-1,0.2-2.4,0.4-4.8,1.2c-1.4,0.4-2.8,1.4-2.8,1.4
		C287.8,250.8,293.8,247.2,300.9,246.6 M334.8,258.7c0-0.6,0-1,0-1.8c0.2-6.4,8.8-11.1,18.3-10.4c7.2,0.6,13.1,4.2,15.3,8.8
		c0,0-0.8-0.4-2.2-1c-3-1.4-5.8-2-9-2.2c-3.2-0.2-4.2,1-4.2,1l0,0c-0.4,0.4-0.8,1-0.8,1.6c0,1.2,1,2.2,2.2,2.2c1,0,1.8-0.6,2-1.4
		c0,0.2,0,0.2,0,0.4c0,3.2-2.6,6-6,6c-3,0-5.6-2.4-6-5.4c0,0,0-0.4-0.2-0.8c-0.2-1.6-1.4-2-3.2-1.8c-1.4,0.2-2.6,0.8-4,2.8
		c-1.6,2.4-3,10.9-3,10.9v-9H334.8z M337.2,242c0,0,2.4-7.6,11.9-8c9.6-0.4,13.5,5,13.5,5.2l0.8,1l-1.2-0.2c0,0-5.4-1-12.3-0.6
		c-8.6,0.6-11.9,3-11.9,3l-1.2,0.8L337.2,242z M291.2,239.4c0.2-0.2,4-5.2,12.7-5.2c0.2,0,0.6,0,0.8,0c9.6,0.4,11.9,7.8,11.9,8
		l0.4,1.4l-1.2-0.8c0,0-3.4-2.2-11.9-3c-6.8-0.6-12.3,0.6-12.3,0.6l-1.2,0.2L291.2,239.4z M268.5,265.1c0,32.2,26.3,58.5,58.5,58.5
		s58.5-26.3,58.5-58.5s-26.3-58.5-58.5-58.5S268.5,232.9,268.5,265.1 M266.9,227.9l-1,0.4c-6.6,2.2-19.1,4-29.9-8.2
		c-8-9-16.3-10.6-21.9-10.2c-6.4,0.4-11.3,3.2-13.3,5.2c4-0.4,18.5,0.6,25.9,13.1c9,15.3,17.1,16.9,25.9,18.5c1.6,0.2,3,0.6,4.6,1
		l3.2,0.8c2.2-9,6.4-17.3,11.7-24.5l-29.7-43.6l36,36c4-4,8.4-7.4,13.1-10.4l-73.9-50.4L266.9,227.9z M362.4,206.2
		c4.8,3,9.2,6.4,13.1,10.4l36-36l-29.7,43.4c5.4,7.2,9.4,15.5,11.7,24.5l3.2-0.8c1.6-0.4,3.2-0.6,4.6-1c8.8-1.6,16.9-3.2,25.9-18.5
		c7.4-12.7,21.9-13.5,25.9-13.1c-2.2-2-7-4.8-13.3-5.2c-5.6-0.4-13.9,1.2-21.9,10.2c-10.7,12.1-23.3,10.4-29.9,8.2l-1-0.4l49.2-72.1
		L362.4,206.2z M310.9,196.2l-1-0.4c-6.2-3-16.3-10.7-15.3-26.9c0.8-11.9-4.2-18.9-8.4-22.7c-4.8-4.2-10.4-5.8-13.1-5.8
		c3.2,2.6,12.7,13.5,9,27.7c-4.6,17.1,0.2,24.1,5.2,31.5c0.8,1.2,1.8,2.6,2.6,4l1.8,2.8c7.8-4.6,16.3-7.8,25.7-9.2l9.8-51.8v51l0,0
		c12.9,0,25.1,3.6,35.2,9.8l1.8-2.8c0.8-1.4,1.8-2.6,2.6-4c5-7.4,9.8-14.1,5.2-31.5c-3.8-14.1,6-25.1,9-27.7c-3,0-8.4,1.6-13.1,5.8
		c-4.2,3.8-9.2,10.7-8.4,22.7c1,16.1-9.2,23.7-15.1,26.9l-0.8,0.4l-16.1-85.6L310.9,196.2z M327,76.2l21.5,100.1
		c4-9.4-1.8-21.5,12.1-35.2c15.7-15.7,36.4-4.8,36.4-4.8c-9.8,6.2-18.9,18.3-16.3,28.7c2,8,2,13.5,1.4,17.3l78.4-50.6l-55.5,86
		c9.4-3.8,13.9-16.3,33.6-16.3c22.3,0,29.3,22.3,29.3,22.3c-11.3-2.4-26.3-0.4-31.9,8.8c-4.2,7-8.2,10.9-11.1,13.1l81.2,17.5
		c0,0.6,0,1.4,0,2c0,0,0,0,0,0.2c0,0.6,0,1.2,0,1.8c0,0.2,0,0.2,0,0.4c-0.6,48-19.9,91.4-51,123l0,0c-32.4,33.2-77.8,53.7-128,53.7
		c-0.8,0-1.6,0-2.4,0c-47.8-0.6-91-19.9-122.8-51l0,0c-32.8-32.2-53.6-77-53.7-126.6c0-0.4,0-1,0-1.4l0,0c0,0,0,0,0-0.2l0,0
		c0-0.6,0-1.4,0-2l81-17.5c-3-2.2-7-6.2-11.1-13.1c-5.6-9.2-20.5-11.1-31.9-8.8c0,0,7-22.3,29.3-22.3c19.7,0,24.1,12.5,33.6,16.3
		l-55.7-86.2l78.4,50.6c-0.6-3.8-0.6-9.2,1.4-17.3c2.6-10.4-6.6-22.5-16.3-28.7c0,0,20.7-10.9,36.4,4.8
		c13.9,13.9,8.2,25.9,12.1,35.2L327,76.2z M137.9,265.1L137.9,265.1c0,104.5,84.6,189.1,189.1,189.1s189.1-84.6,189.1-189.1l0,0l0,0
		C516.1,160.6,431.5,76,327,76S137.9,160.6,137.9,265.1"/>
	<path class="st2" d="M348.7,176.1c2.6-6.2,1-13.5,3.6-21.7L327.2,76l1.2,6.2L348.7,176.1z"/>
	<path class="st2" d="M380.9,164.8c2,8,2,13.5,1.4,17.3l12.5-8.2c-2.2-3.6-4.6-7.6-5.6-13.1c-2.6-13.3,8-24.7,8-24.7
		C387.5,142.3,378.4,154.2,380.9,164.8z"/>
	<path class="st2" d="M418.2,207.6c0.2-0.2,0.4-0.4,0.6-0.6c0.6-0.4,1.2-0.8,1.8-1.2c1.4-1,3-1.8,4.8-2.4l35.4-72.3l-55.5,86.2
		C409.8,215.5,413.4,211.4,418.2,207.6z"/>
	<path class="st2" d="M436.1,232.3c-4.2,7-8.2,10.9-11.1,13.1l13.3,2.8h0.4c2.6-5.2,3.2-11.1,6.4-16.1c5-8,22.9-8.8,22.9-8.8
		C456.6,220.9,441.7,222.9,436.1,232.3z"/>
	<path class="st3" d="M416,286.6c8.2,3.4,18.1-0.4,29.7,7.6c0,0,1.2,1,1.4,1l59.1-28.1l0,0L416,286.6z"/>
	<path class="st3" d="M432.7,329.2c13.9-2.4,21.3,3.4,22.3,4.4l0,0c-2-2.4-4-4.8-6-6.8c-6.4-5.8-14.3-9.8-21.7-8
		c-8,2-13.5,2-17.3,1.4l8,12.3C423.5,332.4,428.1,330,432.7,329.2z"/>
	<path class="st3" d="M388.5,351.9l-13.7-9c3.4,8.4,13.7,12.9,15.9,27.7v0.2l61.1,21.9L388.5,351.9z"/>
	<path class="st3" d="M359.8,374c-7-4.2-10.9-8.2-13.1-11.1l-3.2,14.5c2.8,2.6,8.2,3.2,12.1,5.8c12.7,8.8,13.1,20.5,13.1,20.9
		C370.8,392.9,368.6,379.2,359.8,374z"/>
	<path class="st2" d="M305.5,176.1c-2.6-6.2-1-13.5-3.6-21.7L327,76l-1.2,6.2L305.5,176.1z"/>
	<path class="st2" d="M273.3,164.8c-2,8-2,13.5-1.4,17.3l-12.5-8.2c2.2-3.6,4.6-7.6,5.6-13.1c2.6-13.3-8-24.7-8-24.7
		C266.7,142.3,275.8,154.2,273.3,164.8z"/>
	<path class="st2" d="M236,207.6c-0.2-0.2-0.4-0.2-0.6-0.4c-0.6-0.4-1-0.8-1.8-1.2c-1.4-1-3-1.8-4.8-2.4l-35.4-72.3l55.7,86
		C244.4,215.5,240.8,211.4,236,207.6z"/>
	<path class="st2" d="M218.1,232.3c4.2,7,8.2,10.9,11.1,13.1l-13.3,2.8h-0.4c-2.6-5.2-3.2-11.1-6.4-16.1c-5-8-22.9-8.8-22.9-8.8
		C197.6,220.9,212.5,222.9,218.1,232.3z"/>
	<path class="st3" d="M238.2,286.6c-8.2,3.4-18.1-0.4-29.7,7.6l-1.2,1L148,267.1l0,0L238.2,286.6z"/>
	<path class="st3" d="M221.5,329.2c-13.9-2.4-21.3,3.4-22.3,4.4l0,0c2-2.4,4-4.8,6-6.8c6.4-5.8,14.3-9.8,21.7-8c8,2,13.5,2,17.3,1.4
		l-8,12.3C230.6,332.4,226.1,330,221.5,329.2z"/>
	<path class="st3" d="M265.7,351.9l13.7-9c-3.4,8.4-13.7,12.9-15.9,27.7v0.2l-61.1,21.9L265.7,351.9z"/>
	<path class="st3" d="M294.4,374c7-4.2,10.9-8.2,13.1-11.1l3.2,14.5c-2.8,2.6-8.2,3.2-12.1,5.8c-12.7,8.8-13.1,20.5-13.1,20.9
		C283.4,392.9,285.6,379.2,294.4,374z"/>
	<g class="st4">
		<path class="st5" d="M327,282.6c-5.4,0-8.2-2-9.2-4c0.8,2.6,3,6,9.2,6s8.6-3.6,9.4-6.2c0,0,0,0.2-0.2,0.2
			C335.2,280.8,332.4,282.6,327,282.6z"/>
		<path class="st5" d="M331,305.9c-1,0.6-2.2,1-4,1s-3-0.4-4-1s-1.6-1.2-1.6-1.2l0,0c0,0,0.6,4.2,5.6,4.2s5.4-4.2,5.6-4.2l0,0
			C332.6,304.7,332,305.3,331,305.9z"/>
	</g>
	<path class="st0" d="M451.6,419.6h4.4v1h-1.6v4.6h-1.2v-4.6h-1.6C451.6,420.6,451.6,419.6,451.6,419.6z M462,419.6v5.6h-1.2V423
		c0-0.4,0-0.8,0-1.2l-1.2,3.4h-1l-1.2-3.4c0,0.4,0,0.8,0,1.2v2.2h-1.2v-5.6h1.2l1.6,4.4l1.6-4.4H462z"/>
</g>
</svg>
