<svg xmlns="http://www.w3.org/2000/svg" viewBox="-15 -15 190 180"><defs><filter id="a" width="200%" x="-50%"><feGaussianBlur in="SourceGraphic" stdDeviation="8"></feGaussianBlur></filter></defs><g filter="url(#a)" fill="#fff"><path d="M0 143.05c5.95-4.54 17.08-13.32 17.08-46.07V49.51c0-5.95-.31-9.56-5.48-9.56-2.51 0-4.54.78-5.64 1.1l-.63-1.41 21.47-9.56.94.94c-.16 4.23-.31 17.24-.31 25.54v38.86c0 28.2-11.91 40.74-26.64 48.89L0 143.05zM105.92 32.27v1.41c-3.13.94-6.74 3.29-9.56 10.34l-26.17 69.1h-1.1L42.3 43.71c-2.82-7.05-4.39-9.09-8.3-10.03v-1.41h30.08v1.57c-6.74 0-14.26 2.35-9.4 14.57l17.39 45.44 17.24-45.28c4.23-11.28-1.41-14.73-8.3-14.73v-1.57h24.91zM161.39 88.84c-3.13 7.99-11.28 23.97-28.67 23.97-19.43 0-29.77-17.71-29.77-41.99 0-22.25 12.38-40.43 32.28-40.43 14.89 0 26.01 12.38 25.54 29.77l-1.1.94h-47.95c-.16 1.72-.31 3.6-.31 5.33 0 21 9.4 36.82 25.38 36.82 11.91 0 19.12-7.68 23.35-15.36l1.25.95zm-49.05-32.75h37.45c-1.25-13.01-7.52-20.68-17.86-20.68-10.97 0-17.24 9.4-19.59 20.68zM27.08 0c2.61 0 4.44 1.41 4.44 4.12 0 6.59-11.35 16.79-19.95 16.79-2.61 0-4.44-1.41-4.44-4.14C7.13 10.18 18.48 0 27.08 0z"></path></g><path d="M0 143.05c5.95-4.54 17.08-13.32 17.08-46.07V49.51c0-5.95-.31-9.56-5.48-9.56-2.51 0-4.54.78-5.64 1.1l-.63-1.41 21.47-9.56.94.94c-.16 4.23-.31 17.24-.31 25.54v38.86c0 28.2-11.91 40.74-26.64 48.89L0 143.05zM105.92 32.27v1.41c-3.13.94-6.74 3.29-9.56 10.34l-26.17 69.1h-1.1L42.3 43.71c-2.82-7.05-4.39-9.09-8.3-10.03v-1.41h30.08v1.57c-6.74 0-14.26 2.35-9.4 14.57l17.39 45.44 17.24-45.28c4.23-11.28-1.41-14.73-8.3-14.73v-1.57h24.91zM161.39 88.84c-3.13 7.99-11.28 23.97-28.67 23.97-19.43 0-29.77-17.71-29.77-41.99 0-22.25 12.38-40.43 32.28-40.43 14.89 0 26.01 12.38 25.54 29.77l-1.1.94h-47.95c-.16 1.72-.31 3.6-.31 5.33 0 21 9.4 36.82 25.38 36.82 11.91 0 19.12-7.68 23.35-15.36l1.25.95zm-49.05-32.75h37.45c-1.25-13.01-7.52-20.68-17.86-20.68-10.97 0-17.24 9.4-19.59 20.68zM27.08 0c2.61 0 4.44 1.41 4.44 4.12 0 6.59-11.35 16.79-19.95 16.79-2.61 0-4.44-1.41-4.44-4.14C7.13 10.18 18.48 0 27.08 0z"></path></svg>