<?xml version="1.0" encoding="utf-8"?>
<!-- Generator: Adobe Illustrator 23.0.0, SVG Export Plug-In . SVG Version: 6.00 Build 0)  -->
<svg version="1.1" id="Calque_1" xmlns="http://www.w3.org/2000/svg" xmlns:xlink="http://www.w3.org/1999/xlink" x="0px" y="0px"
	 viewBox="0 0 222 132.7" style="enable-background:new 0 0 222 132.7;" xml:space="preserve">
<style type="text/css">
	.st0{fill:#0033A1;}
	.st1{fill-rule:evenodd;clip-rule:evenodd;fill:#0033A1;}
</style>
<g>
	<g>
		<g>
			<g>
				<g>
					<path class="st0" d="M111.1,24l0.2-0.3h0.4v-0.6h0.2v-0.3h-0.3c-0.2,0-0.1-0.4-0.1-0.4s0.1-0.3,0.5-0.3c0.4,0,0.6,0.5,0.6,0.5
						s0.3-0.1,0.2-0.6c-0.2-0.5-1-0.5-1.3-0.4c0.2-0.8-0.4-1.3-0.4-1.3s-0.7,0.5-0.4,1.3c-0.4-0.2-1.2-0.2-1.3,0.4
						c-0.2,0.5,0.2,0.6,0.2,0.6s0.2-0.5,0.6-0.5c0.4,0,0.5,0.3,0.5,0.3s0.1,0.4-0.1,0.4h-0.3v0.3h0.2v0.6h0.4L111.1,24"/>
				</g>
				<g>
					<path class="st0" d="M104.8,24l0.2-0.3h0.4v-0.6h0.2v-0.3h-0.3c-0.2,0-0.1-0.4-0.1-0.4s0.1-0.3,0.5-0.3c0.4,0,0.6,0.5,0.6,0.5
						s0.3-0.1,0.2-0.6c-0.2-0.5-1-0.5-1.3-0.4c0.2-0.8-0.4-1.3-0.4-1.3s-0.7,0.5-0.4,1.3c-0.4-0.2-1.2-0.2-1.3,0.4
						c-0.2,0.5,0.2,0.6,0.2,0.6s0.2-0.5,0.6-0.5c0.4,0,0.5,0.3,0.5,0.3s0.1,0.4-0.1,0.4H104v0.3h0.2v0.6h0.4L104.8,24"/>
				</g>
				<g>
					<path class="st0" d="M117.4,24l0.2-0.3h0.4v-0.6h0.2v-0.3H118c-0.2,0-0.1-0.4-0.1-0.4s0.1-0.3,0.5-0.3c0.4,0,0.6,0.5,0.6,0.5
						s0.3-0.1,0.2-0.6c-0.2-0.5-1-0.5-1.3-0.4c0.2-0.8-0.4-1.3-0.4-1.3s-0.7,0.5-0.4,1.3c-0.4-0.2-1.2-0.2-1.3,0.4
						c-0.2,0.5,0.2,0.6,0.2,0.6s0.2-0.5,0.6-0.5c0.4,0,0.5,0.3,0.5,0.3s0.1,0.4-0.1,0.4h-0.3v0.3h0.2v0.6h0.4L117.4,24"/>
				</g>
			</g>
		</g>
	</g>
	<g>
		<path class="st1" d="M40.8,86.5L40.8,86.5l2,0.1h0l0,0l1.8,0.3l0,0l0,0l1.6,0.5l0,0l0,0l1.5,0.6l0,0l0,0l1.3,0.8l0,0l0,0l1.2,0.9
			l0,0l0,0l1,1.1l0,0l0,0l0.9,1.1l0,0l0,0l1.4,2.5l0,0l0,0l0.9,2.7l0,0l0,0l0.5,2.8l0,0v0l0.2,2.7v0l0,0l-0.3,3.3v0l0,0l-0.8,3.1
			l0,0l0,0l-1.3,2.8l0,0l0,0l-1.7,2.5l0,0l0,0l-1,1.1l0,0l0,0l-1.1,1l0,0l0,0l-1.2,0.8l0,0l0,0l-1.3,0.7l0,0l0,0l-1.4,0.6l0,0l0,0
			l-1.5,0.4l0,0l0,0l-1.6,0.3l0,0h0l-1.7,0.1h0h0l-3-0.3l0,0l0,0l-1.4-0.3l0,0l0,0l-1.3-0.5l0,0l0,0l-1.2-0.6l0,0l0,0l-1.2-0.7l0,0
			l0,0l-1.1-0.9l0,0l0,0l-1-1l0,0l0,0l-0.9-1.1l0,0l0,0l-0.8-1.2l0,0l0,0l-0.7-1.3l0,0l0,0l-0.6-1.5l0,0l0,0l-0.8-3.2l0,0l0,0
			l-0.3-3.7l0,0l0,0l0.3-3.3l0,0l0,0l0.8-3.1l0,0l0,0l1.2-2.8l0,0l0,0l0.8-1.3l0,0l0,0l0.9-1.2l0,0l0,0l1-1.1l0,0l0,0l1.1-1l0,0l0,0
			l1.2-0.8l0,0l0,0l1.3-0.7l0,0l0,0l1.4-0.6l0,0l0,0l1.5-0.4l0,0h0l1.6-0.2l0,0l0,0L40.8,86.5L40.8,86.5z M40.6,89.6l-1.8,0.2
			l-1.6,0.7l-1.4,1.1l-1.2,1.6l-1,2.1l-0.7,2.6l-0.4,3.1l-0.1,3.6l0.1,2.2l0.3,2.2l0.6,2l0.8,1.8l1.1,1.6l1.3,1.2l1.6,0.8l0.9,0.2
			l0,0l1,0.1l0,0l1-0.1l1-0.2l0.9-0.4l0.8-0.5l1.4-1.4l1.2-1.8l0.9-2.2l0.6-2.5l0.4-2.7l0.1-2.8l-0.1-2.2L48,97.7l-0.6-2.1l-0.8-1.9
			L45.5,92l-1.4-1.3l-0.8-0.5l-0.9-0.3l-0.9-0.2l0,0L40.6,89.6L40.6,89.6z"/>
		<polygon class="st1" points="153.1,100.4 156.9,100.4 156.9,100.4 158.1,100.3 159,100 159.3,100 159.3,100.2 159.3,104.2 
			159.3,104.4 159,104.3 158.1,104.1 156.9,103.9 156.9,103.9 153.1,103.9 153.1,115.2 158.7,115 163.3,114.5 163.5,114.5 
			163.5,114.7 163.5,118.7 163.5,118.9 163.3,118.9 147.2,118.9 147,118.9 147,118.7 147,87.5 147,87.3 147.2,87.3 163.3,87.3 
			163.5,87.3 163.5,87.5 163.5,91.4 163.5,91.6 163.3,91.6 158.7,91.1 158.7,91.1 153.1,91 		"/>
		<polygon class="st1" points="217.9,87.3 221.7,87.3 222,87.3 221.8,87.6 217.7,96.2 215.7,100.5 213.8,104.8 213.8,118.9 
			213.8,119.1 213.6,119.1 210.8,118.9 210.8,118.9 207.9,119.1 207.7,119.1 207.7,118.9 207.7,105.7 203.6,96.7 199.5,87.6 
			199.4,87.3 199.7,87.3 206.6,87.3 206.7,87.3 206.7,87.4 210,95.6 211.4,99 211.4,99 212.2,100.7 213.3,98.6 213.3,98.5 
			214.9,94.9 217.8,87.4 217.8,87.3 		"/>
		<polygon class="st1" points="67.2,87.3 70.4,87.3 70.5,87.3 70.6,87.4 72.7,92.3 74.8,96.5 77.1,100.7 77.1,100.8 77.1,100.8 
			79.2,105.2 81.1,101.1 81.1,101.1 81.1,101.1 83.4,97 85.7,92.6 87.9,87.4 88,87.3 88.1,87.3 91.3,87.3 91.5,87.3 91.5,87.5 
			93.2,104.4 94,111.9 94.9,118.9 94.9,119.1 94.7,119.1 88.4,119.1 88.2,119.1 88.2,118.9 87.5,108.2 86.6,98.3 84.8,102.4 
			84.8,102.4 84.8,102.4 82.6,106.5 80.5,110.7 78.5,115.5 78.4,115.6 78.3,115.6 77.6,115.5 76.9,115.6 76.7,115.6 76.7,115.5 
			74.7,111.1 72.7,107.2 70.5,103 70.5,103 70.5,103 68.6,98.8 67.6,109.1 67.2,114.1 67.1,118.9 67,119.1 66.9,119.1 63.3,119.1 
			63.1,119.1 63.1,118.9 65.1,104.1 67,87.5 67,87.3 		"/>
		<polygon class="st1" points="108.7,87.3 111.8,87.3 112,87.3 112,87.4 114.1,92.3 116.3,96.5 118.6,100.7 118.6,100.8 
			118.6,100.8 120.6,105.2 122.6,101.1 122.6,101.1 122.6,101.1 124.9,97 127.1,92.6 129.4,87.4 129.4,87.3 129.6,87.3 132.8,87.3 
			133,87.3 133,87.5 134.6,104.4 135.5,111.9 136.4,118.9 136.4,119.1 136.2,119.1 129.9,119.1 129.7,119.1 129.7,118.9 129,108.2 
			128.1,98.3 126.3,102.4 126.3,102.4 126.3,102.4 124.1,106.5 122,110.7 119.9,115.5 119.9,115.6 119.8,115.6 118.3,115.6 
			118.2,115.6 118.1,115.5 116.2,111.1 114.1,107.2 112,103 111.9,103 111.9,103 110.1,98.8 109,109.1 108.7,114.1 108.5,118.9 
			108.5,119.1 108.3,119.1 104.8,119.1 104.6,119.1 104.6,118.9 106.6,104.1 108.5,87.5 108.5,87.3 		"/>
		<path class="st1" d="M6.1,90.2v12.2l1.1-0.1l1.2-0.2l0.8-0.4l0.7-0.5l0.6-0.6l0.4-0.7l0.6-1.8l0.2-2l-0.1-1.3l-0.2-1.2l-0.3-1
			l-0.4-0.9l-0.5-0.7l-0.6-0.5L9,90.3l-0.7-0.1l0,0L6.1,90.2z M0.2,87.3h9.4h0h0l1.9,0.1h0l0,0l1.6,0.4l0,0l0,0l1.4,0.6l0,0l0,0
			l1.2,0.8l0,0l0,0l0.9,1.1l0,0l0,0l0.7,1.3l0,0l0,0l0.4,1.6l0,0l0,0l0.1,1.8l0,0l0,0L17.8,98l0,0l0,0l-0.7,2.2l0,0l0,0L16,102l0,0
			l0,0l-1.4,1.3l0,0l0,0l-1.7,0.9l0,0l0,0l-2,0.6l0,0l0,0l-2.3,0.3h0h0l-2.3,0.1v13.6v0.2H5.9H0.2H0v-0.2V87.5v-0.2H0.2z"/>
		<path class="st1" d="M179.9,90.2V102l1.2,0l1.2-0.2l1-0.4l0.8-0.7l0.6-0.9l0.4-1.2l0.3-1.4l0.1-1.6l-0.2-2.3l-0.3-1.2l-0.5-0.9
			l-0.6-0.6l-0.7-0.4l-0.8-0.2h0l-0.9-0.1l0,0L179.9,90.2z M179.9,118.9v0.2h-0.2H174h-0.2v-0.2V87.5v-0.2h0.2h8.1l3.2,0.1h0l0,0
			l1.6,0.3l0,0l0,0l1.4,0.6l0,0l0,0l1.4,1.2l0,0l0,0l1,1.5l0,0l0,0l0.6,1.8l0,0l0,0l0.2,2.1v0v0l-0.1,1.6v0l0,0l-0.3,1.4l0,0l0,0
			l-0.5,1.3l0,0l0,0l-0.7,1.1l0,0l0,0l-0.9,1l0,0l0,0l-1,0.8l0,0l0,0l-1.2,0.6l0,0l0,0l-1.1,0.4l3.2,6.3l3.5,6.4l1.5,2.8l0.2,0.3
			h-0.3H187h-0.1l-0.1-0.1l-4.5-9.6l-2.4-4.9V118.9z"/>
	</g>
	<g>
		<g>
			<path class="st0" d="M54.7,72.2c-1-1-2.3-1.5-4-1.5c-2.6,0-4.4,1.5-4.4,3.5c0,2.1,1.7,3.5,4.5,3.5c1.7,0,2.9-0.5,3.9-1.5l1.3,0.7
				c-1.4,1.6-3,2.2-5.3,2.2c-1.6,0-3.1-0.5-4.1-1.2c-1.3-0.9-1.9-2.2-1.9-3.7c0-1.5,0.6-2.7,1.9-3.7c1-0.8,2.5-1.3,4.1-1.3
				c2.3,0,4.2,0.8,5.4,2.4L54.7,72.2z"/>
			<path class="st0" d="M69.8,78.9v-4.2h-7.5v4.2h-1.6v-9.4h1.6v3.8h7.5v-3.8h1.6v9.4H69.8z"/>
			<path class="st0" d="M85.2,78.9l-1.1-2.1h-6.3l-1.1,2.1H75l5-9.4h2l5,9.4H85.2z M81,70.9l-2.4,4.5h4.8L81,70.9z"/>
			<path class="st0" d="M101.8,78.9v-7.7h0l-4.9,6.1l-4.8-6.1h0v7.7h-1.6v-9.4h1.9l4.5,5.7l4.5-5.7h1.9v9.4H101.8z"/>
			<path class="st0" d="M119,72.4c0,1.9-1.2,2.9-3.4,2.9H110v3.6h-1.6v-9.4h7.4C117.8,69.5,119,70.7,119,72.4z M117.4,72.5
				c0-1-0.6-1.5-1.9-1.5H110v3h5.6C116.8,73.9,117.4,73.4,117.4,72.5z"/>
			<path class="st0" d="M130.7,78.9l-1.1-2.1h-6.3l-1.1,2.1h-1.7l5-9.4h2l5,9.4H130.7z M126.4,70.9l-2.4,4.5h4.8L126.4,70.9z"/>
			<path class="st0" d="M141.3,79.2c-1.6,0-3.1-0.5-4.1-1.3c-1.2-0.9-1.9-2.2-1.9-3.7c0-1.5,0.6-2.7,1.9-3.7
				c1.1-0.8,2.5-1.3,4.2-1.3c2.1,0,3.7,0.7,5.1,2.3l-1.5,0.7c-0.9-1-2.2-1.6-3.8-1.6c-1.2,0-2.2,0.3-3,0.9c-0.9,0.7-1.4,1.6-1.4,2.7
				c0,2.1,1.7,3.5,4.4,3.5c2,0,3.4-0.9,4-2.4H141v-1.4h6.3v0.1C147.3,77.1,145,79.2,141.3,79.2z"/>
			<path class="st0" d="M160.6,78.9l-7.2-7.7v7.7h-1.6v-9.4h1.9l7.2,7.7v-7.7h1.6v9.4H160.6z"/>
			<path class="st0" d="M167.6,78.9v-9.4h9.4v1.4h-7.9v2.4h5.5v1.4h-5.5v2.7h8.3v1.4H167.6z"/>
		</g>
	</g>
	<g>
		<g>
			<path class="st0" d="M59.2,132.6l-0.6-1.1h-3.4l-0.6,1.1h-0.9l2.7-5.1h1.1l2.7,5.1H59.2z M56.9,128.2l-1.3,2.5h2.6L56.9,128.2z
				 M56.9,127.1L56,126h0.8l0.5,1.2H56.9z"/>
			<path class="st0" d="M72.5,132.6l-1.4-1.9h-2.6v1.9h-0.8v-5.1h4c1.1,0,1.7,0.6,1.7,1.6c0,0.9-0.6,1.4-1.3,1.5l1.4,2H72.5z
				 M72.6,129.1c0-0.6-0.3-0.8-1.1-0.8h-3v1.6h3C72.2,129.9,72.6,129.6,72.6,129.1z"/>
			<path class="st0" d="M77.1,132.6v-5.1h5.1v0.8h-4.3v1.3h3v0.8h-3v1.5h4.5v0.8H77.1z"/>
			<path class="st0" d="M85.9,132.6v-5.1h0.8v5.1H85.9z"/>
			<path class="st0" d="M96.9,132.6v-4.2h0l-2.6,3.3l-2.6-3.3h0v4.2h-0.8v-5.1h1l2.4,3.1l2.4-3.1h1v5.1H96.9z"/>
			<path class="st0" d="M103.9,128.1c-1.1,0-1.6,0.3-1.6,0.7c0,0.2,0.1,0.4,0.4,0.5c0.6,0.2,1.4,0.1,2.4,0.3
				c1.3,0.2,1.9,0.6,1.9,1.4c0,1.1-1,1.7-2.8,1.7c-1.3,0-2.3-0.3-3-0.9l0.5-0.6c0.8,0.5,1.6,0.7,2.6,0.7c1.2,0,1.9-0.4,1.9-0.9
				c0-0.7-0.9-0.7-2.4-0.8c-1.6-0.1-2.4-0.4-2.4-1.3c0-0.9,0.9-1.5,2.6-1.5c1.1,0,2,0.3,2.8,0.8l-0.5,0.6
				C105.4,128.3,104.7,128.1,103.9,128.1z"/>
			<path class="st0" d="M110.4,130.7V130h2.9v0.8H110.4z"/>
			<path class="st0" d="M117.7,128.3v1.3h3v0.8h-3v2.3h-0.8v-5.1h5.1v0.8H117.7z"/>
			<path class="st0" d="M129.9,132.6l-1.4-1.9H126v1.9h-0.8v-5.1h4c1.1,0,1.7,0.6,1.7,1.6c0,0.9-0.6,1.4-1.3,1.5l1.4,2H129.9z
				 M130,129.1c0-0.6-0.3-0.8-1.1-0.8h-3v1.6h3C129.6,129.9,130,129.6,130,129.1z"/>
			<path class="st0" d="M139.1,132.6l-0.6-1.1h-3.4l-0.6,1.1h-0.9l2.7-5.1h1.1l2.7,5.1H139.1z M136.8,128.2l-1.3,2.5h2.6
				L136.8,128.2z"/>
			<path class="st0" d="M148,132.6l-3.9-4.2v4.2h-0.8v-5.1h1l3.9,4.2v-4.2h0.8v5.1H148z"/>
			<path class="st0" d="M158.1,128.9c-0.5-0.6-1.2-0.8-2.2-0.8c-1.4,0-2.4,0.8-2.4,1.9c0,1.1,0.9,1.9,2.4,1.9c0.9,0,1.6-0.3,2.1-0.8
				l0.7,0.4c-0.7,0.9-1.6,1.2-2.9,1.2c-0.9,0-1.7-0.3-2.2-0.7c-0.7-0.5-1-1.2-1-2c0-0.8,0.3-1.5,1-2c0.6-0.4,1.4-0.7,2.2-0.7
				c1.2,0,2.3,0.5,2.9,1.3L158.1,128.9z"/>
			<path class="st0" d="M162.6,132.6v-5.1h5.1v0.8h-4.3v1.3h3v0.8h-3v1.5h4.5v0.8H162.6z"/>
		</g>
	</g>
	<g>
		<g>
			<path class="st0" d="M110.8,40.9c-0.2-0.6,0.1-1.9-1.3-1.6c-0.4,0.1-1,0.6-1.4,1c0.3-0.5,0.6-1.2,0.6-1.6
				c-0.1-1.4-1.2-0.7-1.9-0.8c-0.6,0-1.7-0.7-1.9,0.7c-0.1,0.4,0.2,1.1,0.5,1.6c-0.4-0.4-0.9-0.9-1.3-1c-1.4-0.4-1,1-1.3,1.5
				c-0.2,0.6-1.2,1.4,0.1,2c0.4,0.2,1.1,0.1,1.7,0c-0.5,0.2-1.2,0.6-1.4,1c-0.8,1.2,0.6,1.3,1.1,1.7c0.5,0.3,1,1.6,2,0.5
				c0.3-0.3,0.4-1.1,0.5-1.6c0.1,0.6,0.2,1.4,0.5,1.7c0.9,1.1,1.4-0.2,2-0.5c0.5-0.4,1.8-0.5,1.1-1.7c-0.2-0.4-0.9-0.8-1.4-1
				c0.6,0.1,1.4,0.2,1.8,0.1C112,42.4,110.9,41.5,110.8,40.9z M106.8,43c-0.5,0-0.9-0.4-0.9-0.9c0-0.5,0.4-0.9,0.9-0.9
				c0.5,0,0.9,0.4,0.9,0.9C107.7,42.6,107.3,43,106.8,43z"/>
			<path class="st0" d="M118,35.6c-0.1,1.9-5.6,3.3-5.9,9.3l0.2-0.1c0.5-4.3,5.7-6.7,5.9-9.4L118,35.6z"/>
			<path class="st0" d="M114,42.7c0.9,1.6,3.9,0,4.2-1C117.4,41,114.1,40.9,114,42.7z"/>
			<path class="st0" d="M118,37.9c0.9,1.6,3.9,0,4.2-1C121.5,36.1,118.1,36.1,118,37.9z"/>
			<path class="st0" d="M113.9,38.9c0.2-1.8-3.1-2.4-4-1.8C110.1,38.2,112.7,40.3,113.9,38.9z"/>
		</g>
		<path class="st0" d="M111.9,31.8c0.2,0.6-0.1,1.9,1.3,1.6c0.4-0.1,1-0.6,1.4-1c-0.3,0.5-0.6,1.2-0.6,1.6c0.1,1.4,1.2,0.7,1.9,0.8
			c0.6,0,1.7,0.7,1.9-0.7c0.1-0.4-0.2-1.1-0.5-1.6c0.4,0.4,0.9,0.9,1.3,1c1.4,0.4,1-1,1.3-1.5c0.1-0.6,1.2-1.4-0.1-2
			c-0.4-0.2-1.1-0.1-1.7,0c0.5-0.2,1.2-0.6,1.4-1c0.8-1.2-0.6-1.3-1-1.7c-0.5-0.3-1-1.6-2-0.5c-0.3,0.3-0.4,1.1-0.5,1.6
			c-0.1-0.6-0.2-1.4-0.5-1.7c-0.9-1.1-1.4,0.2-2,0.5c-0.5,0.4-1.8,0.5-1.1,1.7c0.2,0.4,0.9,0.8,1.4,1c-0.6-0.1-1.3-0.2-1.8-0.1
			C110.8,30.3,111.8,31.2,111.9,31.8z M116,29.7c0.5,0,0.9,0.4,0.9,0.9c0,0.5-0.4,0.9-0.9,0.9c-0.5,0-0.9-0.4-0.9-0.9
			C115.1,30.1,115.5,29.7,116,29.7z"/>
		<path class="st0" d="M104.8,37.2c0.1-1.9,5.6-3.3,5.9-9.3l-0.2,0.1c-0.5,4.3-5.7,6.7-6,9.4L104.8,37.2z"/>
		<path class="st0" d="M108.8,30c-0.9-1.6-3.9,0-4.2,1C105.3,31.7,108.7,31.8,108.8,30z"/>
		<path class="st0" d="M104.8,34.8c-0.9-1.6-3.9,0-4.2,1C101.3,36.6,104.6,36.7,104.8,34.8z"/>
		<path class="st0" d="M108.9,33.8c-0.2,1.8,3.1,2.4,4,1.8C112.7,34.5,110.1,32.4,108.9,33.8z"/>
	</g>
	<path class="st0" d="M110.3,9.6l-0.4-6.7c0-0.3,0.2-0.5,0.5-0.5L110.3,0c-0.6,0-1.2,0-1.7,0.1l0,0l0.1,2.4c0.3,0,0.5,0.2,0.6,0.5
		l0.1,1.8c-0.7,0-1.3,0.1-2,0.2L107,3.1c0-0.3,0.2-0.5,0.5-0.6l-0.3-2.3c-0.6,0.1-1.1,0.1-1.7,0.2l0.2,2.4c0.3,0,0.6,0.1,0.6,0.4
		l0.2,1.8c-0.7,0.1-1.3,0.2-2,0.3l-0.4-1.8c-0.1-0.3,0.1-0.6,0.4-0.6L104,0.7c-0.6,0.1-1.1,0.2-1.7,0.4l0.5,2.3
		c0.3-0.1,0.6,0.1,0.6,0.4l1.4,6.6l-1.4,0.4l-2.1-6.4c-0.1-0.3,0.1-0.6,0.4-0.6l-0.7-2.3c-0.6,0.2-1.1,0.3-1.7,0.5l0.7,2.3
		c0.3-0.1,0.6,0,0.7,0.3l0.5,1.7c-0.7,0.2-1.3,0.4-1.9,0.7l-0.7-1.7c-0.1-0.3,0-0.6,0.3-0.7l-0.9-2.2c-0.5,0.2-1.1,0.4-1.6,0.7
		l0.9,2.2c0.3-0.1,0.6,0,0.7,0.2l0.7,1.7c-0.6,0.3-1.2,0.6-1.8,0.9l-0.9-1.6c-0.1-0.3,0-0.6,0.3-0.7L95,3.7
		c-0.8,0.4-1.5,0.7-2.2,1.2L98.7,15c3.6-2.1,7.8-2.9,12.3-2.9c4.5,0,8.7,0.8,12.3,2.9l5.9-10.1c-0.7-0.4-1.5-0.8-2.2-1.2l-1.1,2.1
		c0.3,0.1,0.4,0.4,0.2,0.7l-0.8,1.6c-0.6-0.3-1.2-0.6-1.8-0.9l0.7-1.7c0.1-0.3,0.4-0.4,0.7-0.2l0.9-2.2c-0.5-0.2-1.1-0.5-1.6-0.7
		l-0.9,2.2c0.3,0.1,0.4,0.4,0.3,0.7L122.8,7c-0.6-0.2-1.2-0.5-1.9-0.7l0.5-1.7c0.1-0.3,0.4-0.4,0.7-0.3l0.7-2.3
		c-0.5-0.2-1.1-0.4-1.7-0.5l-0.7,2.3c0.3,0.1,0.4,0.4,0.4,0.6l-2.1,6.4l-1.4-0.4l1.4-6.6c0.1-0.3,0.4-0.4,0.6-0.4l0.5-2.3
		c-0.6-0.1-1.1-0.3-1.7-0.4L117.5,3c0.3,0.1,0.5,0.3,0.4,0.6l-0.4,1.8c-0.6-0.1-1.3-0.2-2-0.3l0.2-1.8c0.1-0.3,0.3-0.5,0.6-0.4
		l0.3-2.4c-0.6-0.1-1.2-0.2-1.7-0.2l-0.3,2.3c0.3,0,0.5,0.3,0.5,0.6l-0.2,1.8c-0.7-0.1-1.3-0.1-2-0.2l0.1-1.8c0-0.3,0.3-0.5,0.6-0.5
		l0.1-2.4h0c-0.6,0-1.2-0.1-1.7-0.1l-0.1,2.4c0.3,0,0.5,0.2,0.5,0.5l-0.4,6.7H110.3z"/>
	<g>
		<path class="st0" d="M135.9,30.7c2.6,1.8,6.8-3.6,6.6-5.4C140.7,24.7,134.7,27.8,135.9,30.7z"/>
		<path class="st0" d="M135.5,27.7c2.3-1.9-0.5-7.5-2.2-7.7C132.2,21.3,132.5,27.9,135.5,27.7z"/>
		<path class="st0" d="M133.9,32.5c2-2.2-2.2-6.9-3.9-6.9C129.1,27.1,131,33.1,133.9,32.5z"/>
		<path class="st0" d="M134.4,36.5c2.7,1.7,6.7-3.8,6.4-5.6C139,30.3,133.1,33.6,134.4,36.5z"/>
		<path class="st0" d="M133.1,38.3c2.2-2.3-1.7-6.5-3.6-6.6C128.6,33.3,130,38.9,133.1,38.3z"/>
		<path class="st0" d="M132.9,44.7c1.8-1.8-2.1-6.5-3.6-6.6C128.4,39.4,130.4,45.2,132.9,44.7z"/>
		<path class="st0" d="M134.3,41.7c2.7,1.5,6.2-3.8,5.8-5.6C138.4,35.6,133,38.9,134.3,41.7z"/>
		<path class="st0" d="M127.3,45.4c0.2,2.5,4.9,2.4,5.9,1.4C132.8,45.3,128.6,43.2,127.3,45.4z"/>
		<path class="st0" d="M133.8,45.8c2.3,1.7,5.6-2.4,5.4-4.1C137.7,41.1,132.9,43.1,133.8,45.8z"/>
		<path class="st0" d="M137.9,45.2c0.4,3.1,7.1,2.9,8.3,1.5C145.7,45,139.4,42.5,137.9,45.2z"/>
		<path class="st0" d="M143.8,40.6c2.7,0.8,5-4.8,4.2-6.4C146.4,34.2,142,38.4,143.8,40.6z"/>
		<path class="st0" d="M141.3,42.8c2.8-0.7,1.8-6.7,0.4-7.6C140.2,35.9,138.6,41.8,141.3,42.8z"/>
		<path class="st0" d="M142.3,43.1c1.3,2.8,6.7,0.7,7.4-1C148.6,40.6,142.8,40,142.3,43.1z"/>
		<path class="st0" d="M134.6,47.3c-0.5,3.1,5.2,4.3,6.7,3.3C141.2,48.7,136.7,45,134.6,47.3z"/>
		<path class="st0" d="M115.1,55c0.4,2.4,4.9,1.9,5.7,0.7C120.3,54.5,116.1,52.8,115.1,55z"/>
		<path class="st0" d="M119.4,53c0,2.4,4.5,2.6,5.6,1.6C124.6,53.2,120.7,51,119.4,53z"/>
		<path class="st0" d="M122.2,51c0.2,2.5,4.9,2.5,5.9,1.4C127.7,50.9,123.5,48.8,122.2,51z"/>
		<path class="st0" d="M125.1,48.4c0.2,2.5,4.9,2.4,5.9,1.4C130.6,48.4,126.4,46.2,125.1,48.4z"/>
		<path class="st0" d="M133.2,51.3c0.7,0,1.2-0.5,1.2-1.2c0-0.7-0.5-1.2-1.2-1.2c-0.7,0-1.2,0.5-1.2,1.2
			C132,50.7,132.5,51.3,133.2,51.3z"/>
	</g>
	<g>
		<path class="st0" d="M86,30.7c-2.6,1.8-6.8-3.6-6.6-5.4C81.2,24.7,87.2,27.8,86,30.7z"/>
		<path class="st0" d="M86.4,27.7c-2.3-1.9,0.5-7.5,2.2-7.7C89.7,21.3,89.4,27.9,86.4,27.7z"/>
		<path class="st0" d="M88,32.5c-2-2.2,2.2-6.9,3.9-6.9C92.8,27.1,90.9,33.1,88,32.5z"/>
		<path class="st0" d="M87.5,36.5c-2.7,1.7-6.7-3.8-6.4-5.6C82.9,30.3,88.8,33.6,87.5,36.5z"/>
		<path class="st0" d="M88.8,38.3c-2.2-2.3,1.7-6.5,3.6-6.6C93.3,33.3,91.8,38.9,88.8,38.3z"/>
		<path class="st0" d="M89,44.7c-1.8-1.8,2.1-6.5,3.6-6.6C93.4,39.4,91.5,45.2,89,44.7z"/>
		<path class="st0" d="M87.6,41.7c-2.7,1.5-6.2-3.8-5.8-5.6C83.5,35.6,88.9,38.9,87.6,41.7z"/>
		<path class="st0" d="M94.6,45.4c-0.2,2.5-4.9,2.4-5.9,1.4C89.1,45.3,93.3,43.2,94.6,45.4z"/>
		<path class="st0" d="M88.1,45.8c-2.3,1.7-5.6-2.4-5.4-4.1C84.2,41.1,89,43.1,88.1,45.8z"/>
		<path class="st0" d="M84,45.2c-0.4,3.1-7.1,2.9-8.3,1.5C76.2,45,82.5,42.5,84,45.2z"/>
		<path class="st0" d="M78.1,40.6c-2.7,0.8-5-4.8-4.2-6.4C75.5,34.2,79.9,38.4,78.1,40.6z"/>
		<path class="st0" d="M80.6,42.8c-2.8-0.7-1.8-6.7-0.4-7.6C81.7,35.9,83.3,41.8,80.6,42.8z"/>
		<path class="st0" d="M79.6,43.1c-1.3,2.8-6.7,0.7-7.4-1C73.3,40.6,79.1,40,79.6,43.1z"/>
		<path class="st0" d="M87.3,47.3c0.5,3.1-5.2,4.3-6.7,3.3C80.7,48.7,85.2,45,87.3,47.3z"/>
		<path class="st0" d="M106.8,55c-0.4,2.4-4.9,1.9-5.7,0.7C101.6,54.5,105.8,52.8,106.8,55z"/>
		<path class="st0" d="M102.5,53c0,2.4-4.5,2.6-5.6,1.6C97.3,53.2,101.2,51,102.5,53z"/>
		<path class="st0" d="M99.7,51c-0.2,2.5-4.9,2.5-5.9,1.4C94.2,50.9,98.4,48.8,99.7,51z"/>
		<path class="st0" d="M96.8,48.4c-0.2,2.5-4.9,2.4-5.9,1.4C91.3,48.4,95.5,46.2,96.8,48.4z"/>
		<path class="st0" d="M88.7,51.3c-0.7,0-1.2-0.5-1.2-1.2c0-0.7,0.5-1.2,1.2-1.2c0.7,0,1.2,0.5,1.2,1.2
			C89.9,50.7,89.4,51.3,88.7,51.3z"/>
	</g>
	<path class="st0" d="M111.1,13.4c-4.8,0-8.7,0.9-12.1,2.7l0.6,1.1c3.2-1.7,6.9-2.5,11.5-2.5c4.6,0,8.3,0.8,11.5,2.5l0.6-1.1
		C119.8,14.2,115.9,13.4,111.1,13.4z"/>
	<path class="st0" d="M97.2,19.4v20.9c-0.1,5.2,3.8,7.2,7.5,9.2c2,1.1,4.1,2.2,5.7,3.8l0.6,0.6l0.6-0.6c1.7-1.6,3.7-2.7,5.7-3.8
		c3.7-2,7.6-4,7.5-9.2V19.4H97.2z M123.1,40.5c0,4.1-2.9,5.7-6.6,7.6c-1.9,1-3.8,2.1-5.5,3.6c-1.7-1.5-3.6-2.6-5.5-3.6
		c-3.7-2-6.6-3.5-6.6-7.6c0,0,0-9.7,0-15.5h24.3C123.1,30.7,123.1,40.4,123.1,40.5z M123.1,24.2H98.8v-4h24.3V24.2z"/>
</g>
</svg>
