<svg style="height: 174;" width="397" viewBox="0 0 396.85 173.41" height="174" version="1.1" xmlns="http://www.w3.org/2000/svg" xmlns:xlink="http://www.w3.org/1999/xlink">
<path d="M188.61 97.09h21.68l-19.61-27.65c8.16-3.4 11.81-10.19 11.81-20.26v-9.94c0-15.17-7.3-22.93-27.03-22.93h-33.73V97.1h18.26V71.97h10.72l17.9 25.12zm-4.38-49.74c0 6.06-1.95 8.85-9.74 8.85H160V32.43h14.49c7.43 0 9.74 2.42 9.74 8.49v6.43zM324.89 16.3h-18.02l-13.63 57.74-13.88-57.74h-22.28l-14.12 57.74L229.2 16.3h-18.03l19.97 80.79h23.26l13.75-54.93 13.64 54.93h23.25l19.85-80.79zm47.12 0h-24.35l-24.72 80.79h19l4.38-15.77h27.15l4.38 15.77h19L372.01 16.3zm-12.17 16.01 9.26 33.84h-18.63l9.37-33.84z" style="fill:#1D1D1B"></path>
	<path d="m74.5 50.34-5.92 5.92 30.43 30.41-11.89 11.9-30.45-30.43L26.5 98.29 14.55 86.35 44.72 56.2l-5.94-5.93.01-11.82-4.25-4.24V44l-4.13 4.14-14.84-14.85-3.9 3.91c0-2.56.59-11.37 7.66-18.27 7.93-7.72 15.86-3.21 18.59-.48l14.36 14.37-3.57 3.57 7.91 7.89 7.92-7.88-3.58-3.58 14.37-14.37c2.73-2.73 10.67-7.24 18.59.48 7.07 6.89 7.8 15.73 7.8 18.28l-3.98-3.98-14.89 14.89-4.11-4.11-.04-9.81-4.24 4.24.04 11.9zM0 113.39h113.39V0H0v113.39z" style="fill:#009e3c"></path>
	<path class="st1" d="M4.29 146.58c-.5-1.63-1.4-2.62-3.07-3.12L0 143.1v-1.36c1.67.05 3.57.09 5.88.09 2.4 0 4.34 0 6.15-.09v1.36l-1.54.45c-1.54.45-2.22.81-2.22 1.9 0 .63.23 1.4.41 1.99l6.19 20.49h.09l6.55-20.49c.18-.54.41-1.36.41-1.99 0-1.09-.68-1.45-2.21-1.9l-1.54-.45v-1.36c1.67.05 4.38.09 5.83.09 2.4 0 4.29 0 6.1-.09v1.36l-1.54.45c-1.54.45-2.21.81-2.21 1.9 0 .63.27 1.49.41 1.99l5.88 20.54h.09l6.92-20.54c.18-.54.41-1.36.41-1.99 0-1.09-.68-1.45-2.22-1.9l-1.54-.45v-1.36c1.67.05 3.98.09 5.42.09 1.9 0 3.39-.04 4.75-.09v1.36l-1.22.36c-1.31.41-1.67.86-2.53 3.12l-9.58 26.46h-2.67l-7-23.29h-.09l-8 23.29H12.7l-8.41-26.46zM48.51 158.53h8.32c1.13 0 1.49-.36 1.49-1.13 0-2.26-1.63-4.25-4.43-4.25-3.03-.01-4.93 2.57-5.38 5.38m13.96-.09c0 .59-.05 1.22-.18 1.81H48.28c-.09.63-.09 1.27-.09 1.58 0 5.29 2.94 8.46 7.59 8.46 2.39 0 4.61-1 5.96-2.22l.81.91c-1.13 1.94-3.93 4.34-8.36 4.34-5.83 0-9.76-4.3-9.76-10.36 0-6.92 4.16-11.8 10.08-11.8 5.25-.01 7.96 3.25 7.96 7.28M80.35 153.23c0 1.18-.72 1.81-1.54 2.17l-.5.23c-.41-.59-1.13-1.18-2.35-1.18-1.76 0-3.35 1.95-3.84 3.39v10.99c0 1.67 1.4 2.08 2.8 2.4l1.18.27v1.26c-1.4-.05-3.62-.09-5.69-.09-2.17 0-3.71.04-5.15.09v-1.26l1.36-.41c1.76-.5 2.08-.86 2.08-2.26v-12.21c0-1.72-.72-1.94-2.12-2.31l-1.04-.27v-1.18c1.99-.5 3.8-1.13 5.97-1.94l.68.36c-.09.86-.18 2.08-.18 3.3v.81h.09c1.04-2.04 2.94-4.25 5.69-4.25 1.61.01 2.56.83 2.56 2.09M86.32 168.12c0-1.85.04-4.84.09-7.55l.09-6.57h-3.12v-1.31l.32-.13c2.39-1.04 3.75-2.89 4.61-5.29l.18-.5h1.49v4.93h6.1v2.3h-6.15l-.09 6.56c-.05 2.71-.09 5.47-.09 6.92 0 2.26.72 3.21 2.67 3.21 1.45 0 2.85-.45 3.75-1.08l.54 1.13c-.9 1.08-2.85 2.58-5.74 2.58-3.02 0-4.65-1.81-4.65-5.2M102.46 158.53h8.32c1.13 0 1.49-.36 1.49-1.13 0-2.26-1.63-4.25-4.43-4.25-3.03-.01-4.93 2.57-5.38 5.38m13.96-.09c0 .59-.05 1.22-.18 1.81h-14.01c-.09.63-.09 1.27-.09 1.58 0 5.29 2.94 8.46 7.59 8.46 2.4 0 4.61-1 5.96-2.22l.81.91c-1.13 1.94-3.93 4.34-8.36 4.34-5.83 0-9.76-4.3-9.76-10.36 0-6.92 4.16-11.8 10.08-11.8 5.25-.01 7.96 3.25 7.96 7.28M131.29 155.63c-.5-1.31-1-1.9-2.17-2.26l-1.18-.41v-1.27c1.36.04 2.94.09 4.84.09s3.3-.05 4.79-.09v1.27l-1.67.45c-.86.23-1.17.73-1.17 1.36 0 .27.09.68.23 1.09l4.52 12.8h.09l4.56-12.8c.14-.36.27-.81.27-1.09 0-.63-.36-1.13-1.17-1.36l-1.72-.45v-1.27c1.36.04 3.25.09 4.43.09 1.54 0 2.76-.05 3.84-.09v1.27l-1.22.41c-1.08.31-1.45.95-1.94 2.26l-6.55 17.14h-2.53l-6.25-17.14zM154.55 158.53h8.32c1.13 0 1.49-.36 1.49-1.13 0-2.26-1.63-4.25-4.43-4.25-3.03-.01-4.93 2.57-5.38 5.38m13.96-.09c0 .59-.05 1.22-.18 1.81h-14.01c-.09.63-.09 1.27-.09 1.58 0 5.29 2.94 8.46 7.59 8.46 2.4 0 4.61-1 5.96-2.22l.81.91c-1.13 1.94-3.93 4.34-8.36 4.34-5.83 0-9.76-4.3-9.76-10.36 0-6.92 4.16-11.8 10.08-11.8 5.25-.01 7.96 3.25 7.96 7.28M186.4 153.23c0 1.18-.72 1.81-1.54 2.17l-.5.23c-.41-.59-1.13-1.18-2.35-1.18-1.76 0-3.35 1.95-3.84 3.39v10.99c0 1.67 1.4 2.08 2.8 2.4l1.18.27v1.26c-1.4-.05-3.62-.09-5.7-.09-2.17 0-3.71.04-5.15.09v-1.26l1.36-.41c1.76-.5 2.08-.86 2.08-2.26v-12.21c0-1.72-.72-1.94-2.12-2.31l-1.04-.27v-1.18c1.99-.5 3.8-1.13 5.97-1.94l.68.36c-.09.86-.18 2.08-.18 3.3v.81h.09c1.04-2.04 2.94-4.25 5.7-4.25 1.6.01 2.56.83 2.56 2.09M198.34 154.14c-2.04 0-3.71.72-4.97 1.9v13.21c.68 1.18 2.35 1.85 4.02 1.85 4.43 0 7.05-3.03 7.05-9.05 0-4.88-2.63-7.91-6.1-7.91m-1.81 19.18c-2.35 0-5.29-.54-6.6-1.26V145.1c0-1.72-.72-1.94-2.12-2.31l-1.04-.27v-1.18c1.99-.5 3.93-1.13 6.1-1.95l.68.36c-.09.86-.18 2.08-.18 3.3v11.04h.09c1.36-1.54 3.44-2.94 6.42-2.94 5.11 0 8.23 4.3 8.23 9.81-.01 7.61-5.07 12.36-11.58 12.36M216.22 146.77c-1.4 0-2.49-1.13-2.49-2.53s1.09-2.53 2.49-2.53 2.48 1.13 2.48 2.53-1.08 2.53-2.48 2.53m2.08 22.07c0 1.4.32 1.76 2.08 2.26l1.35.41v1.27c-1.4-.05-3.07-.09-5.15-.09-2.17 0-3.71.04-5.15.09v-1.27l1.36-.41c1.76-.5 2.08-.86 2.08-2.26v-12.21c0-1.72-.72-1.94-2.12-2.31l-1.04-.27v-1.18c1.99-.5 3.93-1.13 6.1-1.95l.68.36c-.09.86-.18 2.08-.18 3.3v14.26zM244.31 158.39v10.45c0 1.4.32 1.76 2.12 2.26l1.31.41v1.26c-1.4-.05-3.07-.09-5.15-.09-2.17 0-3.71.04-5.15.09v-1.26l1.31-.41c1.81-.5 2.12-.86 2.12-2.26v-9.91c0-3.12-1.45-4.93-4.57-4.93-1.81 0-3.89.9-5.33 2.4v12.44c0 1.4.32 1.76 2.08 2.26l1.35.41v1.26c-1.4-.05-3.07-.09-5.15-.09-2.17 0-3.71.04-5.15.09v-1.26l1.36-.41c1.76-.5 2.08-.86 2.08-2.26v-12.21c0-1.72-.72-1.94-2.12-2.31l-1.04-.27v-1.18c1.99-.5 3.8-1.13 5.97-1.94l.68.36c-.09.86-.18 2.13-.18 3.35h.09c1.26-1.72 4.25-3.48 7.1-3.48 4.14-.01 6.27 2.48 6.27 7.23M259.29 170.33c2.12 0 3.75-.95 4.92-2.26v-12.85c-.72-1.18-2.26-1.85-4.11-1.85-4.38 0-6.96 3.17-6.96 9 .01 4.98 2.63 7.96 6.15 7.96m1.72-19.18c1.04 0 2.17.09 3.21.41v-6.47c0-1.72-.72-1.94-2.12-2.31l-1.04-.27v-1.18c1.99-.5 3.93-1.13 6.1-1.95l.68.36c-.09.86-.18 2.08-.18 3.3v25.6c0 1.63.72 1.99 2.12 2.35l1.04.27v1.22c-1.85.18-4.02.54-5.65.9l-.63-.36c-.18-.99-.27-2.08-.32-3.12h-.09c-1.31 1.67-3.34 3.39-6.37 3.39-5.06 0-8.27-4.21-8.27-9.82 0-7.43 4.97-12.32 11.52-12.32M277.1 158.53h8.32c1.13 0 1.49-.36 1.49-1.13 0-2.26-1.63-4.25-4.43-4.25-3.03-.01-4.92 2.57-5.38 5.38m13.97-.09c0 .59-.05 1.22-.18 1.81h-14.01c-.09.63-.09 1.27-.09 1.58 0 5.29 2.94 8.46 7.59 8.46 2.4 0 4.61-1 5.96-2.22l.81.91c-1.13 1.94-3.93 4.34-8.36 4.34-5.83 0-9.76-4.3-9.76-10.36 0-6.92 4.16-11.8 10.08-11.8 5.25-.01 7.96 3.25 7.96 7.28M314.06 158.39v10.45c0 1.4.32 1.76 2.12 2.26l1.31.41v1.26c-1.4-.05-3.07-.09-5.15-.09-2.17 0-3.71.04-5.15.09v-1.26l1.31-.41c1.81-.5 2.12-.86 2.12-2.26v-9.91c0-3.12-1.45-4.93-4.57-4.93-1.81 0-3.89.9-5.33 2.4v12.44c0 1.4.32 1.76 2.08 2.26l1.35.41v1.26c-1.4-.05-3.07-.09-5.15-.09-2.17 0-3.71.04-5.15.09v-1.26l1.36-.41c1.76-.5 2.08-.86 2.08-2.26v-12.21c0-1.72-.72-1.94-2.12-2.31l-1.04-.27v-1.18c1.99-.5 3.8-1.13 5.97-1.94l.68.36c-.09.86-.18 2.13-.18 3.35h.09c1.26-1.72 4.25-3.48 7.1-3.48 4.14-.01 6.27 2.48 6.27 7.23M332.99 165.94v-10.27c0-1.72-.72-1.94-2.12-2.31l-1.04-.27v-1.22c1.85-.18 4.47-.59 6.15-.91l.59.36c-.04.72-.14 2.4-.14 3.66v10.54c0 2.8.95 4.93 4.38 4.93 1.63 0 3.57-.86 5.06-2.4v-12.39c0-1.72-.68-1.94-2.08-2.31l-1.04-.27v-1.22c1.81-.18 4.48-.59 6.1-.91l.63.36c-.09.72-.18 2.35-.18 3.57v13.75c0 1.63.72 1.99 2.12 2.35l1.04.27v1.22c-1.85.18-4.02.54-5.65.9l-.63-.36c-.18-.99-.27-2.13-.32-3.17h-.09c-1.31 1.76-3.8 3.44-6.64 3.44-4.15.04-6.14-2.68-6.14-7.34M376.01 158.39v10.45c0 1.4.32 1.76 2.12 2.26l1.31.41v1.26c-1.4-.05-3.07-.09-5.15-.09-2.17 0-3.71.04-5.15.09v-1.26l1.31-.41c1.81-.5 2.12-.86 2.12-2.26v-9.91c0-3.12-1.45-4.93-4.57-4.93-1.81 0-3.89.9-5.33 2.4v12.44c0 1.4.32 1.76 2.08 2.26l1.35.41v1.26c-1.4-.05-3.07-.09-5.15-.09-2.17 0-3.71.04-5.15.09v-1.26l1.36-.41c1.76-.5 2.08-.86 2.08-2.26v-12.21c0-1.72-.72-1.94-2.12-2.31l-1.04-.27v-1.18c1.99-.5 3.8-1.13 5.97-1.94l.68.36c-.09.86-.18 2.13-.18 3.35h.09c1.26-1.72 4.25-3.48 7.1-3.48 4.14-.01 6.27 2.48 6.27 7.23M383.02 171.82c-.23-2.08-.5-3.89-.77-5.7l1.36-.18c.95 3.35 2.76 5.34 5.96 5.34 2.35 0 3.98-1.36 3.98-3.44 0-1.81-1.27-3.08-4.97-4.48-3.71-1.4-5.56-3.26-5.56-6.24 0-3.48 2.85-5.97 7.32-5.97 2.22 0 4.57.5 5.61 1.22.04 1.45.13 3.85.23 5.39l-1.36.04c-.63-2.58-2.17-4.66-4.97-4.66-2.17 0-3.53 1.31-3.53 2.99 0 1.81 1.27 3.08 4.97 4.48 3.7 1.4 5.56 3.26 5.56 6.24 0 3.85-3.35 6.47-8 6.47-2.21 0-4.38-.64-5.83-1.5" style="fill:#1D1D1B"></path>

</svg>