{
  "header": {
    "keySignatures": [],
    "meta": [],
    "name": "Piano",
    "ppq": 96,
    "tempos": [],
    "timeSignatures": [
      {
        "ticks": 0,
        "timeSignature": [4, 4],
        "measures": 0
      },
      {
        "ticks": 0,
        "timeSignature": [4, 4],
        "measures": 0
      }
    ]
  },
  "tracks": [
    {
      "channel": 0,
      "controlChanges": {
        "7": [
          {
            "number": 7,
            "ticks": 0,
            "time": 0,
            "value": 0.7874015748031497
          }
        ],
        "10": [
          {
            "number": 10,
            "ticks": 0,
            "time": 0,
            "value": 0.5039370078740157
          }
        ],
        "91": [
          {
            "number": 91,
            "ticks": 0,
            "time": 0,
            "value": 0
          }
        ],
        "93": [
          {
            "number": 93,
            "ticks": 0,
            "time": 0,
            "value": 0
          }
        ]
      },
      "pitchBends": [],
      "instrument": {
        "family": "piano",
        "number": 0,
        "name": "acoustic grand piano"
      },
      "name": "Piano",
      "notes": [
        {
          "duration": 2,
          "durationTicks": 384,
          "midi": 38,
          "name": "D2",
          "ticks": 0,
          "time": 0,
          "velocity": 0.6299212598425197
        },
        {
          "duration": 0.75,
          "durationTicks": 144,
          "midi": 62,
          "name": "D4",
          "ticks": 0,
          "time": 0,
          "velocity": 0.6299212598425197
        },
        {
          "duration": 2,
          "durationTicks": 384,
          "midi": 66,
          "name": "F#4",
          "ticks": 0,
          "time": 0,
          "velocity": 0.6299212598425197
        },
        {
          "duration": 2,
          "durationTicks": 384,
          "midi": 69,
          "name": "A4",
          "ticks": 0,
          "time": 0,
          "velocity": 0.6299212598425197
        },
        {
          "duration": 0.234375,
          "durationTicks": 45,
          "midi": 62,
          "name": "D4",
          "ticks": 144,
          "time": 0.75,
          "velocity": 0.6299212598425197
        },
        {
          "duration": 0.7083333333333333,
          "durationTicks": 136,
          "midi": 62,
          "name": "D4",
          "ticks": 192,
          "time": 1,
          "velocity": 0.6299212598425197
        },
        {
          "duration": 0.11979166666666674,
          "durationTicks": 23,
          "midi": 62,
          "name": "D4",
          "ticks": 336,
          "time": 1.75,
          "velocity": 0.6456692913385826
        },
        {
          "duration": 2,
          "durationTicks": 384,
          "midi": 42,
          "name": "F#2",
          "ticks": 384,
          "time": 2,
          "velocity": 0.6299212598425197
        },
        {
          "duration": 0.75,
          "durationTicks": 144,
          "midi": 61,
          "name": "C#4",
          "ticks": 384,
          "time": 2,
          "velocity": 0.6299212598425197
        },
        {
          "duration": 2,
          "durationTicks": 384,
          "midi": 66,
          "name": "F#4",
          "ticks": 384,
          "time": 2,
          "velocity": 0.6299212598425197
        },
        {
          "duration": 2,
          "durationTicks": 384,
          "midi": 70,
          "name": "A#4",
          "ticks": 384,
          "time": 2,
          "velocity": 0.6299212598425197
        },
        {
          "duration": 0.234375,
          "durationTicks": 45,
          "midi": 61,
          "name": "C#4",
          "ticks": 528,
          "time": 2.75,
          "velocity": 0.6220472440944882
        },
        {
          "duration": 0.7083333333333335,
          "durationTicks": 136,
          "midi": 59,
          "name": "B3",
          "ticks": 576,
          "time": 3,
          "velocity": 0.5984251968503937
        },
        {
          "duration": 0.234375,
          "durationTicks": 45,
          "midi": 54,
          "name": "F#3",
          "ticks": 720,
          "time": 3.75,
          "velocity": 0.6299212598425197
        },
        {
          "duration": 2,
          "durationTicks": 384,
          "midi": 38,
          "name": "D2",
          "ticks": 768,
          "time": 4,
          "velocity": 0.6299212598425197
        },
        {
          "duration": 1,
          "durationTicks": 192,
          "midi": 62,
          "name": "D4",
          "ticks": 768,
          "time": 4,
          "velocity": 0.6299212598425197
        },
        {
          "duration": 2,
          "durationTicks": 384,
          "midi": 66,
          "name": "F#4",
          "ticks": 768,
          "time": 4,
          "velocity": 0.6299212598425197
        },
        {
          "duration": 2,
          "durationTicks": 384,
          "midi": 69,
          "name": "A4",
          "ticks": 768,
          "time": 4,
          "velocity": 0.6299212598425197
        },
        {
          "duration": 0.234375,
          "durationTicks": 45,
          "midi": 64,
          "name": "E4",
          "ticks": 912,
          "time": 4.75,
          "velocity": 0.7086614173228346
        },
        {
          "duration": 0.708333333333333,
          "durationTicks": 136,
          "midi": 62,
          "name": "D4",
          "ticks": 960,
          "time": 5,
          "velocity": 0.5354330708661418
        },
        {
          "duration": 0.234375,
          "durationTicks": 45,
          "midi": 61,
          "name": "C#4",
          "ticks": 1104,
          "time": 5.75,
          "velocity": 0.6062992125984252
        },
        {
          "duration": 2,
          "durationTicks": 384,
          "midi": 42,
          "name": "F#2",
          "ticks": 1152,
          "time": 6,
          "velocity": 0.6299212598425197
        },
        {
          "duration": 2,
          "durationTicks": 384,
          "midi": 61,
          "name": "C#4",
          "ticks": 1152,
          "time": 6,
          "velocity": 0.6299212598425197
        },
        {
          "duration": 2,
          "durationTicks": 384,
          "midi": 66,
          "name": "F#4",
          "ticks": 1152,
          "time": 6,
          "velocity": 0.6299212598425197
        },
        {
          "duration": 2,
          "durationTicks": 384,
          "midi": 70,
          "name": "A#4",
          "ticks": 1152,
          "time": 6,
          "velocity": 0.6299212598425197
        },
        {
          "duration": 0.234375,
          "durationTicks": 45,
          "midi": 54,
          "name": "F#3",
          "ticks": 1488,
          "time": 7.75,
          "velocity": 0.6062992125984252
        },
        {
          "duration": 2,
          "durationTicks": 384,
          "midi": 38,
          "name": "D2",
          "ticks": 1536,
          "time": 8,
          "velocity": 0.6299212598425197
        },
        {
          "duration": 2,
          "durationTicks": 384,
          "midi": 62,
          "name": "D4",
          "ticks": 1536,
          "time": 8,
          "velocity": 0.6299212598425197
        },
        {
          "duration": 1,
          "durationTicks": 192,
          "midi": 66,
          "name": "F#4",
          "ticks": 1536,
          "time": 8,
          "velocity": 0.6299212598425197
        },
        {
          "duration": 2,
          "durationTicks": 384,
          "midi": 69,
          "name": "A4",
          "ticks": 1536,
          "time": 8,
          "velocity": 0.6299212598425197
        },
        {
          "duration": 0.234375,
          "durationTicks": 45,
          "midi": 67,
          "name": "G4",
          "ticks": 1680,
          "time": 8.75,
          "velocity": 0.6614173228346457
        },
        {
          "duration": 0.7083333333333339,
          "durationTicks": 136,
          "midi": 66,
          "name": "F#4",
          "ticks": 1728,
          "time": 9,
          "velocity": 0.6929133858267716
        },
        {
          "duration": 0.234375,
          "durationTicks": 45,
          "midi": 64,
          "name": "E4",
          "ticks": 1872,
          "time": 9.75,
          "velocity": 0.6614173228346457
        },
        {
          "duration": 2,
          "durationTicks": 384,
          "midi": 43,
          "name": "G2",
          "ticks": 1920,
          "time": 10,
          "velocity": 0.6299212598425197
        },
        {
          "duration": 2,
          "durationTicks": 384,
          "midi": 62,
          "name": "D4",
          "ticks": 1920,
          "time": 10,
          "velocity": 0.6299212598425197
        },
        {
          "duration": 2,
          "durationTicks": 384,
          "midi": 67,
          "name": "G4",
          "ticks": 1920,
          "time": 10,
          "velocity": 0.6299212598425197
        },
        {
          "duration": 2,
          "durationTicks": 384,
          "midi": 71,
          "name": "B4",
          "ticks": 1920,
          "time": 10,
          "velocity": 0.6299212598425197
        },
        {
          "duration": 0.234375,
          "durationTicks": 45,
          "midi": 66,
          "name": "F#4",
          "ticks": 2256,
          "time": 11.75,
          "velocity": 0.7007874015748031
        },
        {
          "duration": 2,
          "durationTicks": 384,
          "midi": 40,
          "name": "E2",
          "ticks": 2304,
          "time": 12,
          "velocity": 0.6299212598425197
        },
        {
          "duration": 2,
          "durationTicks": 384,
          "midi": 64,
          "name": "E4",
          "ticks": 2304,
          "time": 12,
          "velocity": 0.6299212598425197
        },
        {
          "duration": 1.75,
          "durationTicks": 336,
          "midi": 67,
          "name": "G4",
          "ticks": 2304,
          "time": 12,
          "velocity": 0.6299212598425197
        },
        {
          "duration": 1,
          "durationTicks": 192,
          "midi": 71,
          "name": "B4",
          "ticks": 2304,
          "time": 12,
          "velocity": 0.6299212598425197
        },
        {
          "duration": 0.234375,
          "durationTicks": 45,
          "midi": 69,
          "name": "A4",
          "ticks": 2448,
          "time": 12.75,
          "velocity": 0.6614173228346457
        },
        {
          "duration": 0.7083333333333339,
          "durationTicks": 136,
          "midi": 71,
          "name": "B4",
          "ticks": 2496,
          "time": 13,
          "velocity": 0.5433070866141733
        },
        {
          "duration": 0.234375,
          "durationTicks": 45,
          "midi": 67,
          "name": "G4",
          "ticks": 2640,
          "time": 13.75,
          "velocity": 0.6692913385826772
        },
        {
          "duration": 2,
          "durationTicks": 384,
          "midi": 42,
          "name": "F#2",
          "ticks": 2688,
          "time": 14,
          "velocity": 0.6299212598425197
        },
        {
          "duration": 2,
          "durationTicks": 384,
          "midi": 61,
          "name": "C#4",
          "ticks": 2688,
          "time": 14,
          "velocity": 0.6299212598425197
        },
        {
          "duration": 2,
          "durationTicks": 384,
          "midi": 66,
          "name": "F#4",
          "ticks": 2688,
          "time": 14,
          "velocity": 0.6299212598425197
        },
        {
          "duration": 2,
          "durationTicks": 384,
          "midi": 70,
          "name": "A#4",
          "ticks": 2688,
          "time": 14,
          "velocity": 0.6299212598425197
        },
        {
          "duration": 0.9479166666666661,
          "durationTicks": 182,
          "midi": 64,
          "name": "E4",
          "ticks": 2880,
          "time": 15,
          "velocity": 0.6456692913385826
        },
        {
          "duration": 2,
          "durationTicks": 384,
          "midi": 40,
          "name": "E2",
          "ticks": 3072,
          "time": 16,
          "velocity": 0.6299212598425197
        },
        {
          "duration": 1.8958333333333321,
          "durationTicks": 364,
          "midi": 59,
          "name": "B3",
          "ticks": 3072,
          "time": 16,
          "velocity": 0.6929133858267716
        },
        {
          "duration": 2,
          "durationTicks": 384,
          "midi": 64,
          "name": "E4",
          "ticks": 3072,
          "time": 16,
          "velocity": 0.6299212598425197
        },
        {
          "duration": 2,
          "durationTicks": 384,
          "midi": 67,
          "name": "G4",
          "ticks": 3072,
          "time": 16,
          "velocity": 0.6299212598425197
        },
        {
          "duration": 2,
          "durationTicks": 384,
          "midi": 71,
          "name": "B4",
          "ticks": 3072,
          "time": 16,
          "velocity": 0.6299212598425197
        },
        {
          "duration": 2,
          "durationTicks": 384,
          "midi": 42,
          "name": "F#2",
          "ticks": 3456,
          "time": 18,
          "velocity": 0.6299212598425197
        },
        {
          "duration": 2,
          "durationTicks": 384,
          "midi": 61,
          "name": "C#4",
          "ticks": 3456,
          "time": 18,
          "velocity": 0.6299212598425197
        },
        {
          "duration": 2,
          "durationTicks": 384,
          "midi": 66,
          "name": "F#4",
          "ticks": 3456,
          "time": 18,
          "velocity": 0.6299212598425197
        },
        {
          "duration": 2,
          "durationTicks": 384,
          "midi": 70,
          "name": "A#4",
          "ticks": 3456,
          "time": 18,
          "velocity": 0.6299212598425197
        },
        {
          "duration": 0.9479166666666679,
          "durationTicks": 182,
          "midi": 74,
          "name": "D5",
          "ticks": 3456,
          "time": 18,
          "velocity": 0.6535433070866141
        },
        {
          "duration": 0.9479166666666679,
          "durationTicks": 182,
          "midi": 73,
          "name": "C#5",
          "ticks": 3648,
          "time": 19,
          "velocity": 0.6535433070866141
        },
        {
          "duration": 2,
          "durationTicks": 384,
          "midi": 38,
          "name": "D2",
          "ticks": 3840,
          "time": 20,
          "velocity": 0.6299212598425197
        },
        {
          "duration": 2,
          "durationTicks": 384,
          "midi": 62,
          "name": "D4",
          "ticks": 3840,
          "time": 20,
          "velocity": 0.6299212598425197
        },
        {
          "duration": 2,
          "durationTicks": 384,
          "midi": 66,
          "name": "F#4",
          "ticks": 3840,
          "time": 20,
          "velocity": 0.6299212598425197
        },
        {
          "duration": 2,
          "durationTicks": 384,
          "midi": 69,
          "name": "A4",
          "ticks": 3840,
          "time": 20,
          "velocity": 0.6299212598425197
        },
        {
          "duration": 0.9479166666666679,
          "durationTicks": 182,
          "midi": 71,
          "name": "B4",
          "ticks": 4032,
          "time": 21,
          "velocity": 0.6535433070866141
        },
        {
          "duration": 2,
          "durationTicks": 384,
          "midi": 42,
          "name": "F#2",
          "ticks": 4224,
          "time": 22,
          "velocity": 0.6299212598425197
        },
        {
          "duration": 2,
          "durationTicks": 384,
          "midi": 61,
          "name": "C#4",
          "ticks": 4224,
          "time": 22,
          "velocity": 0.6299212598425197
        },
        {
          "duration": 2,
          "durationTicks": 384,
          "midi": 66,
          "name": "F#4",
          "ticks": 4224,
          "time": 22,
          "velocity": 0.6299212598425197
        },
        {
          "duration": 2,
          "durationTicks": 384,
          "midi": 70,
          "name": "A#4",
          "ticks": 4224,
          "time": 22,
          "velocity": 0.6299212598425197
        },
        {
          "duration": 1.8958333333333321,
          "durationTicks": 364,
          "midi": 71,
          "name": "B4",
          "ticks": 4224,
          "time": 22,
          "velocity": 0.6535433070866141
        },
        {
          "duration": 2,
          "durationTicks": 384,
          "midi": 38,
          "name": "D2",
          "ticks": 4608,
          "time": 24,
          "velocity": 0.6299212598425197
        },
        {
          "duration": 2,
          "durationTicks": 384,
          "midi": 62,
          "name": "D4",
          "ticks": 4608,
          "time": 24,
          "velocity": 0.6299212598425197
        },
        {
          "duration": 2,
          "durationTicks": 384,
          "midi": 66,
          "name": "F#4",
          "ticks": 4608,
          "time": 24,
          "velocity": 0.6299212598425197
        },
        {
          "duration": 2,
          "durationTicks": 384,
          "midi": 69,
          "name": "A4",
          "ticks": 4608,
          "time": 24,
          "velocity": 0.6299212598425197
        },
        {
          "duration": 0.47395833333333215,
          "durationTicks": 91,
          "midi": 71,
          "name": "B4",
          "ticks": 4608,
          "time": 24,
          "velocity": 0.6535433070866141
        },
        {
          "duration": 2.369791666666668,
          "durationTicks": 455,
          "midi": 64,
          "name": "E4",
          "ticks": 4704,
          "time": 24.5,
          "velocity": 0.6535433070866141
        },
        {
          "duration": 2,
          "durationTicks": 384,
          "midi": 43,
          "name": "G2",
          "ticks": 4992,
          "time": 26,
          "velocity": 0.6299212598425197
        },
        {
          "duration": 2,
          "durationTicks": 384,
          "midi": 62,
          "name": "D4",
          "ticks": 4992,
          "time": 26,
          "velocity": 0.6299212598425197
        },
        {
          "duration": 1,
          "durationTicks": 192,
          "midi": 67,
          "name": "G4",
          "ticks": 4992,
          "time": 26,
          "velocity": 0.6299212598425197
        },
        {
          "duration": 2,
          "durationTicks": 384,
          "midi": 71,
          "name": "B4",
          "ticks": 4992,
          "time": 26,
          "velocity": 0.6299212598425197
        },
        {
          "duration": 0.47395833333333215,
          "durationTicks": 91,
          "midi": 67,
          "name": "G4",
          "ticks": 5184,
          "time": 27,
          "velocity": 0.6535433070866141
        },
        {
          "duration": 0.47395833333333215,
          "durationTicks": 91,
          "midi": 64,
          "name": "E4",
          "ticks": 5280,
          "time": 27.5,
          "velocity": 0.6535433070866141
        },
        {
          "duration": 4,
          "durationTicks": 768,
          "midi": 46,
          "name": "A#2",
          "ticks": 5376,
          "time": 28,
          "velocity": 0.6299212598425197
        },
        {
          "duration": 4,
          "durationTicks": 768,
          "midi": 62,
          "name": "D4",
          "ticks": 5376,
          "time": 28,
          "velocity": 0.6299212598425197
        },
        {
          "duration": 4,
          "durationTicks": 768,
          "midi": 65,
          "name": "F4",
          "ticks": 5376,
          "time": 28,
          "velocity": 0.6299212598425197
        },
        {
          "duration": 4,
          "durationTicks": 768,
          "midi": 70,
          "name": "A#4",
          "ticks": 5376,
          "time": 28,
          "velocity": 0.6299212598425197
        },
        {
          "duration": 0.234375,
          "durationTicks": 45,
          "midi": 57,
          "name": "A3",
          "ticks": 6096,
          "time": 31.75,
          "velocity": 0.5826771653543307
        },
        {
          "duration": 4,
          "durationTicks": 768,
          "midi": 47,
          "name": "B2",
          "ticks": 6144,
          "time": 32,
          "velocity": 0.6299212598425197
        },
        {
          "duration": 4,
          "durationTicks": 768,
          "midi": 62,
          "name": "D4",
          "ticks": 6144,
          "time": 32,
          "velocity": 0.6299212598425197
        },
        {
          "duration": 1.75,
          "durationTicks": 336,
          "midi": 66,
          "name": "F#4",
          "ticks": 6144,
          "time": 32,
          "velocity": 0.6299212598425197
        },
        {
          "duration": 4,
          "durationTicks": 768,
          "midi": 71,
          "name": "B4",
          "ticks": 6144,
          "time": 32,
          "velocity": 0.6299212598425197
        },
        {
          "duration": 0.234375,
          "durationTicks": 45,
          "midi": 64,
          "name": "E4",
          "ticks": 6288,
          "time": 32.75,
          "velocity": 0.5511811023622047
        },
        {
          "duration": 0.7083333333333357,
          "durationTicks": 136,
          "midi": 64,
          "name": "E4",
          "ticks": 6336,
          "time": 33,
          "velocity": 0.6141732283464567
        },
        {
          "duration": 0.234375,
          "durationTicks": 45,
          "midi": 66,
          "name": "F#4",
          "ticks": 6480,
          "time": 33.75,
          "velocity": 0.6141732283464567
        },
        {
          "duration": 1.8958333333333357,
          "durationTicks": 364,
          "midi": 66,
          "name": "F#4",
          "ticks": 6528,
          "time": 34,
          "velocity": 0.5669291338582677
        },
        {
          "duration": 4,
          "durationTicks": 768,
          "midi": 40,
          "name": "E2",
          "ticks": 6912,
          "time": 36,
          "velocity": 0.6299212598425197
        },
        {
          "duration": 1,
          "durationTicks": 192,
          "midi": 64,
          "name": "E4",
          "ticks": 6912,
          "time": 36,
          "velocity": 0.6299212598425197
        },
        {
          "duration": 4,
          "durationTicks": 768,
          "midi": 67,
          "name": "G4",
          "ticks": 6912,
          "time": 36,
          "velocity": 0.6299212598425197
        },
        {
          "duration": 4,
          "durationTicks": 768,
          "midi": 71,
          "name": "B4",
          "ticks": 6912,
          "time": 36,
          "velocity": 0.6299212598425197
        },
        {
          "duration": 0.9479166666666643,
          "durationTicks": 182,
          "midi": 64,
          "name": "E4",
          "ticks": 7104,
          "time": 37,
          "velocity": 0.6062992125984252
        },
        {
          "duration": 1.421875,
          "durationTicks": 273,
          "midi": 66,
          "name": "F#4",
          "ticks": 7296,
          "time": 38,
          "velocity": 0.5905511811023622
        },
        {
          "duration": 0.234375,
          "durationTicks": 45,
          "midi": 57,
          "name": "A3",
          "ticks": 7632,
          "time": 39.75,
          "velocity": 0.5590551181102362
        },
        {
          "duration": 4,
          "durationTicks": 768,
          "midi": 47,
          "name": "B2",
          "ticks": 7680,
          "time": 40,
          "velocity": 0.6299212598425197
        },
        {
          "duration": 4,
          "durationTicks": 768,
          "midi": 62,
          "name": "D4",
          "ticks": 7680,
          "time": 40,
          "velocity": 0.6299212598425197
        },
        {
          "duration": 1.75,
          "durationTicks": 336,
          "midi": 66,
          "name": "F#4",
          "ticks": 7680,
          "time": 40,
          "velocity": 0.6299212598425197
        },
        {
          "duration": 4,
          "durationTicks": 768,
          "midi": 71,
          "name": "B4",
          "ticks": 7680,
          "time": 40,
          "velocity": 0.6299212598425197
        },
        {
          "duration": 0.234375,
          "durationTicks": 45,
          "midi": 64,
          "name": "E4",
          "ticks": 7824,
          "time": 40.75,
          "velocity": 0.5905511811023622
        },
        {
          "duration": 0.4739583333333357,
          "durationTicks": 91,
          "midi": 64,
          "name": "E4",
          "ticks": 7872,
          "time": 41,
          "velocity": 0.5905511811023622
        },
        {
          "duration": 0.234375,
          "durationTicks": 45,
          "midi": 66,
          "name": "F#4",
          "ticks": 8016,
          "time": 41.75,
          "velocity": 0.5905511811023622
        },
        {
          "duration": 1.8958333333333357,
          "durationTicks": 364,
          "midi": 66,
          "name": "F#4",
          "ticks": 8064,
          "time": 42,
          "velocity": 0.5590551181102362
        },
        {
          "duration": 4,
          "durationTicks": 768,
          "midi": 40,
          "name": "E2",
          "ticks": 8448,
          "time": 44,
          "velocity": 0.6299212598425197
        },
        {
          "duration": 1,
          "durationTicks": 192,
          "midi": 64,
          "name": "E4",
          "ticks": 8448,
          "time": 44,
          "velocity": 0.6299212598425197
        },
        {
          "duration": 4,
          "durationTicks": 768,
          "midi": 67,
          "name": "G4",
          "ticks": 8448,
          "time": 44,
          "velocity": 0.6299212598425197
        },
        {
          "duration": 4,
          "durationTicks": 768,
          "midi": 71,
          "name": "B4",
          "ticks": 8448,
          "time": 44,
          "velocity": 0.6299212598425197
        },
        {
          "duration": 0.9479166666666643,
          "durationTicks": 182,
          "midi": 64,
          "name": "E4",
          "ticks": 8640,
          "time": 45,
          "velocity": 0.6299212598425197
        },
        {
          "duration": 1.8958333333333357,
          "durationTicks": 364,
          "midi": 66,
          "name": "F#4",
          "ticks": 8832,
          "time": 46,
          "velocity": 0.5984251968503937
        },
        {
          "duration": 4,
          "durationTicks": 768,
          "midi": 47,
          "name": "B2",
          "ticks": 9216,
          "time": 48,
          "velocity": 0.6299212598425197
        },
        {
          "duration": 4,
          "durationTicks": 768,
          "midi": 62,
          "name": "D4",
          "ticks": 9216,
          "time": 48,
          "velocity": 0.6299212598425197
        },
        {
          "duration": 0.75,
          "durationTicks": 144,
          "midi": 66,
          "name": "F#4",
          "ticks": 9216,
          "time": 48,
          "velocity": 0.6299212598425197
        },
        {
          "duration": 4,
          "durationTicks": 768,
          "midi": 71,
          "name": "B4",
          "ticks": 9216,
          "time": 48,
          "velocity": 0.6299212598425197
        },
        {
          "duration": 0.234375,
          "durationTicks": 45,
          "midi": 66,
          "name": "F#4",
          "ticks": 9360,
          "time": 48.75,
          "velocity": 0.6299212598425197
        },
        {
          "duration": 0.7083333333333357,
          "durationTicks": 136,
          "midi": 67,
          "name": "G4",
          "ticks": 9408,
          "time": 49,
          "velocity": 0.6692913385826772
        },
        {
          "duration": 0.234375,
          "durationTicks": 45,
          "midi": 69,
          "name": "A4",
          "ticks": 9552,
          "time": 49.75,
          "velocity": 0.6692913385826772
        },
        {
          "duration": 1.8958333333333357,
          "durationTicks": 364,
          "midi": 69,
          "name": "A4",
          "ticks": 9600,
          "time": 50,
          "velocity": 0.6220472440944882
        },
        {
          "duration": 2,
          "durationTicks": 384,
          "midi": 43,
          "name": "G2",
          "ticks": 9984,
          "time": 52,
          "velocity": 0.6299212598425197
        },
        {
          "duration": 2,
          "durationTicks": 384,
          "midi": 62,
          "name": "D4",
          "ticks": 9984,
          "time": 52,
          "velocity": 0.6299212598425197
        },
        {
          "duration": 2,
          "durationTicks": 384,
          "midi": 67,
          "name": "G4",
          "ticks": 9984,
          "time": 52,
          "velocity": 0.6299212598425197
        },
        {
          "duration": 2,
          "durationTicks": 384,
          "midi": 71,
          "name": "B4",
          "ticks": 9984,
          "time": 52,
          "velocity": 0.6299212598425197
        },
        {
          "duration": 0.4739583333333357,
          "durationTicks": 91,
          "midi": 74,
          "name": "D5",
          "ticks": 10176,
          "time": 53,
          "velocity": 0.6929133858267716
        },
        {
          "duration": 0.4739583333333357,
          "durationTicks": 91,
          "midi": 73,
          "name": "C#5",
          "ticks": 10272,
          "time": 53.5,
          "velocity": 0.5354330708661418
        },
        {
          "duration": 2,
          "durationTicks": 384,
          "midi": 40,
          "name": "E2",
          "ticks": 10368,
          "time": 54,
          "velocity": 0.6299212598425197
        },
        {
          "duration": 2,
          "durationTicks": 384,
          "midi": 64,
          "name": "E4",
          "ticks": 10368,
          "time": 54,
          "velocity": 0.6299212598425197
        },
        {
          "duration": 2,
          "durationTicks": 384,
          "midi": 67,
          "name": "G4",
          "ticks": 10368,
          "time": 54,
          "velocity": 0.6299212598425197
        },
        {
          "duration": 2,
          "durationTicks": 384,
          "midi": 71,
          "name": "B4",
          "ticks": 10368,
          "time": 54,
          "velocity": 0.6299212598425197
        },
        {
          "duration": 0.234375,
          "durationTicks": 45,
          "midi": 66,
          "name": "F#4",
          "ticks": 10704,
          "time": 55.75,
          "velocity": 0.6299212598425197
        },
        {
          "duration": 4,
          "durationTicks": 768,
          "midi": 45,
          "name": "A2",
          "ticks": 10752,
          "time": 56,
          "velocity": 0.6299212598425197
        },
        {
          "duration": 4,
          "durationTicks": 768,
          "midi": 61,
          "name": "C#4",
          "ticks": 10752,
          "time": 56,
          "velocity": 0.6299212598425197
        },
        {
          "duration": 2,
          "durationTicks": 384,
          "midi": 64,
          "name": "E4",
          "ticks": 10752,
          "time": 56,
          "velocity": 0.6299212598425197
        },
        {
          "duration": 4,
          "durationTicks": 768,
          "midi": 69,
          "name": "A4",
          "ticks": 10752,
          "time": 56,
          "velocity": 0.6299212598425197
        },
        {
          "duration": 0.234375,
          "durationTicks": 45,
          "midi": 66,
          "name": "F#4",
          "ticks": 10896,
          "time": 56.75,
          "velocity": 0.5905511811023622
        },
        {
          "duration": 0.7083333333333357,
          "durationTicks": 136,
          "midi": 67,
          "name": "G4",
          "ticks": 10944,
          "time": 57,
          "velocity": 0.6062992125984252
        },
        {
          "duration": 0.234375,
          "durationTicks": 45,
          "midi": 66,
          "name": "F#4",
          "ticks": 11088,
          "time": 57.75,
          "velocity": 0.6614173228346457
        },
        {
          "duration": 1.8958333333333357,
          "durationTicks": 364,
          "midi": 64,
          "name": "E4",
          "ticks": 11136,
          "time": 58,
          "velocity": 0.5905511811023622
        },
        {
          "duration": 2,
          "durationTicks": 384,
          "midi": 42,
          "name": "F#2",
          "ticks": 11520,
          "time": 60,
          "velocity": 0.6299212598425197
        },
        {
          "duration": 2,
          "durationTicks": 384,
          "midi": 61,
          "name": "C#4",
          "ticks": 11520,
          "time": 60,
          "velocity": 0.6299212598425197
        },
        {
          "duration": 2,
          "durationTicks": 384,
          "midi": 66,
          "name": "F#4",
          "ticks": 11520,
          "time": 60,
          "velocity": 0.6299212598425197
        },
        {
          "duration": 2,
          "durationTicks": 384,
          "midi": 70,
          "name": "A#4",
          "ticks": 11520,
          "time": 60,
          "velocity": 0.6299212598425197
        },
        {
          "duration": 0.9479166666666643,
          "durationTicks": 182,
          "midi": 64,
          "name": "E4",
          "ticks": 11712,
          "time": 61,
          "velocity": 0.6062992125984252
        },
        {
          "duration": 2,
          "durationTicks": 384,
          "midi": 47,
          "name": "B2",
          "ticks": 11904,
          "time": 62,
          "velocity": 0.6299212598425197
        },
        {
          "duration": 0.4947916666666643,
          "durationTicks": 95,
          "midi": 59,
          "name": "B3",
          "ticks": 11904,
          "time": 62,
          "velocity": 0.5590551181102362
        },
        {
          "duration": 2,
          "durationTicks": 384,
          "midi": 62,
          "name": "D4",
          "ticks": 11904,
          "time": 62,
          "velocity": 0.6299212598425197
        },
        {
          "duration": 2,
          "durationTicks": 384,
          "midi": 66,
          "name": "F#4",
          "ticks": 11904,
          "time": 62,
          "velocity": 0.6299212598425197
        },
        {
          "duration": 2,
          "durationTicks": 384,
          "midi": 71,
          "name": "B4",
          "ticks": 11904,
          "time": 62,
          "velocity": 0.6299212598425197
        },
        {
          "duration": 0.25,
          "durationTicks": 48,
          "midi": 47,
          "name": "B2",
          "ticks": 12288,
          "time": 64,
          "velocity": 0.6299212598425197
        },
        {
          "duration": 0.25,
          "durationTicks": 48,
          "midi": 37,
          "name": "C#2",
          "ticks": 12336,
          "time": 64.25,
          "velocity": 0.6299212598425197
        },
        {
          "duration": 0.25,
          "durationTicks": 48,
          "midi": 38,
          "name": "D2",
          "ticks": 12384,
          "time": 64.5,
          "velocity": 0.6299212598425197
        },
        {
          "duration": 0.25,
          "durationTicks": 48,
          "midi": 40,
          "name": "E2",
          "ticks": 12432,
          "time": 64.75,
          "velocity": 0.6299212598425197
        },
        {
          "duration": 0.25,
          "durationTicks": 48,
          "midi": 42,
          "name": "F#2",
          "ticks": 12480,
          "time": 65,
          "velocity": 0.6299212598425197
        },
        {
          "duration": 0.234375,
          "durationTicks": 45,
          "midi": 73,
          "name": "C#5",
          "ticks": 12480,
          "time": 65,
          "velocity": 0.6299212598425197
        },
        {
          "duration": 0.25,
          "durationTicks": 48,
          "midi": 43,
          "name": "G2",
          "ticks": 12528,
          "time": 65.25,
          "velocity": 0.6299212598425197
        },
        {
          "duration": 0.234375,
          "durationTicks": 45,
          "midi": 74,
          "name": "D5",
          "ticks": 12528,
          "time": 65.25,
          "velocity": 0.6299212598425197
        },
        {
          "duration": 0.25,
          "durationTicks": 48,
          "midi": 45,
          "name": "A2",
          "ticks": 12576,
          "time": 65.5,
          "velocity": 0.6299212598425197
        },
        {
          "duration": 0.234375,
          "durationTicks": 45,
          "midi": 73,
          "name": "C#5",
          "ticks": 12576,
          "time": 65.5,
          "velocity": 0.6299212598425197
        },
        {
          "duration": 0.234375,
          "durationTicks": 45,
          "midi": 76,
          "name": "E5",
          "ticks": 12576,
          "time": 65.5,
          "velocity": 0.6299212598425197
        },
        {
          "duration": 6.25,
          "durationTicks": 1200,
          "midi": 47,
          "name": "B2",
          "ticks": 12624,
          "time": 65.75,
          "velocity": 0.6299212598425197
        },
        {
          "duration": 0.234375,
          "durationTicks": 45,
          "midi": 74,
          "name": "D5",
          "ticks": 12624,
          "time": 65.75,
          "velocity": 0.6299212598425197
        },
        {
          "duration": 0.234375,
          "durationTicks": 45,
          "midi": 78,
          "name": "F#5",
          "ticks": 12624,
          "time": 65.75,
          "velocity": 0.6299212598425197
        },
        {
          "duration": 0.234375,
          "durationTicks": 45,
          "midi": 73,
          "name": "C#5",
          "ticks": 12864,
          "time": 67,
          "velocity": 0.6299212598425197
        },
        {
          "duration": 0.234375,
          "durationTicks": 45,
          "midi": 74,
          "name": "D5",
          "ticks": 12912,
          "time": 67.25,
          "velocity": 0.6299212598425197
        },
        {
          "duration": 0.234375,
          "durationTicks": 45,
          "midi": 73,
          "name": "C#5",
          "ticks": 12960,
          "time": 67.5,
          "velocity": 0.6299212598425197
        },
        {
          "duration": 0.234375,
          "durationTicks": 45,
          "midi": 76,
          "name": "E5",
          "ticks": 12960,
          "time": 67.5,
          "velocity": 0.6299212598425197
        },
        {
          "duration": 0.234375,
          "durationTicks": 45,
          "midi": 74,
          "name": "D5",
          "ticks": 13008,
          "time": 67.75,
          "velocity": 0.6299212598425197
        },
        {
          "duration": 0.234375,
          "durationTicks": 45,
          "midi": 78,
          "name": "F#5",
          "ticks": 13008,
          "time": 67.75,
          "velocity": 0.6299212598425197
        }
      ],
      "endOfTrackTicks": 13824
    }
  ]
}
